solid OpenSCAD_Model
  facet normal -0.035432285486386016 0.9993720794304848 0
    outer loop
      vertex 8.006428571428572 -8.915353894233704 2.1
      vertex 8.006428571428572 -8.915353894233704 0
      vertex 7.099999999999994 -8.947490909642596 0
    endloop
  endfacet
  facet normal -0.035432285486386016 0.9993720794304848 0
    outer loop
      vertex 7.099999999999994 -8.947490909642596 2.1
      vertex 8.006428571428572 -8.915353894233704 2.1
      vertex 7.099999999999994 -8.947490909642596 0
    endloop
  endfacet
  facet normal -0.035432285486386016 0.9993720794304848 0
    outer loop
      vertex -9.993571428571428 -8.915353894233704 2.1
      vertex -9.993571428571428 -8.915353894233704 0
      vertex -10.900000000000006 -8.947490909642596 0
    endloop
  endfacet
  facet normal -0.035432285486386016 0.9993720794304848 0
    outer loop
      vertex -10.900000000000006 -8.947490909642596 2.1
      vertex -9.993571428571428 -8.915353894233704 2.1
      vertex -10.900000000000006 -8.947490909642596 0
    endloop
  endfacet
  facet normal -0.035432285486386016 0.9993720794304848 0
    outer loop
      vertex -0.9935714285714283 -8.915353894233704 2.1
      vertex -0.9935714285714283 -8.915353894233704 0
      vertex -1.9000000000000057 -8.947490909642596 0
    endloop
  endfacet
  facet normal -0.035432285486386016 0.9993720794304848 0
    outer loop
      vertex -1.9000000000000057 -8.947490909642596 2.1
      vertex -0.9935714285714283 -8.915353894233704 2.1
      vertex -1.9000000000000057 -8.947490909642596 0
    endloop
  endfacet
  facet normal -0.035432278076299846 0.999372079693206 0
    outer loop
      vertex 8.006428571428572 -8.915353894233704 0
      vertex 8.25 -8.906718181105482 1.5
      vertex 8.25 -8.906718181105482 0
    endloop
  endfacet
  facet normal -0.03543227807629985 0.9993720796932061 0
    outer loop
      vertex 8.006428571428572 -8.915353894233704 2.1
      vertex 8.25 -8.906718181105482 1.5
      vertex 8.006428571428572 -8.915353894233704 0
    endloop
  endfacet
  facet normal -0.035432278076295544 0.9993720796932063 1.7450396960892912e-15
    outer loop
      vertex 8.006428571428572 -8.915353894233704 2.1
      vertex 9.010000000000005 -8.87977273017168 1.5
      vertex 8.25 -8.906718181105482 1.5
    endloop
  endfacet
  facet normal -0.03543227807629659 0.9993720796932062 0
    outer loop
      vertex 8.006428571428572 -8.915353894233704 2.1
      vertex 9.010000000000005 -8.87977273017168 2.1
      vertex 9.010000000000005 -8.87977273017168 1.5
    endloop
  endfacet
  facet normal -0.035432278076299846 0.999372079693206 0
    outer loop
      vertex -9.993571428571428 -8.915353894233704 0
      vertex -9.75 -8.906718181105482 1.5
      vertex -9.75 -8.906718181105482 0
    endloop
  endfacet
  facet normal -0.03543227807629985 0.9993720796932061 0
    outer loop
      vertex -9.993571428571428 -8.915353894233704 2.1
      vertex -9.75 -8.906718181105482 1.5
      vertex -9.993571428571428 -8.915353894233704 0
    endloop
  endfacet
  facet normal -0.035432278076295544 0.9993720796932063 1.7450396960892912e-15
    outer loop
      vertex -9.993571428571428 -8.915353894233704 2.1
      vertex -8.989999999999995 -8.87977273017168 1.5
      vertex -9.75 -8.906718181105482 1.5
    endloop
  endfacet
  facet normal -0.03543227807629659 0.9993720796932062 0
    outer loop
      vertex -9.993571428571428 -8.915353894233704 2.1
      vertex -8.989999999999995 -8.87977273017168 2.1
      vertex -8.989999999999995 -8.87977273017168 1.5
    endloop
  endfacet
  facet normal -0.035432278076299846 0.999372079693206 0
    outer loop
      vertex -0.9935714285714283 -8.915353894233704 0
      vertex -0.75 -8.906718181105482 1.5
      vertex -0.75 -8.906718181105482 0
    endloop
  endfacet
  facet normal -0.03543227807629985 0.9993720796932061 0
    outer loop
      vertex -0.9935714285714283 -8.915353894233704 2.1
      vertex -0.75 -8.906718181105482 1.5
      vertex -0.9935714285714283 -8.915353894233704 0
    endloop
  endfacet
  facet normal -0.035432278076295544 0.9993720796932063 1.7450396960892912e-15
    outer loop
      vertex -0.9935714285714283 -8.915353894233704 2.1
      vertex 0.010000000000005116 -8.87977273017168 1.5
      vertex -0.75 -8.906718181105482 1.5
    endloop
  endfacet
  facet normal -0.03543227807629659 0.9993720796932062 0
    outer loop
      vertex -0.9935714285714283 -8.915353894233704 2.1
      vertex 0.010000000000005116 -8.87977273017168 2.1
      vertex 0.010000000000005116 -8.87977273017168 1.5
    endloop
  endfacet
  facet normal -0.03543228013274305 0.9993720796202958 0
    outer loop
      vertex 9.010000000000005 -8.87977273017168 2.1
      vertex 9.400708399750599 -8.865920342504978 1.5
      vertex 9.010000000000005 -8.87977273017168 1.5
    endloop
  endfacet
  facet normal -0.03543228013274305 0.9993720796202958 0
    outer loop
      vertex 9.010000000000005 -8.87977273017168 2.1
      vertex 9.400708399750599 -8.865920342504978 2.1
      vertex 9.400708399750599 -8.865920342504978 1.5
    endloop
  endfacet
  facet normal -0.03543228013274305 0.9993720796202958 0
    outer loop
      vertex -8.989999999999995 -8.87977273017168 2.1
      vertex -8.599291600249401 -8.865920342504978 1.5
      vertex -8.989999999999995 -8.87977273017168 1.5
    endloop
  endfacet
  facet normal -0.03543228013274305 0.9993720796202958 0
    outer loop
      vertex -8.989999999999995 -8.87977273017168 2.1
      vertex -8.599291600249401 -8.865920342504978 2.1
      vertex -8.599291600249401 -8.865920342504978 1.5
    endloop
  endfacet
  facet normal -0.03543228013274305 0.9993720796202958 0
    outer loop
      vertex 0.010000000000005116 -8.87977273017168 2.1
      vertex 0.4007083997505987 -8.865920342504978 1.5
      vertex 0.010000000000005116 -8.87977273017168 1.5
    endloop
  endfacet
  facet normal -0.03543228013274305 0.9993720796202958 0
    outer loop
      vertex 0.010000000000005116 -8.87977273017168 2.1
      vertex 0.4007083997505987 -8.865920342504978 2.1
      vertex 0.4007083997505987 -8.865920342504978 1.5
    endloop
  endfacet
  facet normal -0.035767807979777175 0.9993601272375848 0
    outer loop
      vertex 9.779545322482761 -8.852361500263214 0
      vertex 9.75 -8.853418948316685 0
      vertex 9.75 -8.853418948316685 1.5
    endloop
  endfacet
  facet normal -0.035767807979777175 0.9993601272375848 0
    outer loop
      vertex 9.779545322482761 -8.852361500263214 2.1
      vertex 9.779545322482761 -8.852361500263214 0
      vertex 9.75 -8.853418948316685 1.5
    endloop
  endfacet
  facet normal -0.035767807979748614 0.9993601272375858 0
    outer loop
      vertex 9.400708399750599 -8.865920342504978 2.1
      vertex 9.75 -8.853418948316685 1.5
      vertex 9.400708399750599 -8.865920342504978 1.5
    endloop
  endfacet
  facet normal -0.03576780797975085 0.9993601272375858 -1.3003884588375086e-15
    outer loop
      vertex 9.400708399750599 -8.865920342504978 2.1
      vertex 9.779545322482761 -8.852361500263214 2.1
      vertex 9.75 -8.853418948316685 1.5
    endloop
  endfacet
  facet normal -0.035767807979777175 0.9993601272375848 0
    outer loop
      vertex -8.220454677517239 -8.852361500263214 0
      vertex -8.25 -8.853418948316685 0
      vertex -8.25 -8.853418948316685 1.5
    endloop
  endfacet
  facet normal -0.035767807979777175 0.9993601272375848 0
    outer loop
      vertex -8.220454677517239 -8.852361500263214 2.1
      vertex -8.220454677517239 -8.852361500263214 0
      vertex -8.25 -8.853418948316685 1.5
    endloop
  endfacet
  facet normal -0.035767807979748614 0.9993601272375858 0
    outer loop
      vertex -8.599291600249401 -8.865920342504978 2.1
      vertex -8.25 -8.853418948316685 1.5
      vertex -8.599291600249401 -8.865920342504978 1.5
    endloop
  endfacet
  facet normal -0.03576780797975085 0.9993601272375858 -1.3003884588375086e-15
    outer loop
      vertex -8.599291600249401 -8.865920342504978 2.1
      vertex -8.220454677517239 -8.852361500263214 2.1
      vertex -8.25 -8.853418948316685 1.5
    endloop
  endfacet
  facet normal -0.035767807979777175 0.9993601272375848 0
    outer loop
      vertex 0.7795453224827611 -8.852361500263214 0
      vertex 0.75 -8.853418948316685 0
      vertex 0.75 -8.853418948316685 1.5
    endloop
  endfacet
  facet normal -0.035767807979777175 0.9993601272375848 0
    outer loop
      vertex 0.7795453224827611 -8.852361500263214 2.1
      vertex 0.7795453224827611 -8.852361500263214 0
      vertex 0.75 -8.853418948316685 1.5
    endloop
  endfacet
  facet normal -0.035767807979748614 0.9993601272375858 0
    outer loop
      vertex 0.4007083997505987 -8.865920342504978 2.1
      vertex 0.75 -8.853418948316685 1.5
      vertex 0.4007083997505987 -8.865920342504978 1.5
    endloop
  endfacet
  facet normal -0.03576780797975085 0.9993601272375858 -1.3003884588375086e-15
    outer loop
      vertex 0.4007083997505987 -8.865920342504978 2.1
      vertex 0.7795453224827611 -8.852361500263214 2.1
      vertex 0.75 -8.853418948316685 1.5
    endloop
  endfacet
  facet normal -0.16673024536616157 0.9860025483132078 0
    outer loop
      vertex 9.779545322482761 -8.852361500263214 2.1
      vertex 10.135000000000005 -8.792255118489265 0
      vertex 9.779545322482761 -8.852361500263214 0
    endloop
  endfacet
  facet normal -0.16673024536616157 0.9860025483132078 0
    outer loop
      vertex 9.779545322482761 -8.852361500263214 2.1
      vertex 10.135000000000005 -8.792255118489265 2.1
      vertex 10.135000000000005 -8.792255118489265 0
    endloop
  endfacet
  facet normal -0.16673024536616157 0.9860025483132078 0
    outer loop
      vertex -8.220454677517239 -8.852361500263214 2.1
      vertex -7.864999999999995 -8.792255118489265 0
      vertex -8.220454677517239 -8.852361500263214 0
    endloop
  endfacet
  facet normal -0.16673024536616157 0.9860025483132078 0
    outer loop
      vertex -8.220454677517239 -8.852361500263214 2.1
      vertex -7.864999999999995 -8.792255118489265 2.1
      vertex -7.864999999999995 -8.792255118489265 0
    endloop
  endfacet
  facet normal -0.16673024536616157 0.9860025483132078 0
    outer loop
      vertex 0.7795453224827611 -8.852361500263214 2.1
      vertex 1.1350000000000051 -8.792255118489265 0
      vertex 0.7795453224827611 -8.852361500263214 0
    endloop
  endfacet
  facet normal -0.16673024536616157 0.9860025483132078 0
    outer loop
      vertex 0.7795453224827611 -8.852361500263214 2.1
      vertex 1.1350000000000051 -8.792255118489265 2.1
      vertex 1.1350000000000051 -8.792255118489265 0
    endloop
  endfacet
  facet normal -0.38775627624274617 0.9217619379397042 0
    outer loop
      vertex 10.135000000000005 -8.792255118489265 2.1
      vertex 10.456272121794726 -8.657106034457684 0
      vertex 10.135000000000005 -8.792255118489265 0
    endloop
  endfacet
  facet normal -0.38775627624274617 0.9217619379397042 0
    outer loop
      vertex 10.135000000000005 -8.792255118489265 2.1
      vertex 10.456272121794726 -8.657106034457684 2.1
      vertex 10.456272121794726 -8.657106034457684 0
    endloop
  endfacet
  facet normal -0.38775627624274617 0.9217619379397042 0
    outer loop
      vertex -7.864999999999995 -8.792255118489265 2.1
      vertex -7.543727878205274 -8.657106034457684 0
      vertex -7.864999999999995 -8.792255118489265 0
    endloop
  endfacet
  facet normal -0.38775627624274617 0.9217619379397042 0
    outer loop
      vertex -7.864999999999995 -8.792255118489265 2.1
      vertex -7.543727878205274 -8.657106034457684 2.1
      vertex -7.543727878205274 -8.657106034457684 0
    endloop
  endfacet
  facet normal -0.38775627624274617 0.9217619379397042 0
    outer loop
      vertex 1.1350000000000051 -8.792255118489265 2.1
      vertex 1.4562721217947256 -8.657106034457684 0
      vertex 1.1350000000000051 -8.792255118489265 0
    endloop
  endfacet
  facet normal -0.38775627624274617 0.9217619379397042 0
    outer loop
      vertex 1.1350000000000051 -8.792255118489265 2.1
      vertex 1.4562721217947256 -8.657106034457684 2.1
      vertex 1.4562721217947256 -8.657106034457684 0
    endloop
  endfacet
  facet normal -0.5797862444453005 0.8147686240596248 0
    outer loop
      vertex 10.456272121794726 -8.657106034457684 2.1
      vertex 10.733599997017706 -8.459760576486588 0
      vertex 10.456272121794726 -8.657106034457684 0
    endloop
  endfacet
  facet normal -0.5797862444453005 0.8147686240596248 0
    outer loop
      vertex 10.456272121794726 -8.657106034457684 2.1
      vertex 10.733599997017706 -8.459760576486588 2.1
      vertex 10.733599997017706 -8.459760576486588 0
    endloop
  endfacet
  facet normal -0.5797862444453005 0.8147686240596248 0
    outer loop
      vertex -7.543727878205274 -8.657106034457684 2.1
      vertex -7.266400002982294 -8.459760576486588 0
      vertex -7.543727878205274 -8.657106034457684 0
    endloop
  endfacet
  facet normal -0.5797862444453005 0.8147686240596248 0
    outer loop
      vertex -7.543727878205274 -8.657106034457684 2.1
      vertex -7.266400002982294 -8.459760576486588 2.1
      vertex -7.266400002982294 -8.459760576486588 0
    endloop
  endfacet
  facet normal -0.5797862444453005 0.8147686240596248 0
    outer loop
      vertex 1.4562721217947256 -8.657106034457684 2.1
      vertex 1.7335999970177056 -8.459760576486588 0
      vertex 1.4562721217947256 -8.657106034457684 0
    endloop
  endfacet
  facet normal -0.5797862444453005 0.8147686240596248 0
    outer loop
      vertex 1.4562721217947256 -8.657106034457684 2.1
      vertex 1.7335999970177056 -8.459760576486588 2.1
      vertex 1.7335999970177056 -8.459760576486588 0
    endloop
  endfacet
  facet normal -0.7395332033088768 0.6731200793348179 -6.003839130316115e-15
    outer loop
      vertex 10.733599997017706 -8.459760576486588 0
      vertex 10.899999999999991 -8.276942783623085 0.14137171252567526
      vertex 10.801010460904877 -8.385699086084635 0
    endloop
  endfacet
  facet normal -0.7655029166823779 0.6420547849694171 0.042082510008884695
    outer loop
      vertex 10.899999999999991 -8.276942783623085 0.14137171252567526
      vertex 10.855847713329155 -8.32031825308355 0
      vertex 10.801010460904877 -8.385699086084635 0
    endloop
  endfacet
  facet normal -0.8048530181021416 0.5820707574467123 0.11578105448338266
    outer loop
      vertex 10.899999999999991 -8.271809698670253 0.0630560000141358
      vertex 10.899999999999991 -8.259267082365037 0
      vertex 10.855847713329155 -8.32031825308355 0
    endloop
  endfacet
  facet normal -0.7655029166823786 0.6420547849694165 0.042082510008885105
    outer loop
      vertex 10.899999999999991 -8.276942783623085 0.14137171252567526
      vertex 10.899999999999991 -8.271809698670253 0.0630560000141358
      vertex 10.855847713329155 -8.32031825308355 0
    endloop
  endfacet
  facet normal -0.7395332033088791 0.6731200793348154 0
    outer loop
      vertex 10.899999999999991 -8.276942783623085 2.1
      vertex 10.899999999999991 -8.276942783623085 0.14137171252567526
      vertex 10.733599997017706 -8.459760576486588 0
    endloop
  endfacet
  facet normal -0.7395332033088791 0.6731200793348154 0
    outer loop
      vertex 10.733599997017706 -8.459760576486588 2.1
      vertex 10.899999999999991 -8.276942783623085 2.1
      vertex 10.733599997017706 -8.459760576486588 0
    endloop
  endfacet
  facet normal -0.7395332033088768 0.6731200793348179 -6.003839130316115e-15
    outer loop
      vertex -7.266400002982294 -8.459760576486588 0
      vertex -7.1000000000000085 -8.276942783623085 0.14137171252567526
      vertex -7.198989539095123 -8.385699086084635 0
    endloop
  endfacet
  facet normal -0.7655029166823779 0.6420547849694171 0.042082510008884695
    outer loop
      vertex -7.1000000000000085 -8.276942783623085 0.14137171252567526
      vertex -7.144152286670845 -8.32031825308355 0
      vertex -7.198989539095123 -8.385699086084635 0
    endloop
  endfacet
  facet normal -0.8048530181021416 0.5820707574467123 0.11578105448338266
    outer loop
      vertex -7.1000000000000085 -8.271809698670253 0.0630560000141358
      vertex -7.1000000000000085 -8.259267082365037 0
      vertex -7.144152286670845 -8.32031825308355 0
    endloop
  endfacet
  facet normal -0.7655029166823786 0.6420547849694165 0.042082510008885105
    outer loop
      vertex -7.1000000000000085 -8.276942783623085 0.14137171252567526
      vertex -7.1000000000000085 -8.271809698670253 0.0630560000141358
      vertex -7.144152286670845 -8.32031825308355 0
    endloop
  endfacet
  facet normal -0.7395332033088791 0.6731200793348154 0
    outer loop
      vertex -7.1000000000000085 -8.276942783623085 2.1
      vertex -7.1000000000000085 -8.276942783623085 0.14137171252567526
      vertex -7.266400002982294 -8.459760576486588 0
    endloop
  endfacet
  facet normal -0.7395332033088791 0.6731200793348154 0
    outer loop
      vertex -7.266400002982294 -8.459760576486588 2.1
      vertex -7.1000000000000085 -8.276942783623085 2.1
      vertex -7.266400002982294 -8.459760576486588 0
    endloop
  endfacet
  facet normal -0.7395332033088768 0.6731200793348179 -6.003839130316115e-15
    outer loop
      vertex 1.7335999970177056 -8.459760576486588 0
      vertex 1.8999999999999915 -8.276942783623085 0.14137171252567526
      vertex 1.8010104609048767 -8.385699086084635 0
    endloop
  endfacet
  facet normal -0.7655029166823779 0.6420547849694171 0.042082510008884695
    outer loop
      vertex 1.8999999999999915 -8.276942783623085 0.14137171252567526
      vertex 1.8558477133291547 -8.32031825308355 0
      vertex 1.8010104609048767 -8.385699086084635 0
    endloop
  endfacet
  facet normal -0.8048530181021416 0.5820707574467123 0.11578105448338266
    outer loop
      vertex 1.8999999999999915 -8.271809698670253 0.0630560000141358
      vertex 1.8999999999999915 -8.259267082365037 0
      vertex 1.8558477133291547 -8.32031825308355 0
    endloop
  endfacet
  facet normal -0.7655029166823786 0.6420547849694165 0.042082510008885105
    outer loop
      vertex 1.8999999999999915 -8.276942783623085 0.14137171252567526
      vertex 1.8999999999999915 -8.271809698670253 0.0630560000141358
      vertex 1.8558477133291547 -8.32031825308355 0
    endloop
  endfacet
  facet normal -0.7395332033088791 0.6731200793348154 0
    outer loop
      vertex 1.8999999999999915 -8.276942783623085 2.1
      vertex 1.8999999999999915 -8.276942783623085 0.14137171252567526
      vertex 1.7335999970177056 -8.459760576486588 0
    endloop
  endfacet
  facet normal -0.7395332033088791 0.6731200793348154 0
    outer loop
      vertex 1.7335999970177056 -8.459760576486588 2.1
      vertex 1.8999999999999915 -8.276942783623085 2.1
      vertex 1.7335999970177056 -8.459760576486588 0
    endloop
  endfacet
  facet normal 0 0 1
    outer loop
      vertex 7.099999999999994 -8.947490909642596 2.1
      vertex 7.099999999999994 -9.197647988101544 2.1
      vertex 9.409566472470758 -9.115763358771801 2.1
    endloop
  endfacet
  facet normal 0 0 1
    outer loop
      vertex 7.099999999999994 -8.947490909642596 2.1
      vertex 9.409566472470758 -9.115763358771801 2.1
      vertex 8.006428571428572 -8.915353894233704 2.1
    endloop
  endfacet
  facet normal 0 0 1
    outer loop
      vertex 8.006428571428572 -8.915353894233704 2.1
      vertex 9.409650351107118 -9.115760371088982 2.1
      vertex 9.010000000000005 -8.87977273017168 2.1
    endloop
  endfacet
  facet normal 0 0 1
    outer loop
      vertex 8.006428571428572 -8.915353894233704 2.1
      vertex 9.409566472470758 -9.115763358771801 2.1
      vertex 9.409650351107118 -9.115760371088982 2.1
    endloop
  endfacet
  facet normal 0 0 1
    outer loop
      vertex 9.010000000000005 -8.87977273017168 2.1
      vertex 9.409650351107118 -9.115760371088982 2.1
      vertex 9.788487273454663 -9.102201528847218 2.1
    endloop
  endfacet
  facet normal 0 0 1
    outer loop
      vertex 9.010000000000005 -8.87977273017168 2.1
      vertex 9.821227888762948 -9.098862133920193 2.1
      vertex 9.400708399750599 -8.865920342504978 2.1
    endloop
  endfacet
  facet normal 0 0 1
    outer loop
      vertex 9.010000000000005 -8.87977273017168 2.1
      vertex 9.788487273454663 -9.102201528847218 2.1
      vertex 9.788696500658986 -9.102193959057331 2.1
    endloop
  endfacet
  facet normal 0 0 1
    outer loop
      vertex 9.010000000000005 -8.87977273017168 2.1
      vertex 9.788696500658986 -9.102193959057331 2.1
      vertex 9.821227888762948 -9.098862133920193 2.1
    endloop
  endfacet
  facet normal 0 0 1
    outer loop
      vertex 9.400708399750599 -8.865920342504978 2.1
      vertex 9.821227888762948 -9.098862133920193 2.1
      vertex 10.1766825646162 -9.038755752146244 2.1
    endloop
  endfacet
  facet normal 0 0 1
    outer loop
      vertex 9.400708399750599 -8.865920342504978 2.1
      vertex 10.231939072906968 -9.02269560098648 2.1
      vertex 9.779545322482761 -8.852361500263214 2.1
    endloop
  endfacet
  facet normal 0 0 1
    outer loop
      vertex 9.400708399750599 -8.865920342504978 2.1
      vertex 10.1766825646162 -9.038755752146244 2.1
      vertex 10.20103122591972 -9.03337723761797 2.1
    endloop
  endfacet
  facet normal 0 0 1
    outer loop
      vertex 9.400708399750599 -8.865920342504978 2.1
      vertex 10.20103122591972 -9.03337723761797 2.1
      vertex 10.231939072906968 -9.02269560098648 2.1
    endloop
  endfacet
  facet normal 0 0 1
    outer loop
      vertex 9.779545322482761 -8.852361500263214 2.1
      vertex 10.231939072906968 -9.02269560098648 2.1
      vertex 10.135000000000005 -8.792255118489265 2.1
    endloop
  endfacet
  facet normal 0 0 1
    outer loop
      vertex 10.135000000000005 -8.792255118489265 2.1
      vertex 10.231939072906968 -9.02269560098648 2.1
      vertex 10.55321119278669 -8.887546516954899 2.1
    endloop
  endfacet
  facet normal 0 0 1
    outer loop
      vertex 10.135000000000005 -8.792255118489265 2.1
      vertex 10.55321119278669 -8.887546516954899 2.1
      vertex 10.57339148521423 -8.877974897623062 2.1
    endloop
  endfacet
  facet normal 0 0 1
    outer loop
      vertex 10.135000000000005 -8.792255118489265 2.1
      vertex 10.601218681037423 -8.860798187553883 2.1
      vertex 10.456272121794726 -8.657106034457684 2.1
    endloop
  endfacet
  facet normal 0 0 1
    outer loop
      vertex 10.135000000000005 -8.792255118489265 2.1
      vertex 10.57339148521423 -8.877974897623062 2.1
      vertex 10.601218681037423 -8.860798187553883 2.1
    endloop
  endfacet
  facet normal 0 0 1
    outer loop
      vertex 10.456272121794726 -8.657106034457684 2.1
      vertex 10.601218681037423 -8.860798187553883 2.1
      vertex 10.878546553850171 -8.663452729582787 2.1
    endloop
  endfacet
  facet normal 0 0 1
    outer loop
      vertex 10.456272121794726 -8.657106034457684 2.1
      vertex 10.899999999999991 -8.645853374644652 2.1
      vertex 10.733599997017706 -8.459760576486588 2.1
    endloop
  endfacet
  facet normal 0 0 1
    outer loop
      vertex 10.456272121794726 -8.657106034457684 2.1
      vertex 10.878546553850171 -8.663452729582787 2.1
      vertex 10.894936639070508 -8.650733053684235 2.1
    endloop
  endfacet
  facet normal 0 0 1
    outer loop
      vertex 10.456272121794726 -8.657106034457684 2.1
      vertex 10.894936639070508 -8.650733053684235 2.1
      vertex 10.899999999999991 -8.645853374644652 2.1
    endloop
  endfacet
  facet normal 0 0 1
    outer loop
      vertex 10.733599997017706 -8.459760576486588 2.1
      vertex 10.899999999999991 -8.645853374644652 2.1
      vertex 10.899999999999991 -8.276942783623085 2.1
    endloop
  endfacet
  facet normal -0.035432282755232226 0.9993720795273165 0
    outer loop
      vertex 7.099999999999994 -9.197647988101544 3
      vertex 9.409566472470758 -9.115763358771801 2.1
      vertex 7.099999999999994 -9.197647988101544 2.1
    endloop
  endfacet
  facet normal -0.03559654140704399 0.9993662422955144 0
    outer loop
      vertex 9.409566472470758 -9.115763358771801 3
      vertex 9.409650351107118 -9.115760371088982 2.1
      vertex 9.409566472470758 -9.115763358771801 2.1
    endloop
  endfacet
  facet normal -0.0357678080160179 0.9993601272362879 0
    outer loop
      vertex 9.409650351107118 -9.115760371088982 3
      vertex 9.788487273454663 -9.102201528847218 2.1
      vertex 9.409650351107118 -9.115760371088982 2.1
    endloop
  endfacet
  facet normal -0.03615610329782516 0.999346154340085 0
    outer loop
      vertex 9.788487273454663 -9.102201528847218 3
      vertex 9.788696500658986 -9.102193959057331 2.1
      vertex 9.788487273454663 -9.102201528847218 2.1
    endloop
  endfacet
  facet normal -0.10188580473205697 0.9947961011152492 0
    outer loop
      vertex 9.788696500658986 -9.102193959057331 3
      vertex 9.821227888762948 -9.098862133920193 2.1
      vertex 9.788696500658986 -9.102193959057331 2.1
    endloop
  endfacet
  facet normal -0.16673024612497914 0.9860025481848939 0
    outer loop
      vertex 9.821227888762948 -9.098862133920193 3
      vertex 10.1766825646162 -9.038755752146244 2.1
      vertex 9.821227888762948 -9.098862133920193 2.1
    endloop
  endfacet
  facet normal -0.2156959407999748 0.976460578376011 0
    outer loop
      vertex 10.1766825646162 -9.038755752146244 3
      vertex 10.20103122591972 -9.03337723761797 2.1
      vertex 10.1766825646162 -9.038755752146244 2.1
    endloop
  endfacet
  facet normal -0.3266399197175625 0.9451488575070618 0
    outer loop
      vertex 10.20103122591972 -9.03337723761797 3
      vertex 10.231939072906968 -9.02269560098648 2.1
      vertex 10.20103122591972 -9.03337723761797 2.1
    endloop
  endfacet
  facet normal -0.38775627820652087 0.921761937113606 0
    outer loop
      vertex 10.231939072906968 -9.02269560098648 3
      vertex 10.55321119278669 -8.887546516954899 2.1
      vertex 10.231939072906968 -9.02269560098648 2.1
    endloop
  endfacet
  facet normal -0.4285446067376791 0.9035206251304105 0
    outer loop
      vertex 10.55321119278669 -8.887546516954899 3
      vertex 10.57339148521423 -8.877974897623062 2.1
      vertex 10.55321119278669 -8.887546516954899 2.1
    endloop
  endfacet
  facet normal -0.525256553690767 0.8509439187190295 0
    outer loop
      vertex 10.57339148521423 -8.877974897623062 3
      vertex 10.601218681037423 -8.860798187553883 2.1
      vertex 10.57339148521423 -8.877974897623062 2.1
    endloop
  endfacet
  facet normal -0.5797862477903444 0.8147686216793043 0
    outer loop
      vertex 10.601218681037423 -8.860798187553883 3
      vertex 10.878546553850171 -8.663452729582787 2.1
      vertex 10.601218681037423 -8.860798187553883 2.1
    endloop
  endfacet
  facet normal -0.6130942978673936 0.7900097353339942 0
    outer loop
      vertex 10.878546553850171 -8.663452729582787 3
      vertex 10.894936639070508 -8.650733053684235 2.1
      vertex 10.878546553850171 -8.663452729582787 2.1
    endloop
  endfacet
  facet normal -0.6939257082748425 0.7200466036273334 0
    outer loop
      vertex 10.899999999999991 -8.645853374644652 3
      vertex 10.899999999999991 -8.645853374644652 2.1
      vertex 10.894936639070508 -8.650733053684235 2.1
    endloop
  endfacet
  facet normal -0.035432282755232226 0.9993720795273165 0
    outer loop
      vertex 7.099999999999994 -9.197647988101544 3
      vertex 9.409566472470758 -9.115763358771801 3
      vertex 9.409566472470758 -9.115763358771801 2.1
    endloop
  endfacet
  facet normal -0.03559654140704399 0.9993662422955144 0
    outer loop
      vertex 9.409566472470758 -9.115763358771801 3
      vertex 9.409650351107118 -9.115760371088982 3
      vertex 9.409650351107118 -9.115760371088982 2.1
    endloop
  endfacet
  facet normal -0.0357678080160179 0.9993601272362879 0
    outer loop
      vertex 9.409650351107118 -9.115760371088982 3
      vertex 9.788487273454663 -9.102201528847218 3
      vertex 9.788487273454663 -9.102201528847218 2.1
    endloop
  endfacet
  facet normal -0.03615610329782516 0.999346154340085 0
    outer loop
      vertex 9.788696500658986 -9.102193959057331 3
      vertex 9.788696500658986 -9.102193959057331 2.1
      vertex 9.788487273454663 -9.102201528847218 3
    endloop
  endfacet
  facet normal -0.10188580473205697 0.9947961011152492 0
    outer loop
      vertex 9.788696500658986 -9.102193959057331 3
      vertex 9.821227888762948 -9.098862133920193 3
      vertex 9.821227888762948 -9.098862133920193 2.1
    endloop
  endfacet
  facet normal -0.16673024612497914 0.9860025481848939 0
    outer loop
      vertex 9.821227888762948 -9.098862133920193 3
      vertex 10.1766825646162 -9.038755752146244 3
      vertex 10.1766825646162 -9.038755752146244 2.1
    endloop
  endfacet
  facet normal -0.2156959407999748 0.976460578376011 0
    outer loop
      vertex 10.1766825646162 -9.038755752146244 3
      vertex 10.20103122591972 -9.03337723761797 3
      vertex 10.20103122591972 -9.03337723761797 2.1
    endloop
  endfacet
  facet normal -0.3266399197175625 0.9451488575070618 0
    outer loop
      vertex 10.20103122591972 -9.03337723761797 3
      vertex 10.231939072906968 -9.02269560098648 3
      vertex 10.231939072906968 -9.02269560098648 2.1
    endloop
  endfacet
  facet normal -0.38775627820652087 0.921761937113606 0
    outer loop
      vertex 10.231939072906968 -9.02269560098648 3
      vertex 10.55321119278669 -8.887546516954899 3
      vertex 10.55321119278669 -8.887546516954899 2.1
    endloop
  endfacet
  facet normal -0.4285446067376791 0.9035206251304105 0
    outer loop
      vertex 10.57339148521423 -8.877974897623062 3
      vertex 10.57339148521423 -8.877974897623062 2.1
      vertex 10.55321119278669 -8.887546516954899 3
    endloop
  endfacet
  facet normal -0.525256553690767 0.8509439187190295 0
    outer loop
      vertex 10.57339148521423 -8.877974897623062 3
      vertex 10.601218681037423 -8.860798187553883 3
      vertex 10.601218681037423 -8.860798187553883 2.1
    endloop
  endfacet
  facet normal -0.5797862477903444 0.8147686216793043 0
    outer loop
      vertex 10.601218681037423 -8.860798187553883 3
      vertex 10.878546553850171 -8.663452729582787 3
      vertex 10.878546553850171 -8.663452729582787 2.1
    endloop
  endfacet
  facet normal -0.6130942978673936 0.7900097353339942 0
    outer loop
      vertex 10.878546553850171 -8.663452729582787 3
      vertex 10.894936639070508 -8.650733053684235 3
      vertex 10.894936639070508 -8.650733053684235 2.1
    endloop
  endfacet
  facet normal -0.6939257082748425 0.7200466036273334 0
    outer loop
      vertex 10.894936639070508 -8.650733053684235 3
      vertex 10.899999999999991 -8.645853374644652 3
      vertex 10.894936639070508 -8.650733053684235 2.1
    endloop
  endfacet
  facet normal 0 0 1
    outer loop
      vertex -10.900000000000006 -8.947490909642596 2.1
      vertex -10.900000000000006 -9.197647988101544 2.1
      vertex -8.590433527529242 -9.115763358771801 2.1
    endloop
  endfacet
  facet normal 0 0 1
    outer loop
      vertex -10.900000000000006 -8.947490909642596 2.1
      vertex -8.590433527529242 -9.115763358771801 2.1
      vertex -9.993571428571428 -8.915353894233704 2.1
    endloop
  endfacet
  facet normal 0 0 1
    outer loop
      vertex -9.993571428571428 -8.915353894233704 2.1
      vertex -8.590349648892882 -9.115760371088982 2.1
      vertex -8.989999999999995 -8.87977273017168 2.1
    endloop
  endfacet
  facet normal 0 0 1
    outer loop
      vertex -9.993571428571428 -8.915353894233704 2.1
      vertex -8.590433527529242 -9.115763358771801 2.1
      vertex -8.590349648892882 -9.115760371088982 2.1
    endloop
  endfacet
  facet normal 0 0 1
    outer loop
      vertex -8.989999999999995 -8.87977273017168 2.1
      vertex -8.590349648892882 -9.115760371088982 2.1
      vertex -8.211512726545337 -9.102201528847218 2.1
    endloop
  endfacet
  facet normal 0 0 1
    outer loop
      vertex -8.989999999999995 -8.87977273017168 2.1
      vertex -8.178772111237052 -9.098862133920193 2.1
      vertex -8.599291600249401 -8.865920342504978 2.1
    endloop
  endfacet
  facet normal 0 0 1
    outer loop
      vertex -8.989999999999995 -8.87977273017168 2.1
      vertex -8.211512726545337 -9.102201528847218 2.1
      vertex -8.211303499341014 -9.102193959057331 2.1
    endloop
  endfacet
  facet normal 0 0 1
    outer loop
      vertex -8.989999999999995 -8.87977273017168 2.1
      vertex -8.211303499341014 -9.102193959057331 2.1
      vertex -8.178772111237052 -9.098862133920193 2.1
    endloop
  endfacet
  facet normal 0 0 1
    outer loop
      vertex -8.599291600249401 -8.865920342504978 2.1
      vertex -8.178772111237052 -9.098862133920193 2.1
      vertex -7.8233174353837995 -9.038755752146244 2.1
    endloop
  endfacet
  facet normal 0 0 1
    outer loop
      vertex -8.599291600249401 -8.865920342504978 2.1
      vertex -7.768060927093032 -9.02269560098648 2.1
      vertex -8.220454677517239 -8.852361500263214 2.1
    endloop
  endfacet
  facet normal 0 0 1
    outer loop
      vertex -8.599291600249401 -8.865920342504978 2.1
      vertex -7.8233174353837995 -9.038755752146244 2.1
      vertex -7.798968774080279 -9.03337723761797 2.1
    endloop
  endfacet
  facet normal 0 0 1
    outer loop
      vertex -8.599291600249401 -8.865920342504978 2.1
      vertex -7.798968774080279 -9.03337723761797 2.1
      vertex -7.768060927093032 -9.02269560098648 2.1
    endloop
  endfacet
  facet normal 0 0 1
    outer loop
      vertex -8.220454677517239 -8.852361500263214 2.1
      vertex -7.768060927093032 -9.02269560098648 2.1
      vertex -7.864999999999995 -8.792255118489265 2.1
    endloop
  endfacet
  facet normal 0 0 1
    outer loop
      vertex -7.864999999999995 -8.792255118489265 2.1
      vertex -7.768060927093032 -9.02269560098648 2.1
      vertex -7.446788807213309 -8.887546516954899 2.1
    endloop
  endfacet
  facet normal 0 0 1
    outer loop
      vertex -7.864999999999995 -8.792255118489265 2.1
      vertex -7.446788807213309 -8.887546516954899 2.1
      vertex -7.426608514785769 -8.877974897623062 2.1
    endloop
  endfacet
  facet normal 0 0 1
    outer loop
      vertex -7.864999999999995 -8.792255118489265 2.1
      vertex -7.398781318962577 -8.860798187553883 2.1
      vertex -7.543727878205274 -8.657106034457684 2.1
    endloop
  endfacet
  facet normal 0 0 1
    outer loop
      vertex -7.864999999999995 -8.792255118489265 2.1
      vertex -7.426608514785769 -8.877974897623062 2.1
      vertex -7.398781318962577 -8.860798187553883 2.1
    endloop
  endfacet
  facet normal 0 0 1
    outer loop
      vertex -7.543727878205274 -8.657106034457684 2.1
      vertex -7.398781318962577 -8.860798187553883 2.1
      vertex -7.121453446149829 -8.663452729582787 2.1
    endloop
  endfacet
  facet normal 0 0 1
    outer loop
      vertex -7.543727878205274 -8.657106034457684 2.1
      vertex -7.1000000000000085 -8.645853374644652 2.1
      vertex -7.266400002982294 -8.459760576486588 2.1
    endloop
  endfacet
  facet normal 0 0 1
    outer loop
      vertex -7.543727878205274 -8.657106034457684 2.1
      vertex -7.121453446149829 -8.663452729582787 2.1
      vertex -7.105063360929492 -8.650733053684235 2.1
    endloop
  endfacet
  facet normal 0 0 1
    outer loop
      vertex -7.543727878205274 -8.657106034457684 2.1
      vertex -7.105063360929492 -8.650733053684235 2.1
      vertex -7.1000000000000085 -8.645853374644652 2.1
    endloop
  endfacet
  facet normal 0 0 1
    outer loop
      vertex -7.266400002982294 -8.459760576486588 2.1
      vertex -7.1000000000000085 -8.645853374644652 2.1
      vertex -7.1000000000000085 -8.276942783623085 2.1
    endloop
  endfacet
  facet normal -0.035432282755232226 0.9993720795273165 0
    outer loop
      vertex -10.900000000000006 -9.197647988101544 3
      vertex -8.590433527529242 -9.115763358771801 2.1
      vertex -10.900000000000006 -9.197647988101544 2.1
    endloop
  endfacet
  facet normal -0.03559654140704399 0.9993662422955144 0
    outer loop
      vertex -8.590433527529242 -9.115763358771801 3
      vertex -8.590349648892882 -9.115760371088982 2.1
      vertex -8.590433527529242 -9.115763358771801 2.1
    endloop
  endfacet
  facet normal -0.0357678080160179 0.9993601272362879 0
    outer loop
      vertex -8.590349648892882 -9.115760371088982 3
      vertex -8.211512726545337 -9.102201528847218 2.1
      vertex -8.590349648892882 -9.115760371088982 2.1
    endloop
  endfacet
  facet normal -0.03615610329782516 0.999346154340085 0
    outer loop
      vertex -8.211512726545337 -9.102201528847218 3
      vertex -8.211303499341014 -9.102193959057331 2.1
      vertex -8.211512726545337 -9.102201528847218 2.1
    endloop
  endfacet
  facet normal -0.10188580473205697 0.9947961011152492 0
    outer loop
      vertex -8.211303499341014 -9.102193959057331 3
      vertex -8.178772111237052 -9.098862133920193 2.1
      vertex -8.211303499341014 -9.102193959057331 2.1
    endloop
  endfacet
  facet normal -0.035432282755232226 0.9993720795273165 0
    outer loop
      vertex -10.900000000000006 -9.197647988101544 3
      vertex -8.590433527529242 -9.115763358771801 3
      vertex -8.590433527529242 -9.115763358771801 2.1
    endloop
  endfacet
  facet normal -0.03559654140704399 0.9993662422955144 0
    outer loop
      vertex -8.590433527529242 -9.115763358771801 3
      vertex -8.590349648892882 -9.115760371088982 3
      vertex -8.590349648892882 -9.115760371088982 2.1
    endloop
  endfacet
  facet normal -0.0357678080160179 0.9993601272362879 0
    outer loop
      vertex -8.590349648892882 -9.115760371088982 3
      vertex -8.211512726545337 -9.102201528847218 3
      vertex -8.211512726545337 -9.102201528847218 2.1
    endloop
  endfacet
  facet normal -0.03615610329782516 0.999346154340085 0
    outer loop
      vertex -8.211303499341014 -9.102193959057331 3
      vertex -8.211303499341014 -9.102193959057331 2.1
      vertex -8.211512726545337 -9.102201528847218 3
    endloop
  endfacet
  facet normal -0.10188580473205697 0.9947961011152492 0
    outer loop
      vertex -8.211303499341014 -9.102193959057331 3
      vertex -8.178772111237052 -9.098862133920193 3
      vertex -8.178772111237052 -9.098862133920193 2.1
    endloop
  endfacet
  facet normal -0.16673024612497914 0.9860025481848939 0
    outer loop
      vertex -8.178772111237052 -9.098862133920193 3
      vertex -7.8233174353837995 -9.038755752146244 2.1
      vertex -8.178772111237052 -9.098862133920193 2.1
    endloop
  endfacet
  facet normal -0.2156959407999748 0.976460578376011 0
    outer loop
      vertex -7.8233174353837995 -9.038755752146244 3
      vertex -7.798968774080279 -9.03337723761797 2.1
      vertex -7.8233174353837995 -9.038755752146244 2.1
    endloop
  endfacet
  facet normal -0.3266399197175625 0.9451488575070618 0
    outer loop
      vertex -7.798968774080279 -9.03337723761797 3
      vertex -7.768060927093032 -9.02269560098648 2.1
      vertex -7.798968774080279 -9.03337723761797 2.1
    endloop
  endfacet
  facet normal -0.38775627820652087 0.921761937113606 0
    outer loop
      vertex -7.768060927093032 -9.02269560098648 3
      vertex -7.446788807213309 -8.887546516954899 2.1
      vertex -7.768060927093032 -9.02269560098648 2.1
    endloop
  endfacet
  facet normal -0.4285446067376791 0.9035206251304105 0
    outer loop
      vertex -7.446788807213309 -8.887546516954899 3
      vertex -7.426608514785769 -8.877974897623062 2.1
      vertex -7.446788807213309 -8.887546516954899 2.1
    endloop
  endfacet
  facet normal -0.525256553690767 0.8509439187190295 0
    outer loop
      vertex -7.426608514785769 -8.877974897623062 3
      vertex -7.398781318962577 -8.860798187553883 2.1
      vertex -7.426608514785769 -8.877974897623062 2.1
    endloop
  endfacet
  facet normal -0.5797862477903444 0.8147686216793043 0
    outer loop
      vertex -7.398781318962577 -8.860798187553883 3
      vertex -7.121453446149829 -8.663452729582787 2.1
      vertex -7.398781318962577 -8.860798187553883 2.1
    endloop
  endfacet
  facet normal -0.6130942978673936 0.7900097353339942 0
    outer loop
      vertex -7.121453446149829 -8.663452729582787 3
      vertex -7.105063360929492 -8.650733053684235 2.1
      vertex -7.121453446149829 -8.663452729582787 2.1
    endloop
  endfacet
  facet normal -0.6939257082748425 0.7200466036273334 0
    outer loop
      vertex -7.1000000000000085 -8.645853374644652 3
      vertex -7.1000000000000085 -8.645853374644652 2.1
      vertex -7.105063360929492 -8.650733053684235 2.1
    endloop
  endfacet
  facet normal -0.16673024612497914 0.9860025481848939 0
    outer loop
      vertex -8.178772111237052 -9.098862133920193 3
      vertex -7.8233174353837995 -9.038755752146244 3
      vertex -7.8233174353837995 -9.038755752146244 2.1
    endloop
  endfacet
  facet normal -0.2156959407999748 0.976460578376011 0
    outer loop
      vertex -7.8233174353837995 -9.038755752146244 3
      vertex -7.798968774080279 -9.03337723761797 3
      vertex -7.798968774080279 -9.03337723761797 2.1
    endloop
  endfacet
  facet normal -0.3266399197175625 0.9451488575070618 0
    outer loop
      vertex -7.798968774080279 -9.03337723761797 3
      vertex -7.768060927093032 -9.02269560098648 3
      vertex -7.768060927093032 -9.02269560098648 2.1
    endloop
  endfacet
  facet normal -0.38775627820652087 0.921761937113606 0
    outer loop
      vertex -7.768060927093032 -9.02269560098648 3
      vertex -7.446788807213309 -8.887546516954899 3
      vertex -7.446788807213309 -8.887546516954899 2.1
    endloop
  endfacet
  facet normal -0.4285446067376791 0.9035206251304105 0
    outer loop
      vertex -7.426608514785769 -8.877974897623062 3
      vertex -7.426608514785769 -8.877974897623062 2.1
      vertex -7.446788807213309 -8.887546516954899 3
    endloop
  endfacet
  facet normal -0.525256553690767 0.8509439187190295 0
    outer loop
      vertex -7.426608514785769 -8.877974897623062 3
      vertex -7.398781318962577 -8.860798187553883 3
      vertex -7.398781318962577 -8.860798187553883 2.1
    endloop
  endfacet
  facet normal -0.5797862477903444 0.8147686216793043 0
    outer loop
      vertex -7.398781318962577 -8.860798187553883 3
      vertex -7.121453446149829 -8.663452729582787 3
      vertex -7.121453446149829 -8.663452729582787 2.1
    endloop
  endfacet
  facet normal -0.6130942978673936 0.7900097353339942 0
    outer loop
      vertex -7.121453446149829 -8.663452729582787 3
      vertex -7.105063360929492 -8.650733053684235 3
      vertex -7.105063360929492 -8.650733053684235 2.1
    endloop
  endfacet
  facet normal -0.6939257082748425 0.7200466036273334 0
    outer loop
      vertex -7.105063360929492 -8.650733053684235 3
      vertex -7.1000000000000085 -8.645853374644652 3
      vertex -7.105063360929492 -8.650733053684235 2.1
    endloop
  endfacet
  facet normal 0 0 1
    outer loop
      vertex -1.9000000000000057 -8.947490909642596 2.1
      vertex -1.9000000000000057 -9.197647988101544 2.1
      vertex 0.4095664724707575 -9.115763358771801 2.1
    endloop
  endfacet
  facet normal 0 0 1
    outer loop
      vertex -1.9000000000000057 -8.947490909642596 2.1
      vertex 0.4095664724707575 -9.115763358771801 2.1
      vertex -0.9935714285714283 -8.915353894233704 2.1
    endloop
  endfacet
  facet normal 0 0 1
    outer loop
      vertex -0.9935714285714283 -8.915353894233704 2.1
      vertex 0.40965035110711767 -9.115760371088982 2.1
      vertex 0.010000000000005116 -8.87977273017168 2.1
    endloop
  endfacet
  facet normal 0 0 1
    outer loop
      vertex -0.9935714285714283 -8.915353894233704 2.1
      vertex 0.4095664724707575 -9.115763358771801 2.1
      vertex 0.40965035110711767 -9.115760371088982 2.1
    endloop
  endfacet
  facet normal -0.035432282755232226 0.9993720795273165 0
    outer loop
      vertex -1.9000000000000057 -9.197647988101544 3
      vertex 0.4095664724707575 -9.115763358771801 2.1
      vertex -1.9000000000000057 -9.197647988101544 2.1
    endloop
  endfacet
  facet normal -0.035432282755232226 0.9993720795273165 0
    outer loop
      vertex -1.9000000000000057 -9.197647988101544 3
      vertex 0.4095664724707575 -9.115763358771801 3
      vertex 0.4095664724707575 -9.115763358771801 2.1
    endloop
  endfacet
  facet normal 0 0 1
    outer loop
      vertex 0.010000000000005116 -8.87977273017168 2.1
      vertex 0.40965035110711767 -9.115760371088982 2.1
      vertex 0.7884872734546633 -9.102201528847218 2.1
    endloop
  endfacet
  facet normal 0 0 1
    outer loop
      vertex 0.010000000000005116 -8.87977273017168 2.1
      vertex 0.821227888762948 -9.098862133920193 2.1
      vertex 0.4007083997505987 -8.865920342504978 2.1
    endloop
  endfacet
  facet normal 0 0 1
    outer loop
      vertex 0.010000000000005116 -8.87977273017168 2.1
      vertex 0.7884872734546633 -9.102201528847218 2.1
      vertex 0.7886965006589861 -9.102193959057331 2.1
    endloop
  endfacet
  facet normal 0 0 1
    outer loop
      vertex 0.010000000000005116 -8.87977273017168 2.1
      vertex 0.7886965006589861 -9.102193959057331 2.1
      vertex 0.821227888762948 -9.098862133920193 2.1
    endloop
  endfacet
  facet normal 0 0 1
    outer loop
      vertex 0.4007083997505987 -8.865920342504978 2.1
      vertex 0.821227888762948 -9.098862133920193 2.1
      vertex 1.1766825646162005 -9.038755752146244 2.1
    endloop
  endfacet
  facet normal 0 0 1
    outer loop
      vertex 0.4007083997505987 -8.865920342504978 2.1
      vertex 1.2319390729069681 -9.02269560098648 2.1
      vertex 0.7795453224827611 -8.852361500263214 2.1
    endloop
  endfacet
  facet normal 0 0 1
    outer loop
      vertex 0.4007083997505987 -8.865920342504978 2.1
      vertex 1.1766825646162005 -9.038755752146244 2.1
      vertex 1.2010312259197207 -9.03337723761797 2.1
    endloop
  endfacet
  facet normal 0 0 1
    outer loop
      vertex 0.4007083997505987 -8.865920342504978 2.1
      vertex 1.2010312259197207 -9.03337723761797 2.1
      vertex 1.2319390729069681 -9.02269560098648 2.1
    endloop
  endfacet
  facet normal 0 0 1
    outer loop
      vertex 0.7795453224827611 -8.852361500263214 2.1
      vertex 1.2319390729069681 -9.02269560098648 2.1
      vertex 1.1350000000000051 -8.792255118489265 2.1
    endloop
  endfacet
  facet normal 0 0 1
    outer loop
      vertex 1.1350000000000051 -8.792255118489265 2.1
      vertex 1.2319390729069681 -9.02269560098648 2.1
      vertex 1.5532111927866907 -8.887546516954899 2.1
    endloop
  endfacet
  facet normal 0 0 1
    outer loop
      vertex 1.1350000000000051 -8.792255118489265 2.1
      vertex 1.6012186810374232 -8.860798187553883 2.1
      vertex 1.4562721217947256 -8.657106034457684 2.1
    endloop
  endfacet
  facet normal 0 0 1
    outer loop
      vertex 1.1350000000000051 -8.792255118489265 2.1
      vertex 1.5532111927866907 -8.887546516954899 2.1
      vertex 1.5733914852142306 -8.877974897623062 2.1
    endloop
  endfacet
  facet normal 0 0 1
    outer loop
      vertex 1.1350000000000051 -8.792255118489265 2.1
      vertex 1.5733914852142306 -8.877974897623062 2.1
      vertex 1.6012186810374232 -8.860798187553883 2.1
    endloop
  endfacet
  facet normal 0 0 1
    outer loop
      vertex 1.4562721217947256 -8.657106034457684 2.1
      vertex 1.6012186810374232 -8.860798187553883 2.1
      vertex 1.878546553850171 -8.663452729582787 2.1
    endloop
  endfacet
  facet normal 0 0 1
    outer loop
      vertex 1.4562721217947256 -8.657106034457684 2.1
      vertex 1.8999999999999915 -8.645853374644652 2.1
      vertex 1.7335999970177056 -8.459760576486588 2.1
    endloop
  endfacet
  facet normal 0 0 1
    outer loop
      vertex 1.4562721217947256 -8.657106034457684 2.1
      vertex 1.878546553850171 -8.663452729582787 2.1
      vertex 1.894936639070508 -8.650733053684235 2.1
    endloop
  endfacet
  facet normal 0 0 1
    outer loop
      vertex 1.4562721217947256 -8.657106034457684 2.1
      vertex 1.894936639070508 -8.650733053684235 2.1
      vertex 1.8999999999999915 -8.645853374644652 2.1
    endloop
  endfacet
  facet normal 0 0 1
    outer loop
      vertex 1.7335999970177056 -8.459760576486588 2.1
      vertex 1.8999999999999915 -8.645853374644652 2.1
      vertex 1.8999999999999915 -8.276942783623085 2.1
    endloop
  endfacet
  facet normal -0.03559654140704399 0.9993662422955144 0
    outer loop
      vertex 0.4095664724707575 -9.115763358771801 3
      vertex 0.40965035110711767 -9.115760371088982 2.1
      vertex 0.4095664724707575 -9.115763358771801 2.1
    endloop
  endfacet
  facet normal -0.0357678080160179 0.9993601272362879 0
    outer loop
      vertex 0.40965035110711767 -9.115760371088982 3
      vertex 0.7884872734546633 -9.102201528847218 2.1
      vertex 0.40965035110711767 -9.115760371088982 2.1
    endloop
  endfacet
  facet normal -0.03615610329782516 0.999346154340085 0
    outer loop
      vertex 0.7884872734546633 -9.102201528847218 3
      vertex 0.7886965006589861 -9.102193959057331 2.1
      vertex 0.7884872734546633 -9.102201528847218 2.1
    endloop
  endfacet
  facet normal -0.10188580473205697 0.9947961011152492 0
    outer loop
      vertex 0.7886965006589861 -9.102193959057331 3
      vertex 0.821227888762948 -9.098862133920193 2.1
      vertex 0.7886965006589861 -9.102193959057331 2.1
    endloop
  endfacet
  facet normal -0.16673024612497914 0.9860025481848939 0
    outer loop
      vertex 0.821227888762948 -9.098862133920193 3
      vertex 1.1766825646162005 -9.038755752146244 2.1
      vertex 0.821227888762948 -9.098862133920193 2.1
    endloop
  endfacet
  facet normal -0.2156959407999748 0.976460578376011 0
    outer loop
      vertex 1.1766825646162005 -9.038755752146244 3
      vertex 1.2010312259197207 -9.03337723761797 2.1
      vertex 1.1766825646162005 -9.038755752146244 2.1
    endloop
  endfacet
  facet normal -0.3266399197175625 0.9451488575070618 0
    outer loop
      vertex 1.2010312259197207 -9.03337723761797 3
      vertex 1.2319390729069681 -9.02269560098648 2.1
      vertex 1.2010312259197207 -9.03337723761797 2.1
    endloop
  endfacet
  facet normal -0.38775627820652087 0.921761937113606 0
    outer loop
      vertex 1.2319390729069681 -9.02269560098648 3
      vertex 1.5532111927866907 -8.887546516954899 2.1
      vertex 1.2319390729069681 -9.02269560098648 2.1
    endloop
  endfacet
  facet normal -0.4285446067376791 0.9035206251304105 0
    outer loop
      vertex 1.5532111927866907 -8.887546516954899 3
      vertex 1.5733914852142306 -8.877974897623062 2.1
      vertex 1.5532111927866907 -8.887546516954899 2.1
    endloop
  endfacet
  facet normal -0.525256553690767 0.8509439187190295 0
    outer loop
      vertex 1.5733914852142306 -8.877974897623062 3
      vertex 1.6012186810374232 -8.860798187553883 2.1
      vertex 1.5733914852142306 -8.877974897623062 2.1
    endloop
  endfacet
  facet normal -0.5797862477903444 0.8147686216793043 0
    outer loop
      vertex 1.6012186810374232 -8.860798187553883 3
      vertex 1.878546553850171 -8.663452729582787 2.1
      vertex 1.6012186810374232 -8.860798187553883 2.1
    endloop
  endfacet
  facet normal -0.6130942978673936 0.7900097353339942 0
    outer loop
      vertex 1.878546553850171 -8.663452729582787 3
      vertex 1.894936639070508 -8.650733053684235 2.1
      vertex 1.878546553850171 -8.663452729582787 2.1
    endloop
  endfacet
  facet normal -0.6939257082748425 0.7200466036273334 0
    outer loop
      vertex 1.8999999999999915 -8.645853374644652 3
      vertex 1.8999999999999915 -8.645853374644652 2.1
      vertex 1.894936639070508 -8.650733053684235 2.1
    endloop
  endfacet
  facet normal -0.03559654140704399 0.9993662422955144 0
    outer loop
      vertex 0.4095664724707575 -9.115763358771801 3
      vertex 0.40965035110711767 -9.115760371088982 3
      vertex 0.40965035110711767 -9.115760371088982 2.1
    endloop
  endfacet
  facet normal -0.0357678080160179 0.9993601272362879 0
    outer loop
      vertex 0.40965035110711767 -9.115760371088982 3
      vertex 0.7884872734546633 -9.102201528847218 3
      vertex 0.7884872734546633 -9.102201528847218 2.1
    endloop
  endfacet
  facet normal -0.03615610329782516 0.999346154340085 0
    outer loop
      vertex 0.7886965006589861 -9.102193959057331 3
      vertex 0.7886965006589861 -9.102193959057331 2.1
      vertex 0.7884872734546633 -9.102201528847218 3
    endloop
  endfacet
  facet normal -0.10188580473205697 0.9947961011152492 0
    outer loop
      vertex 0.7886965006589861 -9.102193959057331 3
      vertex 0.821227888762948 -9.098862133920193 3
      vertex 0.821227888762948 -9.098862133920193 2.1
    endloop
  endfacet
  facet normal -0.16673024612497914 0.9860025481848939 0
    outer loop
      vertex 0.821227888762948 -9.098862133920193 3
      vertex 1.1766825646162005 -9.038755752146244 3
      vertex 1.1766825646162005 -9.038755752146244 2.1
    endloop
  endfacet
  facet normal -0.2156959407999748 0.976460578376011 0
    outer loop
      vertex 1.1766825646162005 -9.038755752146244 3
      vertex 1.2010312259197207 -9.03337723761797 3
      vertex 1.2010312259197207 -9.03337723761797 2.1
    endloop
  endfacet
  facet normal -0.3266399197175625 0.9451488575070618 0
    outer loop
      vertex 1.2010312259197207 -9.03337723761797 3
      vertex 1.2319390729069681 -9.02269560098648 3
      vertex 1.2319390729069681 -9.02269560098648 2.1
    endloop
  endfacet
  facet normal -0.38775627820652087 0.921761937113606 0
    outer loop
      vertex 1.2319390729069681 -9.02269560098648 3
      vertex 1.5532111927866907 -8.887546516954899 3
      vertex 1.5532111927866907 -8.887546516954899 2.1
    endloop
  endfacet
  facet normal -0.4285446067376791 0.9035206251304105 0
    outer loop
      vertex 1.5733914852142306 -8.877974897623062 3
      vertex 1.5733914852142306 -8.877974897623062 2.1
      vertex 1.5532111927866907 -8.887546516954899 3
    endloop
  endfacet
  facet normal -0.525256553690767 0.8509439187190295 0
    outer loop
      vertex 1.5733914852142306 -8.877974897623062 3
      vertex 1.6012186810374232 -8.860798187553883 3
      vertex 1.6012186810374232 -8.860798187553883 2.1
    endloop
  endfacet
  facet normal -0.5797862477903444 0.8147686216793043 0
    outer loop
      vertex 1.6012186810374232 -8.860798187553883 3
      vertex 1.878546553850171 -8.663452729582787 3
      vertex 1.878546553850171 -8.663452729582787 2.1
    endloop
  endfacet
  facet normal -0.6130942978673936 0.7900097353339942 0
    outer loop
      vertex 1.878546553850171 -8.663452729582787 3
      vertex 1.894936639070508 -8.650733053684235 3
      vertex 1.894936639070508 -8.650733053684235 2.1
    endloop
  endfacet
  facet normal -0.6939257082748425 0.7200466036273334 0
    outer loop
      vertex 1.894936639070508 -8.650733053684235 3
      vertex 1.8999999999999915 -8.645853374644652 3
      vertex 1.894936639070508 -8.650733053684235 2.1
    endloop
  endfacet
  facet normal 0 0 -1
    outer loop
      vertex 8.25 -9.81677537193635 0
      vertex 8.267022398750257 -9.879772727272728 0
      vertex 7.099999999999994 -13.879772727272728 0
    endloop
  endfacet
  facet normal 0 0 -1
    outer loop
      vertex 10.79631883371917 -13.879772727272728 0
      vertex 7.099999999999994 -13.879772727272728 0
      vertex 8.267022398750257 -9.879772727272728 0
    endloop
  endfacet
  facet normal 0 0 -1
    outer loop
      vertex 10.79631883371917 -13.879772727272728 0
      vertex 8.267022398750257 -9.879772727272728 0
      vertex 9.436994897009612 -9.879772727272728 0
    endloop
  endfacet
  facet normal 0 0 -1
    outer loop
      vertex 10.793208338909125 -14.048391139521472 0
      vertex 10.79631883371917 -13.879772727272728 0
      vertex 10.899999999999991 -14.74807275136562 0
    endloop
  endfacet
  facet normal 0 0 -1
    outer loop
      vertex 10.899999999999991 -8.259267082365037 0
      vertex 10.899999999999991 -14.74807275136562 0
      vertex 10.79631883371917 -13.879772727272728 0
    endloop
  endfacet
  facet normal 0 0 -1
    outer loop
      vertex 7.099999999999994 -8.947490909642596 0
      vertex 8.006428571428572 -8.915353894233704 0
      vertex 7.099999999999994 -13.879772727272728 0
    endloop
  endfacet
  facet normal 0 0 -1
    outer loop
      vertex 8.006428571428572 -8.915353894233704 0
      vertex 8.25 -9.81677537193635 0
      vertex 7.099999999999994 -13.879772727272728 0
    endloop
  endfacet
  facet normal 0 0 -1
    outer loop
      vertex 8.006428571428572 -8.915353894233704 0
      vertex 8.25 -8.906718181105482 0
      vertex 8.25 -9.81677537193635 0
    endloop
  endfacet
  facet normal -1 0 0
    outer loop
      vertex 7.099999999999994 -8.947490909642596 2.1
      vertex 7.099999999999994 -8.947490909642596 0
      vertex 7.099999999999994 -13.879772727272728 0
    endloop
  endfacet
  facet normal 0 0 -1
    outer loop
      vertex 9.779545322482761 -8.852361500263214 0
      vertex 10.79631883371917 -13.879772727272728 0
      vertex 9.436994897009612 -9.879772727272728 0
    endloop
  endfacet
  facet normal 0 0 -1
    outer loop
      vertex 9.779545322482761 -8.852361500263214 0
      vertex 9.436994897009612 -9.879772727272728 0
      vertex 9.75 -8.853418948316685 0
    endloop
  endfacet
  facet normal 0 0 -1
    outer loop
      vertex 9.779545322482761 -8.852361500263214 0
      vertex 10.135000000000005 -8.792255118489265 0
      vertex 10.79631883371917 -13.879772727272728 0
    endloop
  endfacet
  facet normal 0 0 -1
    outer loop
      vertex 10.135000000000005 -8.792255118489265 0
      vertex 10.456272121794726 -8.657106034457684 0
      vertex 10.79631883371917 -13.879772727272728 0
    endloop
  endfacet
  facet normal 0 0 -1
    outer loop
      vertex 10.456272121794726 -8.657106034457684 0
      vertex 10.733599997017706 -8.459760576486588 0
      vertex 10.79631883371917 -13.879772727272728 0
    endloop
  endfacet
  facet normal 0 0 -1
    outer loop
      vertex 10.733599997017706 -8.459760576486588 0
      vertex 10.801010460904877 -8.385699086084635 0
      vertex 10.79631883371917 -13.879772727272728 0
    endloop
  endfacet
  facet normal 1 0 0
    outer loop
      vertex 10.899999999999991 -8.271809698670253 0.0630560000141358
      vertex 10.899999999999991 -14.74807275136562 0
      vertex 10.899999999999991 -8.259267082365037 0
    endloop
  endfacet
  facet normal 0 0 -1
    outer loop
      vertex 10.801010460904877 -8.385699086084635 0
      vertex 10.855847713329155 -8.32031825308355 0
      vertex 10.79631883371917 -13.879772727272728 0
    endloop
  endfacet
  facet normal 0 0 -1
    outer loop
      vertex 10.855847713329155 -8.32031825308355 0
      vertex 10.899999999999991 -8.259267082365037 0
      vertex 10.79631883371917 -13.879772727272728 0
    endloop
  endfacet
  facet normal 1 0 0
    outer loop
      vertex 10.899999999999991 -8.276942783623085 0.14137171252567526
      vertex 10.899999999999991 -14.74807275136562 0
      vertex 10.899999999999991 -8.271809698670253 0.0630560000141358
    endloop
  endfacet
  facet normal 1 0 0
    outer loop
      vertex 10.899999999999991 -8.276942783623085 2.1
      vertex 10.899999999999991 -14.74807275136562 0
      vertex 10.899999999999991 -8.276942783623085 0.14137171252567526
    endloop
  endfacet
  facet normal -1 0 0
    outer loop
      vertex 7.099999999999994 -8.947490909642596 2.1
      vertex 7.099999999999994 -13.879772727272728 0
      vertex 7.099999999999994 -9.197647988101544 2.1
    endloop
  endfacet
  facet normal 1 0 0
    outer loop
      vertex 10.899999999999991 -8.276942783623085 2.1
      vertex 10.899999999999991 -8.645853374644652 2.1
      vertex 10.899999999999991 -14.74807275136562 0
    endloop
  endfacet
  facet normal -1 0 0
    outer loop
      vertex 7.099999999999994 -9.197647988101544 3
      vertex 7.099999999999994 -13.879772727272728 0
      vertex 7.099999999999994 -13.879772727272728 3
    endloop
  endfacet
  facet normal 1 0 0
    outer loop
      vertex 10.899999999999991 -8.645853374644652 2.1
      vertex 10.899999999999991 -14.74807275136562 3
      vertex 10.899999999999991 -14.74807275136562 0
    endloop
  endfacet
  facet normal 0 0 1
    outer loop
      vertex 9.821227888762948 -9.098862133920193 3
      vertex 7.099999999999994 -13.879772727272728 3
      vertex 10.62966636528543 -13.879772727272728 3
    endloop
  endfacet
  facet normal 0 0 1
    outer loop
      vertex 9.821227888762948 -9.098862133920193 3
      vertex 10.62966636528543 -13.879772727272728 3
      vertex 10.899999999999991 -14.74807275136562 3
    endloop
  endfacet
  facet normal -1 0 0
    outer loop
      vertex 7.099999999999994 -9.197647988101544 3
      vertex 7.099999999999994 -9.197647988101544 2.1
      vertex 7.099999999999994 -13.879772727272728 0
    endloop
  endfacet
  facet normal 0 0 1
    outer loop
      vertex 7.099999999999994 -9.197647988101544 3
      vertex 7.099999999999994 -13.879772727272728 3
      vertex 9.409566472470758 -9.115763358771801 3
    endloop
  endfacet
  facet normal 0 0 1
    outer loop
      vertex 9.409566472470758 -9.115763358771801 3
      vertex 7.099999999999994 -13.879772727272728 3
      vertex 9.409650351107118 -9.115760371088982 3
    endloop
  endfacet
  facet normal 0 0 1
    outer loop
      vertex 9.409650351107118 -9.115760371088982 3
      vertex 7.099999999999994 -13.879772727272728 3
      vertex 9.788487273454663 -9.102201528847218 3
    endloop
  endfacet
  facet normal 0 0 1
    outer loop
      vertex 9.788696500658986 -9.102193959057331 3
      vertex 9.788487273454663 -9.102201528847218 3
      vertex 7.099999999999994 -13.879772727272728 3
    endloop
  endfacet
  facet normal 0 0 1
    outer loop
      vertex 9.788696500658986 -9.102193959057331 3
      vertex 7.099999999999994 -13.879772727272728 3
      vertex 9.821227888762948 -9.098862133920193 3
    endloop
  endfacet
  facet normal 1 0 0
    outer loop
      vertex 10.899999999999991 -8.645853374644652 3
      vertex 10.899999999999991 -14.74807275136562 3
      vertex 10.899999999999991 -8.645853374644652 2.1
    endloop
  endfacet
  facet normal 0 0 1
    outer loop
      vertex 9.821227888762948 -9.098862133920193 3
      vertex 10.899999999999991 -14.74807275136562 3
      vertex 10.1766825646162 -9.038755752146244 3
    endloop
  endfacet
  facet normal 0 0 1
    outer loop
      vertex 10.1766825646162 -9.038755752146244 3
      vertex 10.899999999999991 -14.74807275136562 3
      vertex 10.20103122591972 -9.03337723761797 3
    endloop
  endfacet
  facet normal 0 0 1
    outer loop
      vertex 10.20103122591972 -9.03337723761797 3
      vertex 10.899999999999991 -14.74807275136562 3
      vertex 10.231939072906968 -9.02269560098648 3
    endloop
  endfacet
  facet normal 0 0 1
    outer loop
      vertex 10.231939072906968 -9.02269560098648 3
      vertex 10.899999999999991 -14.74807275136562 3
      vertex 10.55321119278669 -8.887546516954899 3
    endloop
  endfacet
  facet normal 0 0 1
    outer loop
      vertex 10.57339148521423 -8.877974897623062 3
      vertex 10.55321119278669 -8.887546516954899 3
      vertex 10.899999999999991 -14.74807275136562 3
    endloop
  endfacet
  facet normal 0 0 1
    outer loop
      vertex 10.57339148521423 -8.877974897623062 3
      vertex 10.899999999999991 -14.74807275136562 3
      vertex 10.601218681037423 -8.860798187553883 3
    endloop
  endfacet
  facet normal 0 0 1
    outer loop
      vertex 10.601218681037423 -8.860798187553883 3
      vertex 10.899999999999991 -14.74807275136562 3
      vertex 10.878546553850171 -8.663452729582787 3
    endloop
  endfacet
  facet normal 0 0 1
    outer loop
      vertex 10.878546553850171 -8.663452729582787 3
      vertex 10.899999999999991 -14.74807275136562 3
      vertex 10.894936639070508 -8.650733053684235 3
    endloop
  endfacet
  facet normal 0 0 1
    outer loop
      vertex 10.894936639070508 -8.650733053684235 3
      vertex 10.899999999999991 -14.74807275136562 3
      vertex 10.899999999999991 -8.645853374644652 3
    endloop
  endfacet
  facet normal 0 0 -1
    outer loop
      vertex -9.75 -9.81677537193635 0
      vertex -9.732977601249743 -9.879772727272728 0
      vertex -10.900000000000006 -13.879772727272728 0
    endloop
  endfacet
  facet normal 0 0 -1
    outer loop
      vertex -7.20368116628083 -13.879772727272728 0
      vertex -10.900000000000006 -13.879772727272728 0
      vertex -9.732977601249743 -9.879772727272728 0
    endloop
  endfacet
  facet normal 0 0 -1
    outer loop
      vertex -7.20368116628083 -13.879772727272728 0
      vertex -9.732977601249743 -9.879772727272728 0
      vertex -8.563005102990388 -9.879772727272728 0
    endloop
  endfacet
  facet normal 0 0 -1
    outer loop
      vertex -7.206791661090875 -14.048391139521472 0
      vertex -7.20368116628083 -13.879772727272728 0
      vertex -7.1000000000000085 -14.74807275136562 0
    endloop
  endfacet
  facet normal 0 0 -1
    outer loop
      vertex -7.1000000000000085 -8.259267082365037 0
      vertex -7.1000000000000085 -14.74807275136562 0
      vertex -7.20368116628083 -13.879772727272728 0
    endloop
  endfacet
  facet normal 0 0 -1
    outer loop
      vertex -10.900000000000006 -8.947490909642596 0
      vertex -9.993571428571428 -8.915353894233704 0
      vertex -10.900000000000006 -13.879772727272728 0
    endloop
  endfacet
  facet normal 0 0 -1
    outer loop
      vertex -9.993571428571428 -8.915353894233704 0
      vertex -9.75 -9.81677537193635 0
      vertex -10.900000000000006 -13.879772727272728 0
    endloop
  endfacet
  facet normal 0 0 -1
    outer loop
      vertex -9.993571428571428 -8.915353894233704 0
      vertex -9.75 -8.906718181105482 0
      vertex -9.75 -9.81677537193635 0
    endloop
  endfacet
  facet normal 0 0 -1
    outer loop
      vertex -8.220454677517239 -8.852361500263214 0
      vertex -8.563005102990388 -9.879772727272728 0
      vertex -8.25 -8.853418948316685 0
    endloop
  endfacet
  facet normal -1 0 0
    outer loop
      vertex -10.900000000000006 -8.947490909642596 2.1
      vertex -10.900000000000006 -8.947490909642596 0
      vertex -10.900000000000006 -13.879772727272728 0
    endloop
  endfacet
  facet normal 0 0 -1
    outer loop
      vertex -8.220454677517239 -8.852361500263214 0
      vertex -7.20368116628083 -13.879772727272728 0
      vertex -8.563005102990388 -9.879772727272728 0
    endloop
  endfacet
  facet normal 0 0 -1
    outer loop
      vertex -8.220454677517239 -8.852361500263214 0
      vertex -7.864999999999995 -8.792255118489265 0
      vertex -7.20368116628083 -13.879772727272728 0
    endloop
  endfacet
  facet normal 0 0 -1
    outer loop
      vertex -7.864999999999995 -8.792255118489265 0
      vertex -7.543727878205274 -8.657106034457684 0
      vertex -7.20368116628083 -13.879772727272728 0
    endloop
  endfacet
  facet normal 0 0 -1
    outer loop
      vertex -7.543727878205274 -8.657106034457684 0
      vertex -7.266400002982294 -8.459760576486588 0
      vertex -7.20368116628083 -13.879772727272728 0
    endloop
  endfacet
  facet normal 0 0 -1
    outer loop
      vertex -7.266400002982294 -8.459760576486588 0
      vertex -7.198989539095123 -8.385699086084635 0
      vertex -7.20368116628083 -13.879772727272728 0
    endloop
  endfacet
  facet normal 0 0 -1
    outer loop
      vertex -7.198989539095123 -8.385699086084635 0
      vertex -7.144152286670845 -8.32031825308355 0
      vertex -7.20368116628083 -13.879772727272728 0
    endloop
  endfacet
  facet normal 1 0 0
    outer loop
      vertex -7.1000000000000085 -8.271809698670253 0.0630560000141358
      vertex -7.1000000000000085 -14.74807275136562 0
      vertex -7.1000000000000085 -8.259267082365037 0
    endloop
  endfacet
  facet normal 0 0 -1
    outer loop
      vertex -7.144152286670845 -8.32031825308355 0
      vertex -7.1000000000000085 -8.259267082365037 0
      vertex -7.20368116628083 -13.879772727272728 0
    endloop
  endfacet
  facet normal 1 0 0
    outer loop
      vertex -7.1000000000000085 -8.276942783623085 0.14137171252567526
      vertex -7.1000000000000085 -14.74807275136562 0
      vertex -7.1000000000000085 -8.271809698670253 0.0630560000141358
    endloop
  endfacet
  facet normal 1 0 0
    outer loop
      vertex -7.1000000000000085 -8.276942783623085 2.1
      vertex -7.1000000000000085 -14.74807275136562 0
      vertex -7.1000000000000085 -8.276942783623085 0.14137171252567526
    endloop
  endfacet
  facet normal -1 0 0
    outer loop
      vertex -10.900000000000006 -8.947490909642596 2.1
      vertex -10.900000000000006 -13.879772727272728 0
      vertex -10.900000000000006 -9.197647988101544 2.1
    endloop
  endfacet
  facet normal 1 0 0
    outer loop
      vertex -7.1000000000000085 -8.276942783623085 2.1
      vertex -7.1000000000000085 -8.645853374644652 2.1
      vertex -7.1000000000000085 -14.74807275136562 0
    endloop
  endfacet
  facet normal -1 0 0
    outer loop
      vertex -10.900000000000006 -9.197647988101544 3
      vertex -10.900000000000006 -13.879772727272728 0
      vertex -10.900000000000006 -13.879772727272728 3
    endloop
  endfacet
  facet normal 1 0 0
    outer loop
      vertex -7.1000000000000085 -8.645853374644652 2.1
      vertex -7.1000000000000085 -14.74807275136562 3
      vertex -7.1000000000000085 -14.74807275136562 0
    endloop
  endfacet
  facet normal 0 0 1
    outer loop
      vertex -8.178772111237052 -9.098862133920193 3
      vertex -10.900000000000006 -13.879772727272728 3
      vertex -7.370333634714569 -13.879772727272728 3
    endloop
  endfacet
  facet normal 0 0 1
    outer loop
      vertex -8.178772111237052 -9.098862133920193 3
      vertex -7.370333634714569 -13.879772727272728 3
      vertex -7.1000000000000085 -14.74807275136562 3
    endloop
  endfacet
  facet normal -1 0 0
    outer loop
      vertex -10.900000000000006 -9.197647988101544 3
      vertex -10.900000000000006 -9.197647988101544 2.1
      vertex -10.900000000000006 -13.879772727272728 0
    endloop
  endfacet
  facet normal 0 0 1
    outer loop
      vertex -10.900000000000006 -9.197647988101544 3
      vertex -10.900000000000006 -13.879772727272728 3
      vertex -8.590433527529242 -9.115763358771801 3
    endloop
  endfacet
  facet normal 0 0 1
    outer loop
      vertex -8.590433527529242 -9.115763358771801 3
      vertex -10.900000000000006 -13.879772727272728 3
      vertex -8.590349648892882 -9.115760371088982 3
    endloop
  endfacet
  facet normal 0 0 1
    outer loop
      vertex -8.590349648892882 -9.115760371088982 3
      vertex -10.900000000000006 -13.879772727272728 3
      vertex -8.211512726545337 -9.102201528847218 3
    endloop
  endfacet
  facet normal 0 0 1
    outer loop
      vertex -8.211303499341014 -9.102193959057331 3
      vertex -8.211512726545337 -9.102201528847218 3
      vertex -10.900000000000006 -13.879772727272728 3
    endloop
  endfacet
  facet normal 0 0 1
    outer loop
      vertex -8.211303499341014 -9.102193959057331 3
      vertex -10.900000000000006 -13.879772727272728 3
      vertex -8.178772111237052 -9.098862133920193 3
    endloop
  endfacet
  facet normal 1 0 0
    outer loop
      vertex -7.1000000000000085 -8.645853374644652 3
      vertex -7.1000000000000085 -14.74807275136562 3
      vertex -7.1000000000000085 -8.645853374644652 2.1
    endloop
  endfacet
  facet normal 0 0 1
    outer loop
      vertex -8.178772111237052 -9.098862133920193 3
      vertex -7.1000000000000085 -14.74807275136562 3
      vertex -7.8233174353837995 -9.038755752146244 3
    endloop
  endfacet
  facet normal 0 0 1
    outer loop
      vertex -7.8233174353837995 -9.038755752146244 3
      vertex -7.1000000000000085 -14.74807275136562 3
      vertex -7.798968774080279 -9.03337723761797 3
    endloop
  endfacet
  facet normal 0 0 1
    outer loop
      vertex -7.798968774080279 -9.03337723761797 3
      vertex -7.1000000000000085 -14.74807275136562 3
      vertex -7.768060927093032 -9.02269560098648 3
    endloop
  endfacet
  facet normal 0 0 1
    outer loop
      vertex -7.768060927093032 -9.02269560098648 3
      vertex -7.1000000000000085 -14.74807275136562 3
      vertex -7.446788807213309 -8.887546516954899 3
    endloop
  endfacet
  facet normal 0 0 1
    outer loop
      vertex -7.426608514785769 -8.877974897623062 3
      vertex -7.446788807213309 -8.887546516954899 3
      vertex -7.1000000000000085 -14.74807275136562 3
    endloop
  endfacet
  facet normal 0 0 1
    outer loop
      vertex -7.426608514785769 -8.877974897623062 3
      vertex -7.1000000000000085 -14.74807275136562 3
      vertex -7.398781318962577 -8.860798187553883 3
    endloop
  endfacet
  facet normal 0 0 1
    outer loop
      vertex -7.398781318962577 -8.860798187553883 3
      vertex -7.1000000000000085 -14.74807275136562 3
      vertex -7.121453446149829 -8.663452729582787 3
    endloop
  endfacet
  facet normal 0 0 1
    outer loop
      vertex -7.121453446149829 -8.663452729582787 3
      vertex -7.1000000000000085 -14.74807275136562 3
      vertex -7.105063360929492 -8.650733053684235 3
    endloop
  endfacet
  facet normal 0 0 1
    outer loop
      vertex -7.105063360929492 -8.650733053684235 3
      vertex -7.1000000000000085 -14.74807275136562 3
      vertex -7.1000000000000085 -8.645853374644652 3
    endloop
  endfacet
  facet normal 0 0 -1
    outer loop
      vertex -0.75 -9.81677537193635 0
      vertex -0.7329776012497433 -9.879772727272728 0
      vertex -1.9000000000000057 -13.879772727272728 0
    endloop
  endfacet
  facet normal 0 0 -1
    outer loop
      vertex 1.7963188337191696 -13.879772727272728 0
      vertex -1.9000000000000057 -13.879772727272728 0
      vertex -0.7329776012497433 -9.879772727272728 0
    endloop
  endfacet
  facet normal 0 0 -1
    outer loop
      vertex -1.9000000000000057 -8.947490909642596 0
      vertex -0.9935714285714283 -8.915353894233704 0
      vertex -1.9000000000000057 -13.879772727272728 0
    endloop
  endfacet
  facet normal 0 0 -1
    outer loop
      vertex -0.9935714285714283 -8.915353894233704 0
      vertex -0.75 -9.81677537193635 0
      vertex -1.9000000000000057 -13.879772727272728 0
    endloop
  endfacet
  facet normal 0 0 -1
    outer loop
      vertex -0.9935714285714283 -8.915353894233704 0
      vertex -0.75 -8.906718181105482 0
      vertex -0.75 -9.81677537193635 0
    endloop
  endfacet
  facet normal -1 0 0
    outer loop
      vertex -1.9000000000000057 -8.947490909642596 2.1
      vertex -1.9000000000000057 -8.947490909642596 0
      vertex -1.9000000000000057 -13.879772727272728 0
    endloop
  endfacet
  facet normal -1 0 0
    outer loop
      vertex -1.9000000000000057 -8.947490909642596 2.1
      vertex -1.9000000000000057 -13.879772727272728 0
      vertex -1.9000000000000057 -9.197647988101544 2.1
    endloop
  endfacet
  facet normal -1 0 0
    outer loop
      vertex -1.9000000000000057 -9.197647988101544 3
      vertex -1.9000000000000057 -13.879772727272728 0
      vertex -1.9000000000000057 -13.879772727272728 3
    endloop
  endfacet
  facet normal -1 0 0
    outer loop
      vertex -1.9000000000000057 -9.197647988101544 3
      vertex -1.9000000000000057 -9.197647988101544 2.1
      vertex -1.9000000000000057 -13.879772727272728 0
    endloop
  endfacet
  facet normal 0 0 1
    outer loop
      vertex -1.9000000000000057 -9.197647988101544 3
      vertex -1.9000000000000057 -13.879772727272728 3
      vertex 0.4095664724707575 -9.115763358771801 3
    endloop
  endfacet
  facet normal 0 0 1
    outer loop
      vertex 0.4095664724707575 -9.115763358771801 3
      vertex -1.9000000000000057 -13.879772727272728 3
      vertex 0.40965035110711767 -9.115760371088982 3
    endloop
  endfacet
  facet normal 0 0 1
    outer loop
      vertex 0.40965035110711767 -9.115760371088982 3
      vertex -1.9000000000000057 -13.879772727272728 3
      vertex 0.7884872734546633 -9.102201528847218 3
    endloop
  endfacet
  facet normal 0 0 1
    outer loop
      vertex 0.7886965006589861 -9.102193959057331 3
      vertex 0.7884872734546633 -9.102201528847218 3
      vertex -1.9000000000000057 -13.879772727272728 3
    endloop
  endfacet
  facet normal 0 0 1
    outer loop
      vertex 0.7886965006589861 -9.102193959057331 3
      vertex -1.9000000000000057 -13.879772727272728 3
      vertex 0.821227888762948 -9.098862133920193 3
    endloop
  endfacet
  facet normal 0 0 -1
    outer loop
      vertex 1.7963188337191696 -13.879772727272728 0
      vertex -0.7329776012497433 -9.879772727272728 0
      vertex 0.4369948970096118 -9.879772727272728 0
    endloop
  endfacet
  facet normal 0 0 -1
    outer loop
      vertex 1.7932083389091247 -14.048391139521472 0
      vertex 1.7963188337191696 -13.879772727272728 0
      vertex 1.8999999999999915 -14.74807275136562 0
    endloop
  endfacet
  facet normal 0 0 -1
    outer loop
      vertex 1.8999999999999915 -8.259267082365037 0
      vertex 1.8999999999999915 -14.74807275136562 0
      vertex 1.7963188337191696 -13.879772727272728 0
    endloop
  endfacet
  facet normal 0 0 -1
    outer loop
      vertex 0.7795453224827611 -8.852361500263214 0
      vertex 0.4369948970096118 -9.879772727272728 0
      vertex 0.75 -8.853418948316685 0
    endloop
  endfacet
  facet normal 0 0 -1
    outer loop
      vertex 0.7795453224827611 -8.852361500263214 0
      vertex 1.7963188337191696 -13.879772727272728 0
      vertex 0.4369948970096118 -9.879772727272728 0
    endloop
  endfacet
  facet normal 0 0 -1
    outer loop
      vertex 0.7795453224827611 -8.852361500263214 0
      vertex 1.1350000000000051 -8.792255118489265 0
      vertex 1.7963188337191696 -13.879772727272728 0
    endloop
  endfacet
  facet normal 0 0 -1
    outer loop
      vertex 1.1350000000000051 -8.792255118489265 0
      vertex 1.4562721217947256 -8.657106034457684 0
      vertex 1.7963188337191696 -13.879772727272728 0
    endloop
  endfacet
  facet normal 0 0 -1
    outer loop
      vertex 1.4562721217947256 -8.657106034457684 0
      vertex 1.7335999970177056 -8.459760576486588 0
      vertex 1.7963188337191696 -13.879772727272728 0
    endloop
  endfacet
  facet normal 0 0 -1
    outer loop
      vertex 1.7335999970177056 -8.459760576486588 0
      vertex 1.8010104609048767 -8.385699086084635 0
      vertex 1.7963188337191696 -13.879772727272728 0
    endloop
  endfacet
  facet normal 0 0 -1
    outer loop
      vertex 1.8010104609048767 -8.385699086084635 0
      vertex 1.8558477133291547 -8.32031825308355 0
      vertex 1.7963188337191696 -13.879772727272728 0
    endloop
  endfacet
  facet normal 0 0 -1
    outer loop
      vertex 1.8558477133291547 -8.32031825308355 0
      vertex 1.8999999999999915 -8.259267082365037 0
      vertex 1.7963188337191696 -13.879772727272728 0
    endloop
  endfacet
  facet normal 1 0 0
    outer loop
      vertex 1.8999999999999915 -8.271809698670253 0.0630560000141358
      vertex 1.8999999999999915 -14.74807275136562 0
      vertex 1.8999999999999915 -8.259267082365037 0
    endloop
  endfacet
  facet normal 1 0 0
    outer loop
      vertex 1.8999999999999915 -8.276942783623085 0.14137171252567526
      vertex 1.8999999999999915 -14.74807275136562 0
      vertex 1.8999999999999915 -8.271809698670253 0.0630560000141358
    endloop
  endfacet
  facet normal 1 0 0
    outer loop
      vertex 1.8999999999999915 -8.276942783623085 2.1
      vertex 1.8999999999999915 -14.74807275136562 0
      vertex 1.8999999999999915 -8.276942783623085 0.14137171252567526
    endloop
  endfacet
  facet normal 1 0 0
    outer loop
      vertex 1.8999999999999915 -8.276942783623085 2.1
      vertex 1.8999999999999915 -8.645853374644652 2.1
      vertex 1.8999999999999915 -14.74807275136562 0
    endloop
  endfacet
  facet normal 1 0 0
    outer loop
      vertex 1.8999999999999915 -8.645853374644652 2.1
      vertex 1.8999999999999915 -14.74807275136562 3
      vertex 1.8999999999999915 -14.74807275136562 0
    endloop
  endfacet
  facet normal 0 0 1
    outer loop
      vertex 0.821227888762948 -9.098862133920193 3
      vertex -1.9000000000000057 -13.879772727272728 3
      vertex 1.6296663652854306 -13.879772727272728 3
    endloop
  endfacet
  facet normal 0 0 1
    outer loop
      vertex 0.821227888762948 -9.098862133920193 3
      vertex 1.6296663652854306 -13.879772727272728 3
      vertex 1.8999999999999915 -14.74807275136562 3
    endloop
  endfacet
  facet normal 0 0 1
    outer loop
      vertex 0.821227888762948 -9.098862133920193 3
      vertex 1.8999999999999915 -14.74807275136562 3
      vertex 1.1766825646162005 -9.038755752146244 3
    endloop
  endfacet
  facet normal 1 0 0
    outer loop
      vertex 1.8999999999999915 -8.645853374644652 3
      vertex 1.8999999999999915 -14.74807275136562 3
      vertex 1.8999999999999915 -8.645853374644652 2.1
    endloop
  endfacet
  facet normal 0 0 1
    outer loop
      vertex 1.1766825646162005 -9.038755752146244 3
      vertex 1.8999999999999915 -14.74807275136562 3
      vertex 1.2010312259197207 -9.03337723761797 3
    endloop
  endfacet
  facet normal 0 0 1
    outer loop
      vertex 1.2010312259197207 -9.03337723761797 3
      vertex 1.8999999999999915 -14.74807275136562 3
      vertex 1.2319390729069681 -9.02269560098648 3
    endloop
  endfacet
  facet normal 0 0 1
    outer loop
      vertex 1.2319390729069681 -9.02269560098648 3
      vertex 1.8999999999999915 -14.74807275136562 3
      vertex 1.5532111927866907 -8.887546516954899 3
    endloop
  endfacet
  facet normal 0 0 1
    outer loop
      vertex 1.5733914852142306 -8.877974897623062 3
      vertex 1.5532111927866907 -8.887546516954899 3
      vertex 1.8999999999999915 -14.74807275136562 3
    endloop
  endfacet
  facet normal 0 0 1
    outer loop
      vertex 1.5733914852142306 -8.877974897623062 3
      vertex 1.8999999999999915 -14.74807275136562 3
      vertex 1.6012186810374232 -8.860798187553883 3
    endloop
  endfacet
  facet normal 0 0 1
    outer loop
      vertex 1.6012186810374232 -8.860798187553883 3
      vertex 1.8999999999999915 -14.74807275136562 3
      vertex 1.878546553850171 -8.663452729582787 3
    endloop
  endfacet
  facet normal 0 0 1
    outer loop
      vertex 1.878546553850171 -8.663452729582787 3
      vertex 1.8999999999999915 -14.74807275136562 3
      vertex 1.894936639070508 -8.650733053684235 3
    endloop
  endfacet
  facet normal 0 0 1
    outer loop
      vertex 1.894936639070508 -8.650733053684235 3
      vertex 1.8999999999999915 -14.74807275136562 3
      vertex 1.8999999999999915 -8.645853374644652 3
    endloop
  endfacet
  facet normal 0 0 -1
    outer loop
      vertex 7.099999999999994 -19.87977272727273 0
      vertex 7.099999999999994 -13.879772727272728 0
      vertex 10.79631883371917 -13.879772727272728 0
    endloop
  endfacet
  facet normal 0 0 -1
    outer loop
      vertex 7.099999999999994 -19.87977272727273 0
      vertex 10.793208338909125 -14.048391139521472 0
      vertex 10.899999999999991 -19.87977272727273 0
    endloop
  endfacet
  facet normal 0 0 -1
    outer loop
      vertex 7.099999999999994 -19.87977272727273 0
      vertex 10.79631883371917 -13.879772727272728 0
      vertex 10.793208338909125 -14.048391139521472 0
    endloop
  endfacet
  facet normal 0 0 -1
    outer loop
      vertex 10.899999999999991 -19.87977272727273 0
      vertex 10.793208338909125 -14.048391139521472 0
      vertex 10.899999999999991 -14.74807275136562 0
    endloop
  endfacet
  facet normal -1 0 0
    outer loop
      vertex 7.099999999999994 -13.879772727272728 3
      vertex 7.099999999999994 -13.879772727272728 0
      vertex 7.099999999999994 -19.87977272727273 0
    endloop
  endfacet
  facet normal 0 -1 0
    outer loop
      vertex 7.099999999999994 -19.87977272727273 0
      vertex 10.899999999999991 -19.87977272727273 0
      vertex 10.899999999999991 -19.87977272727273 3
    endloop
  endfacet
  facet normal 1 0 0
    outer loop
      vertex 10.899999999999991 -19.87977272727273 0
      vertex 10.899999999999991 -14.74807275136562 0
      vertex 10.899999999999991 -14.74807275136562 3
    endloop
  endfacet
  facet normal -1 0 0
    outer loop
      vertex 7.099999999999994 -13.879772727272728 3
      vertex 7.099999999999994 -19.87977272727273 0
      vertex 7.099999999999994 -19.87977272727273 3
    endloop
  endfacet
  facet normal 0 -1 0
    outer loop
      vertex 7.099999999999994 -19.87977272727273 3
      vertex 7.099999999999994 -19.87977272727273 0
      vertex 10.899999999999991 -19.87977272727273 3
    endloop
  endfacet
  facet normal 1 0 0
    outer loop
      vertex 10.899999999999991 -19.87977272727273 3
      vertex 10.899999999999991 -19.87977272727273 0
      vertex 10.899999999999991 -14.74807275136562 3
    endloop
  endfacet
  facet normal 0 0 1
    outer loop
      vertex 7.099999999999994 -13.879772727272728 3
      vertex 7.099999999999994 -19.87977272727273 3
      vertex 10.899999999999991 -19.87977272727273 3
    endloop
  endfacet
  facet normal 0 0 1
    outer loop
      vertex 10.899999999999991 -19.87977272727273 3
      vertex 10.899999999999991 -14.74807275136562 3
      vertex 7.099999999999994 -13.879772727272728 3
    endloop
  endfacet
  facet normal 0 0 1
    outer loop
      vertex 7.099999999999994 -13.879772727272728 3
      vertex 10.899999999999991 -14.74807275136562 3
      vertex 10.62966636528543 -13.879772727272728 3
    endloop
  endfacet
  facet normal 0 0 -1
    outer loop
      vertex -10.900000000000006 -19.87977272727273 0
      vertex -10.900000000000006 -13.879772727272728 0
      vertex -7.20368116628083 -13.879772727272728 0
    endloop
  endfacet
  facet normal 0 0 -1
    outer loop
      vertex -10.900000000000006 -19.87977272727273 0
      vertex -7.206791661090875 -14.048391139521472 0
      vertex -7.1000000000000085 -19.87977272727273 0
    endloop
  endfacet
  facet normal 0 0 -1
    outer loop
      vertex -10.900000000000006 -19.87977272727273 0
      vertex -7.20368116628083 -13.879772727272728 0
      vertex -7.206791661090875 -14.048391139521472 0
    endloop
  endfacet
  facet normal 0 0 -1
    outer loop
      vertex -7.1000000000000085 -19.87977272727273 0
      vertex -7.206791661090875 -14.048391139521472 0
      vertex -7.1000000000000085 -14.74807275136562 0
    endloop
  endfacet
  facet normal -1 0 0
    outer loop
      vertex -10.900000000000006 -13.879772727272728 3
      vertex -10.900000000000006 -13.879772727272728 0
      vertex -10.900000000000006 -19.87977272727273 0
    endloop
  endfacet
  facet normal 0 -1 0
    outer loop
      vertex -10.900000000000006 -19.87977272727273 0
      vertex -7.1000000000000085 -19.87977272727273 0
      vertex -7.1000000000000085 -19.87977272727273 3
    endloop
  endfacet
  facet normal 1 0 0
    outer loop
      vertex -7.1000000000000085 -19.87977272727273 0
      vertex -7.1000000000000085 -14.74807275136562 0
      vertex -7.1000000000000085 -14.74807275136562 3
    endloop
  endfacet
  facet normal -1 0 0
    outer loop
      vertex -10.900000000000006 -13.879772727272728 3
      vertex -10.900000000000006 -19.87977272727273 0
      vertex -10.900000000000006 -19.87977272727273 3
    endloop
  endfacet
  facet normal 0 -1 0
    outer loop
      vertex -10.900000000000006 -19.87977272727273 3
      vertex -10.900000000000006 -19.87977272727273 0
      vertex -7.1000000000000085 -19.87977272727273 3
    endloop
  endfacet
  facet normal 1 0 0
    outer loop
      vertex -7.1000000000000085 -19.87977272727273 3
      vertex -7.1000000000000085 -19.87977272727273 0
      vertex -7.1000000000000085 -14.74807275136562 3
    endloop
  endfacet
  facet normal 0 0 1
    outer loop
      vertex -10.900000000000006 -13.879772727272728 3
      vertex -10.900000000000006 -19.87977272727273 3
      vertex -7.1000000000000085 -19.87977272727273 3
    endloop
  endfacet
  facet normal 0 0 1
    outer loop
      vertex -7.1000000000000085 -19.87977272727273 3
      vertex -7.1000000000000085 -14.74807275136562 3
      vertex -10.900000000000006 -13.879772727272728 3
    endloop
  endfacet
  facet normal 0 0 1
    outer loop
      vertex -10.900000000000006 -13.879772727272728 3
      vertex -7.1000000000000085 -14.74807275136562 3
      vertex -7.370333634714569 -13.879772727272728 3
    endloop
  endfacet
  facet normal 0 0 -1
    outer loop
      vertex -1.9000000000000057 -19.87977272727273 0
      vertex -1.9000000000000057 -13.879772727272728 0
      vertex 1.7963188337191696 -13.879772727272728 0
    endloop
  endfacet
  facet normal -1 0 0
    outer loop
      vertex -1.9000000000000057 -13.879772727272728 3
      vertex -1.9000000000000057 -13.879772727272728 0
      vertex -1.9000000000000057 -19.87977272727273 0
    endloop
  endfacet
  facet normal -1 0 0
    outer loop
      vertex -1.9000000000000057 -13.879772727272728 3
      vertex -1.9000000000000057 -19.87977272727273 0
      vertex -1.9000000000000057 -19.87977272727273 3
    endloop
  endfacet
  facet normal 0 -1 0
    outer loop
      vertex -1.9000000000000057 -19.87977272727273 3
      vertex -1.9000000000000057 -19.87977272727273 0
      vertex 1.8999999999999915 -19.87977272727273 3
    endloop
  endfacet
  facet normal 0 0 1
    outer loop
      vertex -1.9000000000000057 -13.879772727272728 3
      vertex -1.9000000000000057 -19.87977272727273 3
      vertex 1.8999999999999915 -19.87977272727273 3
    endloop
  endfacet
  facet normal 0 0 -1
    outer loop
      vertex -1.9000000000000057 -19.87977272727273 0
      vertex 1.7932083389091247 -14.048391139521472 0
      vertex 1.8999999999999915 -19.87977272727273 0
    endloop
  endfacet
  facet normal 0 0 -1
    outer loop
      vertex -1.9000000000000057 -19.87977272727273 0
      vertex 1.7963188337191696 -13.879772727272728 0
      vertex 1.7932083389091247 -14.048391139521472 0
    endloop
  endfacet
  facet normal 0 0 -1
    outer loop
      vertex 1.8999999999999915 -19.87977272727273 0
      vertex 1.7932083389091247 -14.048391139521472 0
      vertex 1.8999999999999915 -14.74807275136562 0
    endloop
  endfacet
  facet normal 0 -1 0
    outer loop
      vertex -1.9000000000000057 -19.87977272727273 0
      vertex 1.8999999999999915 -19.87977272727273 0
      vertex 1.8999999999999915 -19.87977272727273 3
    endloop
  endfacet
  facet normal 1 0 0
    outer loop
      vertex 1.8999999999999915 -19.87977272727273 0
      vertex 1.8999999999999915 -14.74807275136562 0
      vertex 1.8999999999999915 -14.74807275136562 3
    endloop
  endfacet
  facet normal 1 0 0
    outer loop
      vertex 1.8999999999999915 -19.87977272727273 3
      vertex 1.8999999999999915 -19.87977272727273 0
      vertex 1.8999999999999915 -14.74807275136562 3
    endloop
  endfacet
  facet normal 0 0 1
    outer loop
      vertex 1.8999999999999915 -19.87977272727273 3
      vertex 1.8999999999999915 -14.74807275136562 3
      vertex -1.9000000000000057 -13.879772727272728 3
    endloop
  endfacet
  facet normal 0 0 1
    outer loop
      vertex -1.9000000000000057 -13.879772727272728 3
      vertex 1.8999999999999915 -14.74807275136562 3
      vertex 1.6296663652854306 -13.879772727272728 3
    endloop
  endfacet
  facet normal 0 0 -1
    outer loop
      vertex 9.75 -8.853418948316685 0
      vertex 9.436994897009612 -9.879772727272728 0
      vertex 8.267022398750257 -9.879772727272728 0
    endloop
  endfacet
  facet normal 0 0 -1
    outer loop
      vertex 9.75 15.379772727272728 0
      vertex 8.267022398750257 -9.879772727272728 0
      vertex 8.25 -9.81677537193635 0
    endloop
  endfacet
  facet normal 0 0 -1
    outer loop
      vertex 9.75 15.379772727272728 0
      vertex 8.25 -9.81677537193635 0
      vertex 8.25 -8.906718181105482 0
    endloop
  endfacet
  facet normal 0 0 -1
    outer loop
      vertex 9.75 15.379772727272728 0
      vertex 9.75 -8.853418948316685 0
      vertex 8.267022398750257 -9.879772727272728 0
    endloop
  endfacet
  facet normal -1 0 0
    outer loop
      vertex 8.25 15.379772727272728 0
      vertex 8.25 -8.906718181105482 0
      vertex 8.25 -8.906718181105482 1.5
    endloop
  endfacet
  facet normal 1 0 0
    outer loop
      vertex 9.75 15.379772727272728 1.5
      vertex 9.75 -8.853418948316685 1.5
      vertex 9.75 -8.853418948316685 0
    endloop
  endfacet
  facet normal 0 0 -1
    outer loop
      vertex 8.25 15.379772727272728 0
      vertex 9.75 15.379772727272728 0
      vertex 8.25 -8.906718181105482 0
    endloop
  endfacet
  facet normal 1 0 0
    outer loop
      vertex 9.75 15.379772727272728 1.5
      vertex 9.75 -8.853418948316685 0
      vertex 9.75 15.379772727272728 0
    endloop
  endfacet
  facet normal 0 1 0
    outer loop
      vertex 8.25 15.379772727272728 1.5
      vertex 9.75 15.379772727272728 0
      vertex 8.25 15.379772727272728 0
    endloop
  endfacet
  facet normal -1 0 0
    outer loop
      vertex 8.25 15.379772727272728 1.5
      vertex 8.25 15.379772727272728 0
      vertex 8.25 -8.906718181105482 1.5
    endloop
  endfacet
  facet normal 0 1 0
    outer loop
      vertex 8.25 15.379772727272728 1.5
      vertex 9.75 15.379772727272728 1.5
      vertex 9.75 15.379772727272728 0
    endloop
  endfacet
  facet normal 0 0 1
    outer loop
      vertex 8.25 15.379772727272728 1.5
      vertex 8.25 -8.906718181105482 1.5
      vertex 9.010000000000005 -8.87977273017168 1.5
    endloop
  endfacet
  facet normal 0 0 1
    outer loop
      vertex 8.25 15.379772727272728 1.5
      vertex 9.010000000000005 -8.87977273017168 1.5
      vertex 9.400708399750599 -8.865920342504978 1.5
    endloop
  endfacet
  facet normal 0 0 1
    outer loop
      vertex 8.25 15.379772727272728 1.5
      vertex 9.400708399750599 -8.865920342504978 1.5
      vertex 9.75 -8.853418948316685 1.5
    endloop
  endfacet
  facet normal 0 0 1
    outer loop
      vertex 8.25 15.379772727272728 1.5
      vertex 9.75 -8.853418948316685 1.5
      vertex 9.75 15.379772727272728 1.5
    endloop
  endfacet
  facet normal 0 0 -1
    outer loop
      vertex -8.25 -8.853418948316685 0
      vertex -8.563005102990388 -9.879772727272728 0
      vertex -9.732977601249743 -9.879772727272728 0
    endloop
  endfacet
  facet normal 0 0 -1
    outer loop
      vertex -8.25 15.379772727272728 0
      vertex -9.732977601249743 -9.879772727272728 0
      vertex -9.75 -9.81677537193635 0
    endloop
  endfacet
  facet normal 0 0 -1
    outer loop
      vertex -8.25 15.379772727272728 0
      vertex -9.75 -9.81677537193635 0
      vertex -9.75 -8.906718181105482 0
    endloop
  endfacet
  facet normal 0 0 -1
    outer loop
      vertex -8.25 15.379772727272728 0
      vertex -8.25 -8.853418948316685 0
      vertex -9.732977601249743 -9.879772727272728 0
    endloop
  endfacet
  facet normal -1 0 0
    outer loop
      vertex -9.75 15.379772727272728 0
      vertex -9.75 -8.906718181105482 0
      vertex -9.75 -8.906718181105482 1.5
    endloop
  endfacet
  facet normal 1 0 0
    outer loop
      vertex -8.25 15.379772727272728 1.5
      vertex -8.25 -8.853418948316685 1.5
      vertex -8.25 -8.853418948316685 0
    endloop
  endfacet
  facet normal 0 0 -1
    outer loop
      vertex -9.75 15.379772727272728 0
      vertex -8.25 15.379772727272728 0
      vertex -9.75 -8.906718181105482 0
    endloop
  endfacet
  facet normal 1 0 0
    outer loop
      vertex -8.25 15.379772727272728 1.5
      vertex -8.25 -8.853418948316685 0
      vertex -8.25 15.379772727272728 0
    endloop
  endfacet
  facet normal 0 1 0
    outer loop
      vertex -9.75 15.379772727272728 1.5
      vertex -8.25 15.379772727272728 0
      vertex -9.75 15.379772727272728 0
    endloop
  endfacet
  facet normal -1 0 0
    outer loop
      vertex -9.75 15.379772727272728 1.5
      vertex -9.75 15.379772727272728 0
      vertex -9.75 -8.906718181105482 1.5
    endloop
  endfacet
  facet normal 0 1 0
    outer loop
      vertex -9.75 15.379772727272728 1.5
      vertex -8.25 15.379772727272728 1.5
      vertex -8.25 15.379772727272728 0
    endloop
  endfacet
  facet normal 0 0 1
    outer loop
      vertex -9.75 15.379772727272728 1.5
      vertex -9.75 -8.906718181105482 1.5
      vertex -8.989999999999995 -8.87977273017168 1.5
    endloop
  endfacet
  facet normal 0 0 1
    outer loop
      vertex -9.75 15.379772727272728 1.5
      vertex -8.989999999999995 -8.87977273017168 1.5
      vertex -8.599291600249401 -8.865920342504978 1.5
    endloop
  endfacet
  facet normal 0 0 1
    outer loop
      vertex -9.75 15.379772727272728 1.5
      vertex -8.599291600249401 -8.865920342504978 1.5
      vertex -8.25 -8.853418948316685 1.5
    endloop
  endfacet
  facet normal 0 0 1
    outer loop
      vertex -9.75 15.379772727272728 1.5
      vertex -8.25 -8.853418948316685 1.5
      vertex -8.25 15.379772727272728 1.5
    endloop
  endfacet
  facet normal 0 0 -1
    outer loop
      vertex 0.75 15.379772727272728 0
      vertex -0.7329776012497433 -9.879772727272728 0
      vertex -0.75 -9.81677537193635 0
    endloop
  endfacet
  facet normal 0 0 -1
    outer loop
      vertex 0.75 15.379772727272728 0
      vertex -0.75 -9.81677537193635 0
      vertex -0.75 -8.906718181105482 0
    endloop
  endfacet
  facet normal -1 0 0
    outer loop
      vertex -0.75 15.379772727272728 0
      vertex -0.75 -8.906718181105482 0
      vertex -0.75 -8.906718181105482 1.5
    endloop
  endfacet
  facet normal 0 0 -1
    outer loop
      vertex -0.75 15.379772727272728 0
      vertex 0.75 15.379772727272728 0
      vertex -0.75 -8.906718181105482 0
    endloop
  endfacet
  facet normal 0 1 0
    outer loop
      vertex -0.75 15.379772727272728 1.5
      vertex 0.75 15.379772727272728 0
      vertex -0.75 15.379772727272728 0
    endloop
  endfacet
  facet normal -1 0 0
    outer loop
      vertex -0.75 15.379772727272728 1.5
      vertex -0.75 15.379772727272728 0
      vertex -0.75 -8.906718181105482 1.5
    endloop
  endfacet
  facet normal 0 0 1
    outer loop
      vertex -0.75 15.379772727272728 1.5
      vertex -0.75 -8.906718181105482 1.5
      vertex 0.010000000000005116 -8.87977273017168 1.5
    endloop
  endfacet
  facet normal 0 0 1
    outer loop
      vertex -0.75 15.379772727272728 1.5
      vertex 0.010000000000005116 -8.87977273017168 1.5
      vertex 0.4007083997505987 -8.865920342504978 1.5
    endloop
  endfacet
  facet normal 0 0 -1
    outer loop
      vertex 0.75 -8.853418948316685 0
      vertex 0.4369948970096118 -9.879772727272728 0
      vertex -0.7329776012497433 -9.879772727272728 0
    endloop
  endfacet
  facet normal 0 0 -1
    outer loop
      vertex 0.75 15.379772727272728 0
      vertex 0.75 -8.853418948316685 0
      vertex -0.7329776012497433 -9.879772727272728 0
    endloop
  endfacet
  facet normal 1 0 0
    outer loop
      vertex 0.75 15.379772727272728 1.5
      vertex 0.75 -8.853418948316685 1.5
      vertex 0.75 -8.853418948316685 0
    endloop
  endfacet
  facet normal 1 0 0
    outer loop
      vertex 0.75 15.379772727272728 1.5
      vertex 0.75 -8.853418948316685 0
      vertex 0.75 15.379772727272728 0
    endloop
  endfacet
  facet normal 0 1 0
    outer loop
      vertex -0.75 15.379772727272728 1.5
      vertex 0.75 15.379772727272728 1.5
      vertex 0.75 15.379772727272728 0
    endloop
  endfacet
  facet normal 0 0 1
    outer loop
      vertex -0.75 15.379772727272728 1.5
      vertex 0.4007083997505987 -8.865920342504978 1.5
      vertex 0.75 -8.853418948316685 1.5
    endloop
  endfacet
  facet normal 0 0 1
    outer loop
      vertex -0.75 15.379772727272728 1.5
      vertex 0.75 -8.853418948316685 1.5
      vertex 0.75 15.379772727272728 1.5
    endloop
  endfacet
endsolid OpenSCAD_Model
