solid OpenSCAD_Model
  facet normal -1 0 0
    outer loop
      vertex -0.7000000000000002 -9.5 13
      vertex -0.7000000000000002 -3.5 13
      vertex -0.7000000000000002 -6.920951775601599 11.016267485762413
    endloop
  endfacet
  facet normal -1 0 0
    outer loop
      vertex -0.7000000000000002 -9.5 13
      vertex -0.7000000000000002 -6.920951775601599 11.016267485762413
      vertex -0.7000000000000002 -7.2778174593052025 10.777817459305204
    endloop
  endfacet
  facet normal -1 0 0
    outer loop
      vertex -0.7000000000000002 -9.5 13
      vertex -0.7000000000000002 -7.2778174593052025 10.777817459305204
      vertex -0.7000000000000002 -7.516267485762415 10.420951775601601
    endloop
  endfacet
  facet normal -1 0 0
    outer loop
      vertex -0.7000000000000002 -3.5 13
      vertex -0.7000000000000002 -6.5 11.100000000000001
      vertex -0.7000000000000002 -6.920951775601599 11.016267485762413
    endloop
  endfacet
  facet normal -1 0 0
    outer loop
      vertex -0.7000000000000002 -9.5 13
      vertex -0.7000000000000002 -7.516267485762415 10.420951775601601
      vertex -0.7000000000000002 -7.6 10
    endloop
  endfacet
  facet normal -1 0 0
    outer loop
      vertex -0.7000000000000002 -9.5 13
      vertex -0.7000000000000002 -7.6 10
      vertex -0.7000000000000002 -7.516267485762415 9.579048224398406
    endloop
  endfacet
  facet normal -1 0 0
    outer loop
      vertex -0.7000000000000002 -3.5 13
      vertex -0.7000000000000002 -6.079048224398401 11.016267485762413
      vertex -0.7000000000000002 -6.5 11.100000000000001
    endloop
  endfacet
  facet normal -1 0 0
    outer loop
      vertex -0.7000000000000002 -3.5 13
      vertex -0.7000000000000002 -5.7221825406947975 10.777817459305204
      vertex -0.7000000000000002 -6.079048224398401 11.016267485762413
    endloop
  endfacet
  facet normal -1 0 0
    outer loop
      vertex -0.7000000000000002 -3.5 13
      vertex -0.7000000000000002 -5.483732514237585 10.420951775601601
      vertex -0.7000000000000002 -5.7221825406947975 10.777817459305204
    endloop
  endfacet
  facet normal 0 0 1
    outer loop
      vertex -0.7000000000000002 -9.5 13
      vertex 0.6999999999999993 -3.5 13
      vertex -0.7000000000000002 -3.5 13
    endloop
  endfacet
  facet normal -1 0 0
    outer loop
      vertex -0.7000000000000002 -3.5 13
      vertex -0.7000000000000002 -5.4 10
      vertex -0.7000000000000002 -5.483732514237585 10.420951775601601
    endloop
  endfacet
  facet normal 0 -1 0
    outer loop
      vertex -0.7000000000000002 -9.5 13
      vertex -0.7000000000000002 -9.5 3
      vertex 0.6999999999999993 -9.5 13
    endloop
  endfacet
  facet normal -1 0 0
    outer loop
      vertex -0.7000000000000002 -9.5 13
      vertex -0.7000000000000002 -7.516267485762415 9.579048224398406
      vertex -0.7000000000000002 -7.6 6
    endloop
  endfacet
  facet normal -1 0 0
    outer loop
      vertex -0.7000000000000002 -7.516267485762415 9.579048224398406
      vertex -0.7000000000000002 -7.2778174593052025 9.222182540694803
      vertex -0.7000000000000002 -7.516267485762415 6.420951775601594
    endloop
  endfacet
  facet normal -1 0 0
    outer loop
      vertex -0.7000000000000002 -6.920951775601599 8.983732514237587
      vertex -0.7000000000000002 -7.2778174593052025 6.777817459305197
      vertex -0.7000000000000002 -7.2778174593052025 9.222182540694803
    endloop
  endfacet
  facet normal -1 0 0
    outer loop
      vertex -0.7000000000000002 -6.079048224398401 7.0162674857624125
      vertex -0.7000000000000002 -6.920951775601599 8.983732514237587
      vertex -0.7000000000000002 -6.5 8.900000000000006
    endloop
  endfacet
  facet normal -1 0 0
    outer loop
      vertex -0.7000000000000002 -6.079048224398401 7.0162674857624125
      vertex -0.7000000000000002 -6.5 8.900000000000006
      vertex -0.7000000000000002 -6.079048224398401 8.983732514237587
    endloop
  endfacet
  facet normal -1 0 0
    outer loop
      vertex -0.7000000000000002 -6.079048224398401 7.0162674857624125
      vertex -0.7000000000000002 -6.079048224398401 8.983732514237587
      vertex -0.7000000000000002 -5.7221825406947975 9.222182540694803
    endloop
  endfacet
  facet normal -1 0 0
    outer loop
      vertex -0.7000000000000002 -5.7221825406947975 6.777817459305197
      vertex -0.7000000000000002 -5.7221825406947975 9.222182540694803
      vertex -0.7000000000000002 -5.483732514237585 9.579048224398406
    endloop
  endfacet
  facet normal -1 0 0
    outer loop
      vertex -0.7000000000000002 -9.5 13
      vertex -0.7000000000000002 -7.6 6
      vertex -0.7000000000000002 -9.5 3
    endloop
  endfacet
  facet normal -1 0 0
    outer loop
      vertex -0.7000000000000002 -6.920951775601599 8.983732514237587
      vertex -0.7000000000000002 -6.920951775601599 7.0162674857624125
      vertex -0.7000000000000002 -7.2778174593052025 6.777817459305197
    endloop
  endfacet
  facet normal -1 0 0
    outer loop
      vertex -0.7000000000000002 -7.2778174593052025 9.222182540694803
      vertex -0.7000000000000002 -7.2778174593052025 6.777817459305197
      vertex -0.7000000000000002 -7.516267485762415 6.420951775601594
    endloop
  endfacet
  facet normal -1 0 0
    outer loop
      vertex -0.7000000000000002 -7.516267485762415 9.579048224398406
      vertex -0.7000000000000002 -7.516267485762415 6.420951775601594
      vertex -0.7000000000000002 -7.6 6
    endloop
  endfacet
  facet normal -1 0 0
    outer loop
      vertex -0.7000000000000002 -6.920951775601599 8.983732514237587
      vertex -0.7000000000000002 -6.5 7.099999999999994
      vertex -0.7000000000000002 -6.920951775601599 7.0162674857624125
    endloop
  endfacet
  facet normal -1 0 0
    outer loop
      vertex -0.7000000000000002 -6.920951775601599 8.983732514237587
      vertex -0.7000000000000002 -6.079048224398401 7.0162674857624125
      vertex -0.7000000000000002 -6.5 7.099999999999994
    endloop
  endfacet
  facet normal -1 0 0
    outer loop
      vertex -0.7000000000000002 -6.079048224398401 7.0162674857624125
      vertex -0.7000000000000002 -5.7221825406947975 9.222182540694803
      vertex -0.7000000000000002 -5.7221825406947975 6.777817459305197
    endloop
  endfacet
  facet normal -1 0 0
    outer loop
      vertex -0.7000000000000002 -5.483732514237585 9.579048224398406
      vertex -0.7000000000000002 -5.483732514237585 6.420951775601594
      vertex -0.7000000000000002 -5.7221825406947975 6.777817459305197
    endloop
  endfacet
  facet normal -1 0 0
    outer loop
      vertex -0.7000000000000002 -5.483732514237585 6.420951775601594
      vertex -0.7000000000000002 -5.483732514237585 9.579048224398406
      vertex -0.7000000000000002 -5.4 10
    endloop
  endfacet
  facet normal -1 0 0
    outer loop
      vertex -0.7000000000000002 -3.5 13
      vertex -0.7000000000000002 -3.5 3
      vertex -0.7000000000000002 -5.4 10
    endloop
  endfacet
  facet normal 0 0 1
    outer loop
      vertex -0.7000000000000002 -9.5 13
      vertex 0.6999999999999993 -9.5 13
      vertex 0.6999999999999993 -3.5 13
    endloop
  endfacet
  facet normal 1 0 0
    outer loop
      vertex 0.6999999999999993 -9.5 13
      vertex 0.6999999999999993 -6.079048224398401 11.016267485762413
      vertex 0.6999999999999993 -3.5 13
    endloop
  endfacet
  facet normal 1 0 0
    outer loop
      vertex 0.6999999999999993 -9.5 13
      vertex 0.6999999999999993 -6.920951775601599 11.016267485762413
      vertex 0.6999999999999993 -6.5 11.100000000000001
    endloop
  endfacet
  facet normal 1 0 0
    outer loop
      vertex 0.6999999999999993 -9.5 13
      vertex 0.6999999999999993 -7.2778174593052025 10.777817459305204
      vertex 0.6999999999999993 -6.920951775601599 11.016267485762413
    endloop
  endfacet
  facet normal 1 0 0
    outer loop
      vertex 0.6999999999999993 -9.5 13
      vertex 0.6999999999999993 -7.516267485762415 10.420951775601601
      vertex 0.6999999999999993 -7.2778174593052025 10.777817459305204
    endloop
  endfacet
  facet normal 1 0 0
    outer loop
      vertex 0.6999999999999993 -9.5 13
      vertex 0.6999999999999993 -6.5 11.100000000000001
      vertex 0.6999999999999993 -6.079048224398401 11.016267485762413
    endloop
  endfacet
  facet normal 1 0 0
    outer loop
      vertex 0.6999999999999993 -9.5 13
      vertex 0.6999999999999993 -7.6 10
      vertex 0.6999999999999993 -7.516267485762415 10.420951775601601
    endloop
  endfacet
  facet normal 1 0 0
    outer loop
      vertex 0.6999999999999993 -3.5 13
      vertex 0.6999999999999993 -6.079048224398401 11.016267485762413
      vertex 0.6999999999999993 -5.7221825406947975 10.777817459305204
    endloop
  endfacet
  facet normal 1 0 0
    outer loop
      vertex 0.6999999999999993 -3.5 13
      vertex 0.6999999999999993 -5.7221825406947975 10.777817459305204
      vertex 0.6999999999999993 -5.483732514237585 10.420951775601601
    endloop
  endfacet
  facet normal 1 0 0
    outer loop
      vertex 0.6999999999999993 -3.5 13
      vertex 0.6999999999999993 -5.483732514237585 10.420951775601601
      vertex 0.6999999999999993 -5.4 10
    endloop
  endfacet
  facet normal 1 0 0
    outer loop
      vertex 0.6999999999999993 -3.5 13
      vertex 0.6999999999999993 -5.4 10
      vertex 0.6999999999999993 -5.483732514237585 9.579048224398406
    endloop
  endfacet
  facet normal 1 0 0
    outer loop
      vertex 0.6999999999999993 -9.5 13
      vertex 0.6999999999999993 -9.5 3
      vertex 0.6999999999999993 -7.6 10
    endloop
  endfacet
  facet normal 1 0 0
    outer loop
      vertex 0.6999999999999993 -7.516267485762415 9.579048224398406
      vertex 0.6999999999999993 -7.6 10
      vertex 0.6999999999999993 -7.516267485762415 6.420951775601594
    endloop
  endfacet
  facet normal 1 0 0
    outer loop
      vertex 0.6999999999999993 -7.2778174593052025 9.222182540694803
      vertex 0.6999999999999993 -7.516267485762415 9.579048224398406
      vertex 0.6999999999999993 -7.2778174593052025 6.777817459305197
    endloop
  endfacet
  facet normal 1 0 0
    outer loop
      vertex 0.6999999999999993 -6.920951775601599 7.0162674857624125
      vertex 0.6999999999999993 -6.920951775601599 8.983732514237587
      vertex 0.6999999999999993 -7.2778174593052025 9.222182540694803
    endloop
  endfacet
  facet normal 1 0 0
    outer loop
      vertex 0.6999999999999993 -6.920951775601599 7.0162674857624125
      vertex 0.6999999999999993 -6.5 8.900000000000006
      vertex 0.6999999999999993 -6.920951775601599 8.983732514237587
    endloop
  endfacet
  facet normal 1 0 0
    outer loop
      vertex 0.6999999999999993 -6.920951775601599 7.0162674857624125
      vertex 0.6999999999999993 -6.079048224398401 8.983732514237587
      vertex 0.6999999999999993 -6.5 8.900000000000006
    endloop
  endfacet
  facet normal 1 0 0
    outer loop
      vertex 0.6999999999999993 -5.483732514237585 9.579048224398406
      vertex 0.6999999999999993 -5.7221825406947975 9.222182540694803
      vertex 0.6999999999999993 -5.483732514237585 6.420951775601594
    endloop
  endfacet
  facet normal 1 0 0
    outer loop
      vertex 0.6999999999999993 -6.079048224398401 8.983732514237587
      vertex 0.6999999999999993 -5.7221825406947975 6.777817459305197
      vertex 0.6999999999999993 -5.7221825406947975 9.222182540694803
    endloop
  endfacet
  facet normal 1 0 0
    outer loop
      vertex 0.6999999999999993 -7.516267485762415 9.579048224398406
      vertex 0.6999999999999993 -7.516267485762415 6.420951775601594
      vertex 0.6999999999999993 -7.2778174593052025 6.777817459305197
    endloop
  endfacet
  facet normal 1 0 0
    outer loop
      vertex 0.6999999999999993 -6.920951775601599 7.0162674857624125
      vertex 0.6999999999999993 -7.2778174593052025 9.222182540694803
      vertex 0.6999999999999993 -7.2778174593052025 6.777817459305197
    endloop
  endfacet
  facet normal 1 0 0
    outer loop
      vertex 0.6999999999999993 -6.079048224398401 8.983732514237587
      vertex 0.6999999999999993 -6.920951775601599 7.0162674857624125
      vertex 0.6999999999999993 -6.5 7.099999999999994
    endloop
  endfacet
  facet normal 1 0 0
    outer loop
      vertex 0.6999999999999993 -6.079048224398401 8.983732514237587
      vertex 0.6999999999999993 -6.5 7.099999999999994
      vertex 0.6999999999999993 -6.079048224398401 7.0162674857624125
    endloop
  endfacet
  facet normal 1 0 0
    outer loop
      vertex 0.6999999999999993 -6.079048224398401 8.983732514237587
      vertex 0.6999999999999993 -6.079048224398401 7.0162674857624125
      vertex 0.6999999999999993 -5.7221825406947975 6.777817459305197
    endloop
  endfacet
  facet normal 1 0 0
    outer loop
      vertex 0.6999999999999993 -5.7221825406947975 6.777817459305197
      vertex 0.6999999999999993 -5.483732514237585 6.420951775601594
      vertex 0.6999999999999993 -5.7221825406947975 9.222182540694803
    endloop
  endfacet
  facet normal 0 1 0
    outer loop
      vertex -0.7000000000000002 -3.5 13
      vertex 0.6999999999999993 -3.5 13
      vertex 0.6999999999999993 -3.5 3
    endloop
  endfacet
  facet normal 1 0 0
    outer loop
      vertex 0.6999999999999993 -3.5 13
      vertex 0.6999999999999993 -5.483732514237585 9.579048224398406
      vertex 0.6999999999999993 -5.4 6
    endloop
  endfacet
  facet normal 1 0 0
    outer loop
      vertex 0.6999999999999993 -5.483732514237585 9.579048224398406
      vertex 0.6999999999999993 -5.483732514237585 6.420951775601594
      vertex 0.6999999999999993 -5.4 6
    endloop
  endfacet
  facet normal 1 0 0
    outer loop
      vertex 0.6999999999999993 -3.5 13
      vertex 0.6999999999999993 -5.4 6
      vertex 0.6999999999999993 -3.5 3
    endloop
  endfacet
  facet normal -1 0 0
    outer loop
      vertex -0.7000000000000002 -9.5 3
      vertex -0.7000000000000002 -7.6 6
      vertex -0.7000000000000002 -7.516267485762415 5.579048224398406
    endloop
  endfacet
  facet normal -1 0 0
    outer loop
      vertex -0.7000000000000002 -9.5 3
      vertex -0.7000000000000002 -7.516267485762415 5.579048224398406
      vertex -0.7000000000000002 -7.2778174593052025 5.222182540694803
    endloop
  endfacet
  facet normal -1 0 0
    outer loop
      vertex -0.7000000000000002 -9.5 3
      vertex -0.7000000000000002 -7.2778174593052025 5.222182540694803
      vertex -0.7000000000000002 -6.920951775601599 4.9837325142375875
    endloop
  endfacet
  facet normal -1 0 0
    outer loop
      vertex -0.7000000000000002 -9.5 3
      vertex -0.7000000000000002 -6.920951775601599 4.9837325142375875
      vertex -0.7000000000000002 -6.5 4.900000000000006
    endloop
  endfacet
  facet normal -1 0 0
    outer loop
      vertex -0.7000000000000002 -9.5 3
      vertex -0.7000000000000002 -6.5 4.900000000000006
      vertex -0.7000000000000002 -6.079048224398401 4.9837325142375875
    endloop
  endfacet
  facet normal -1 0 0
    outer loop
      vertex -0.7000000000000002 -9.5 3
      vertex -0.7000000000000002 -6.079048224398401 4.9837325142375875
      vertex -0.7000000000000002 -3.5 3
    endloop
  endfacet
  facet normal -1 0 0
    outer loop
      vertex -0.7000000000000002 -3.5 3
      vertex -0.7000000000000002 -5.483732514237585 6.420951775601594
      vertex -0.7000000000000002 -5.4 10
    endloop
  endfacet
  facet normal -1 0 0
    outer loop
      vertex -0.7000000000000002 -3.5 3
      vertex -0.7000000000000002 -5.4 6
      vertex -0.7000000000000002 -5.483732514237585 6.420951775601594
    endloop
  endfacet
  facet normal 0 1 0
    outer loop
      vertex -0.7000000000000002 -3.5 13
      vertex 0.6999999999999993 -3.5 3
      vertex -0.7000000000000002 -3.5 3
    endloop
  endfacet
  facet normal -1 0 0
    outer loop
      vertex -0.7000000000000002 -3.5 3
      vertex -0.7000000000000002 -5.7221825406947975 5.222182540694803
      vertex -0.7000000000000002 -5.483732514237585 5.579048224398406
    endloop
  endfacet
  facet normal -1 0 0
    outer loop
      vertex -0.7000000000000002 -3.5 3
      vertex -0.7000000000000002 -5.483732514237585 5.579048224398406
      vertex -0.7000000000000002 -5.4 6
    endloop
  endfacet
  facet normal -1 0 0
    outer loop
      vertex -0.7000000000000002 -3.5 3
      vertex -0.7000000000000002 -6.079048224398401 4.9837325142375875
      vertex -0.7000000000000002 -5.7221825406947975 5.222182540694803
    endloop
  endfacet
  facet normal 0 -1 0
    outer loop
      vertex 0.6999999999999993 -9.5 13
      vertex -0.7000000000000002 -9.5 3
      vertex 0.6999999999999993 -9.5 3
    endloop
  endfacet
  facet normal 1 0 0
    outer loop
      vertex 0.6999999999999993 -9.5 3
      vertex 0.6999999999999993 -7.516267485762415 6.420951775601594
      vertex 0.6999999999999993 -7.6 10
    endloop
  endfacet
  facet normal 1 0 0
    outer loop
      vertex 0.6999999999999993 -9.5 3
      vertex 0.6999999999999993 -7.6 6
      vertex 0.6999999999999993 -7.516267485762415 6.420951775601594
    endloop
  endfacet
  facet normal 1 0 0
    outer loop
      vertex 0.6999999999999993 -9.5 3
      vertex 0.6999999999999993 -7.516267485762415 5.579048224398406
      vertex 0.6999999999999993 -7.6 6
    endloop
  endfacet
  facet normal 1 0 0
    outer loop
      vertex 0.6999999999999993 -9.5 3
      vertex 0.6999999999999993 -7.2778174593052025 5.222182540694803
      vertex 0.6999999999999993 -7.516267485762415 5.579048224398406
    endloop
  endfacet
  facet normal 1 0 0
    outer loop
      vertex 0.6999999999999993 -9.5 3
      vertex 0.6999999999999993 -6.920951775601599 4.9837325142375875
      vertex 0.6999999999999993 -7.2778174593052025 5.222182540694803
    endloop
  endfacet
  facet normal 1 0 0
    outer loop
      vertex 0.6999999999999993 -3.5 3
      vertex 0.6999999999999993 -6.5 4.900000000000006
      vertex 0.6999999999999993 -6.920951775601599 4.9837325142375875
    endloop
  endfacet
  facet normal 1 0 0
    outer loop
      vertex 0.6999999999999993 -9.5 3
      vertex 0.6999999999999993 -3.5 3
      vertex 0.6999999999999993 -6.920951775601599 4.9837325142375875
    endloop
  endfacet
  facet normal 1 0 0
    outer loop
      vertex 0.6999999999999993 -3.5 3
      vertex 0.6999999999999993 -5.483732514237585 5.579048224398406
      vertex 0.6999999999999993 -5.7221825406947975 5.222182540694803
    endloop
  endfacet
  facet normal 1 0 0
    outer loop
      vertex 0.6999999999999993 -3.5 3
      vertex 0.6999999999999993 -5.4 6
      vertex 0.6999999999999993 -5.483732514237585 5.579048224398406
    endloop
  endfacet
  facet normal 1 0 0
    outer loop
      vertex 0.6999999999999993 -3.5 3
      vertex 0.6999999999999993 -6.079048224398401 4.9837325142375875
      vertex 0.6999999999999993 -6.5 4.900000000000006
    endloop
  endfacet
  facet normal 1 0 0
    outer loop
      vertex 0.6999999999999993 -3.5 3
      vertex 0.6999999999999993 -5.7221825406947975 5.222182540694803
      vertex 0.6999999999999993 -6.079048224398401 4.9837325142375875
    endloop
  endfacet
  facet normal -1 0 0
    outer loop
      vertex -0.7000000000000002 3.5 13
      vertex -0.7000000000000002 6.079048224398401 11.016267485762413
      vertex -0.7000000000000002 5.7221825406947975 10.777817459305204
    endloop
  endfacet
  facet normal -1 0 0
    outer loop
      vertex -0.7000000000000002 3.5 13
      vertex -0.7000000000000002 5.7221825406947975 10.777817459305204
      vertex -0.7000000000000002 5.483732514237585 10.420951775601601
    endloop
  endfacet
  facet normal -1 0 0
    outer loop
      vertex -0.7000000000000002 3.5 13
      vertex -0.7000000000000002 5.483732514237585 10.420951775601601
      vertex -0.7000000000000002 5.4 10
    endloop
  endfacet
  facet normal -1 0 0
    outer loop
      vertex -0.7000000000000002 3.5 13
      vertex -0.7000000000000002 5.4 10
      vertex -0.7000000000000002 5.483732514237585 9.579048224398406
    endloop
  endfacet
  facet normal -1 0 0
    outer loop
      vertex -0.7000000000000002 3.5 13
      vertex -0.7000000000000002 9.5 13
      vertex -0.7000000000000002 6.079048224398401 11.016267485762413
    endloop
  endfacet
  facet normal -1 0 0
    outer loop
      vertex -0.7000000000000002 9.5 13
      vertex -0.7000000000000002 6.5 11.100000000000001
      vertex -0.7000000000000002 6.079048224398401 11.016267485762413
    endloop
  endfacet
  facet normal -1 0 0
    outer loop
      vertex -0.7000000000000002 9.5 13
      vertex -0.7000000000000002 6.920951775601599 11.016267485762413
      vertex -0.7000000000000002 6.5 11.100000000000001
    endloop
  endfacet
  facet normal -1 0 0
    outer loop
      vertex -0.7000000000000002 9.5 13
      vertex -0.7000000000000002 7.2778174593052025 10.777817459305204
      vertex -0.7000000000000002 6.920951775601599 11.016267485762413
    endloop
  endfacet
  facet normal -1 0 0
    outer loop
      vertex -0.7000000000000002 9.5 13
      vertex -0.7000000000000002 7.516267485762415 10.420951775601601
      vertex -0.7000000000000002 7.2778174593052025 10.777817459305204
    endloop
  endfacet
  facet normal 0 0 1
    outer loop
      vertex -0.7000000000000002 3.5 13
      vertex 0.6999999999999993 9.5 13
      vertex -0.7000000000000002 9.5 13
    endloop
  endfacet
  facet normal -1 0 0
    outer loop
      vertex -0.7000000000000002 9.5 13
      vertex -0.7000000000000002 7.6 10
      vertex -0.7000000000000002 7.516267485762415 10.420951775601601
    endloop
  endfacet
  facet normal -1 0 0
    outer loop
      vertex -0.7000000000000002 3.5 13
      vertex -0.7000000000000002 5.483732514237585 9.579048224398406
      vertex -0.7000000000000002 5.4 6
    endloop
  endfacet
  facet normal 0 -1 0
    outer loop
      vertex -0.7000000000000002 3.5 13
      vertex -0.7000000000000002 3.5 3
      vertex 0.6999999999999993 3.5 13
    endloop
  endfacet
  facet normal -1 0 0
    outer loop
      vertex -0.7000000000000002 3.5 13
      vertex -0.7000000000000002 5.4 6
      vertex -0.7000000000000002 3.5 3
    endloop
  endfacet
  facet normal -1 0 0
    outer loop
      vertex -0.7000000000000002 5.483732514237585 9.579048224398406
      vertex -0.7000000000000002 5.483732514237585 6.420951775601594
      vertex -0.7000000000000002 5.4 6
    endloop
  endfacet
  facet normal -1 0 0
    outer loop
      vertex -0.7000000000000002 5.483732514237585 9.579048224398406
      vertex -0.7000000000000002 5.7221825406947975 9.222182540694803
      vertex -0.7000000000000002 5.483732514237585 6.420951775601594
    endloop
  endfacet
  facet normal -1 0 0
    outer loop
      vertex -0.7000000000000002 6.079048224398401 8.983732514237587
      vertex -0.7000000000000002 5.7221825406947975 6.777817459305197
      vertex -0.7000000000000002 5.7221825406947975 9.222182540694803
    endloop
  endfacet
  facet normal -1 0 0
    outer loop
      vertex -0.7000000000000002 6.920951775601599 7.0162674857624125
      vertex -0.7000000000000002 6.079048224398401 8.983732514237587
      vertex -0.7000000000000002 6.5 8.900000000000006
    endloop
  endfacet
  facet normal -1 0 0
    outer loop
      vertex -0.7000000000000002 6.920951775601599 7.0162674857624125
      vertex -0.7000000000000002 6.5 8.900000000000006
      vertex -0.7000000000000002 6.920951775601599 8.983732514237587
    endloop
  endfacet
  facet normal -1 0 0
    outer loop
      vertex -0.7000000000000002 7.516267485762415 6.420951775601594
      vertex -0.7000000000000002 7.516267485762415 9.579048224398406
      vertex -0.7000000000000002 7.6 10
    endloop
  endfacet
  facet normal -1 0 0
    outer loop
      vertex -0.7000000000000002 6.920951775601599 7.0162674857624125
      vertex -0.7000000000000002 6.920951775601599 8.983732514237587
      vertex -0.7000000000000002 7.2778174593052025 9.222182540694803
    endloop
  endfacet
  facet normal -1 0 0
    outer loop
      vertex -0.7000000000000002 7.2778174593052025 6.777817459305197
      vertex -0.7000000000000002 7.2778174593052025 9.222182540694803
      vertex -0.7000000000000002 7.516267485762415 9.579048224398406
    endloop
  endfacet
  facet normal -1 0 0
    outer loop
      vertex -0.7000000000000002 9.5 13
      vertex -0.7000000000000002 9.5 3
      vertex -0.7000000000000002 7.6 10
    endloop
  endfacet
  facet normal -1 0 0
    outer loop
      vertex -0.7000000000000002 6.079048224398401 8.983732514237587
      vertex -0.7000000000000002 6.079048224398401 7.0162674857624125
      vertex -0.7000000000000002 5.7221825406947975 6.777817459305197
    endloop
  endfacet
  facet normal -1 0 0
    outer loop
      vertex -0.7000000000000002 5.7221825406947975 9.222182540694803
      vertex -0.7000000000000002 5.7221825406947975 6.777817459305197
      vertex -0.7000000000000002 5.483732514237585 6.420951775601594
    endloop
  endfacet
  facet normal -1 0 0
    outer loop
      vertex -0.7000000000000002 6.079048224398401 8.983732514237587
      vertex -0.7000000000000002 6.5 7.099999999999994
      vertex -0.7000000000000002 6.079048224398401 7.0162674857624125
    endloop
  endfacet
  facet normal -1 0 0
    outer loop
      vertex -0.7000000000000002 6.079048224398401 8.983732514237587
      vertex -0.7000000000000002 6.920951775601599 7.0162674857624125
      vertex -0.7000000000000002 6.5 7.099999999999994
    endloop
  endfacet
  facet normal -1 0 0
    outer loop
      vertex -0.7000000000000002 6.920951775601599 7.0162674857624125
      vertex -0.7000000000000002 7.2778174593052025 9.222182540694803
      vertex -0.7000000000000002 7.2778174593052025 6.777817459305197
    endloop
  endfacet
  facet normal -1 0 0
    outer loop
      vertex -0.7000000000000002 7.516267485762415 9.579048224398406
      vertex -0.7000000000000002 7.516267485762415 6.420951775601594
      vertex -0.7000000000000002 7.2778174593052025 6.777817459305197
    endloop
  endfacet
  facet normal 1 0 0
    outer loop
      vertex 0.6999999999999993 3.5 13
      vertex 0.6999999999999993 5.7221825406947975 10.777817459305204
      vertex 0.6999999999999993 6.079048224398401 11.016267485762413
    endloop
  endfacet
  facet normal 1 0 0
    outer loop
      vertex 0.6999999999999993 3.5 13
      vertex 0.6999999999999993 6.079048224398401 11.016267485762413
      vertex 0.6999999999999993 6.5 11.100000000000001
    endloop
  endfacet
  facet normal 1 0 0
    outer loop
      vertex 0.6999999999999993 3.5 13
      vertex 0.6999999999999993 5.483732514237585 10.420951775601601
      vertex 0.6999999999999993 5.7221825406947975 10.777817459305204
    endloop
  endfacet
  facet normal 1 0 0
    outer loop
      vertex 0.6999999999999993 3.5 13
      vertex 0.6999999999999993 5.4 10
      vertex 0.6999999999999993 5.483732514237585 10.420951775601601
    endloop
  endfacet
  facet normal 0 0 1
    outer loop
      vertex -0.7000000000000002 3.5 13
      vertex 0.6999999999999993 3.5 13
      vertex 0.6999999999999993 9.5 13
    endloop
  endfacet
  facet normal 1 0 0
    outer loop
      vertex 0.6999999999999993 3.5 13
      vertex 0.6999999999999993 6.920951775601599 11.016267485762413
      vertex 0.6999999999999993 9.5 13
    endloop
  endfacet
  facet normal 1 0 0
    outer loop
      vertex 0.6999999999999993 3.5 13
      vertex 0.6999999999999993 6.5 11.100000000000001
      vertex 0.6999999999999993 6.920951775601599 11.016267485762413
    endloop
  endfacet
  facet normal 1 0 0
    outer loop
      vertex 0.6999999999999993 9.5 13
      vertex 0.6999999999999993 6.920951775601599 11.016267485762413
      vertex 0.6999999999999993 7.2778174593052025 10.777817459305204
    endloop
  endfacet
  facet normal 1 0 0
    outer loop
      vertex 0.6999999999999993 9.5 13
      vertex 0.6999999999999993 7.2778174593052025 10.777817459305204
      vertex 0.6999999999999993 7.516267485762415 10.420951775601601
    endloop
  endfacet
  facet normal 1 0 0
    outer loop
      vertex 0.6999999999999993 9.5 13
      vertex 0.6999999999999993 7.516267485762415 10.420951775601601
      vertex 0.6999999999999993 7.6 10
    endloop
  endfacet
  facet normal 1 0 0
    outer loop
      vertex 0.6999999999999993 9.5 13
      vertex 0.6999999999999993 7.6 10
      vertex 0.6999999999999993 7.516267485762415 9.579048224398406
    endloop
  endfacet
  facet normal 1 0 0
    outer loop
      vertex 0.6999999999999993 3.5 13
      vertex 0.6999999999999993 3.5 3
      vertex 0.6999999999999993 5.4 10
    endloop
  endfacet
  facet normal 1 0 0
    outer loop
      vertex 0.6999999999999993 5.483732514237585 9.579048224398406
      vertex 0.6999999999999993 5.4 10
      vertex 0.6999999999999993 5.483732514237585 6.420951775601594
    endloop
  endfacet
  facet normal 1 0 0
    outer loop
      vertex 0.6999999999999993 9.5 13
      vertex 0.6999999999999993 7.516267485762415 9.579048224398406
      vertex 0.6999999999999993 7.6 6
    endloop
  endfacet
  facet normal 1 0 0
    outer loop
      vertex 0.6999999999999993 5.7221825406947975 9.222182540694803
      vertex 0.6999999999999993 5.483732514237585 9.579048224398406
      vertex 0.6999999999999993 5.7221825406947975 6.777817459305197
    endloop
  endfacet
  facet normal 1 0 0
    outer loop
      vertex 0.6999999999999993 6.079048224398401 7.0162674857624125
      vertex 0.6999999999999993 6.079048224398401 8.983732514237587
      vertex 0.6999999999999993 5.7221825406947975 9.222182540694803
    endloop
  endfacet
  facet normal 1 0 0
    outer loop
      vertex 0.6999999999999993 6.079048224398401 7.0162674857624125
      vertex 0.6999999999999993 6.5 8.900000000000006
      vertex 0.6999999999999993 6.079048224398401 8.983732514237587
    endloop
  endfacet
  facet normal 1 0 0
    outer loop
      vertex 0.6999999999999993 6.079048224398401 7.0162674857624125
      vertex 0.6999999999999993 6.920951775601599 8.983732514237587
      vertex 0.6999999999999993 6.5 8.900000000000006
    endloop
  endfacet
  facet normal 1 0 0
    outer loop
      vertex 0.6999999999999993 7.516267485762415 9.579048224398406
      vertex 0.6999999999999993 7.2778174593052025 9.222182540694803
      vertex 0.6999999999999993 7.516267485762415 6.420951775601594
    endloop
  endfacet
  facet normal 1 0 0
    outer loop
      vertex 0.6999999999999993 6.920951775601599 8.983732514237587
      vertex 0.6999999999999993 7.2778174593052025 6.777817459305197
      vertex 0.6999999999999993 7.2778174593052025 9.222182540694803
    endloop
  endfacet
  facet normal 0 1 0
    outer loop
      vertex -0.7000000000000002 9.5 13
      vertex 0.6999999999999993 9.5 13
      vertex 0.6999999999999993 9.5 3
    endloop
  endfacet
  facet normal 1 0 0
    outer loop
      vertex 0.6999999999999993 6.079048224398401 7.0162674857624125
      vertex 0.6999999999999993 5.7221825406947975 9.222182540694803
      vertex 0.6999999999999993 5.7221825406947975 6.777817459305197
    endloop
  endfacet
  facet normal 1 0 0
    outer loop
      vertex 0.6999999999999993 5.483732514237585 9.579048224398406
      vertex 0.6999999999999993 5.483732514237585 6.420951775601594
      vertex 0.6999999999999993 5.7221825406947975 6.777817459305197
    endloop
  endfacet
  facet normal 1 0 0
    outer loop
      vertex 0.6999999999999993 6.920951775601599 8.983732514237587
      vertex 0.6999999999999993 6.079048224398401 7.0162674857624125
      vertex 0.6999999999999993 6.5 7.099999999999994
    endloop
  endfacet
  facet normal 1 0 0
    outer loop
      vertex 0.6999999999999993 6.920951775601599 8.983732514237587
      vertex 0.6999999999999993 6.5 7.099999999999994
      vertex 0.6999999999999993 6.920951775601599 7.0162674857624125
    endloop
  endfacet
  facet normal 1 0 0
    outer loop
      vertex 0.6999999999999993 6.920951775601599 8.983732514237587
      vertex 0.6999999999999993 6.920951775601599 7.0162674857624125
      vertex 0.6999999999999993 7.2778174593052025 6.777817459305197
    endloop
  endfacet
  facet normal 1 0 0
    outer loop
      vertex 0.6999999999999993 7.2778174593052025 6.777817459305197
      vertex 0.6999999999999993 7.516267485762415 6.420951775601594
      vertex 0.6999999999999993 7.2778174593052025 9.222182540694803
    endloop
  endfacet
  facet normal 1 0 0
    outer loop
      vertex 0.6999999999999993 7.516267485762415 9.579048224398406
      vertex 0.6999999999999993 7.516267485762415 6.420951775601594
      vertex 0.6999999999999993 7.6 6
    endloop
  endfacet
  facet normal 1 0 0
    outer loop
      vertex 0.6999999999999993 9.5 13
      vertex 0.6999999999999993 7.6 6
      vertex 0.6999999999999993 9.5 3
    endloop
  endfacet
  facet normal -1 0 0
    outer loop
      vertex -0.7000000000000002 3.5 3
      vertex -0.7000000000000002 5.4 6
      vertex -0.7000000000000002 5.483732514237585 5.579048224398406
    endloop
  endfacet
  facet normal -1 0 0
    outer loop
      vertex -0.7000000000000002 3.5 3
      vertex -0.7000000000000002 5.483732514237585 5.579048224398406
      vertex -0.7000000000000002 5.7221825406947975 5.222182540694803
    endloop
  endfacet
  facet normal -1 0 0
    outer loop
      vertex -0.7000000000000002 3.5 3
      vertex -0.7000000000000002 5.7221825406947975 5.222182540694803
      vertex -0.7000000000000002 6.079048224398401 4.9837325142375875
    endloop
  endfacet
  facet normal -1 0 0
    outer loop
      vertex -0.7000000000000002 3.5 3
      vertex -0.7000000000000002 6.079048224398401 4.9837325142375875
      vertex -0.7000000000000002 6.5 4.900000000000006
    endloop
  endfacet
  facet normal -1 0 0
    outer loop
      vertex -0.7000000000000002 9.5 3
      vertex -0.7000000000000002 7.516267485762415 6.420951775601594
      vertex -0.7000000000000002 7.6 10
    endloop
  endfacet
  facet normal -1 0 0
    outer loop
      vertex -0.7000000000000002 9.5 3
      vertex -0.7000000000000002 7.6 6
      vertex -0.7000000000000002 7.516267485762415 6.420951775601594
    endloop
  endfacet
  facet normal 0 1 0
    outer loop
      vertex -0.7000000000000002 9.5 13
      vertex 0.6999999999999993 9.5 3
      vertex -0.7000000000000002 9.5 3
    endloop
  endfacet
  facet normal -1 0 0
    outer loop
      vertex -0.7000000000000002 3.5 3
      vertex -0.7000000000000002 6.5 4.900000000000006
      vertex -0.7000000000000002 6.920951775601599 4.9837325142375875
    endloop
  endfacet
  facet normal -1 0 0
    outer loop
      vertex -0.7000000000000002 9.5 3
      vertex -0.7000000000000002 7.516267485762415 5.579048224398406
      vertex -0.7000000000000002 7.6 6
    endloop
  endfacet
  facet normal -1 0 0
    outer loop
      vertex -0.7000000000000002 9.5 3
      vertex -0.7000000000000002 7.2778174593052025 5.222182540694803
      vertex -0.7000000000000002 7.516267485762415 5.579048224398406
    endloop
  endfacet
  facet normal -1 0 0
    outer loop
      vertex -0.7000000000000002 9.5 3
      vertex -0.7000000000000002 6.920951775601599 4.9837325142375875
      vertex -0.7000000000000002 7.2778174593052025 5.222182540694803
    endloop
  endfacet
  facet normal -1 0 0
    outer loop
      vertex -0.7000000000000002 3.5 3
      vertex -0.7000000000000002 6.920951775601599 4.9837325142375875
      vertex -0.7000000000000002 9.5 3
    endloop
  endfacet
  facet normal 0 -1 0
    outer loop
      vertex 0.6999999999999993 3.5 13
      vertex -0.7000000000000002 3.5 3
      vertex 0.6999999999999993 3.5 3
    endloop
  endfacet
  facet normal 1 0 0
    outer loop
      vertex 0.6999999999999993 3.5 3
      vertex 0.6999999999999993 5.483732514237585 6.420951775601594
      vertex 0.6999999999999993 5.4 10
    endloop
  endfacet
  facet normal 1 0 0
    outer loop
      vertex 0.6999999999999993 3.5 3
      vertex 0.6999999999999993 5.4 6
      vertex 0.6999999999999993 5.483732514237585 6.420951775601594
    endloop
  endfacet
  facet normal 1 0 0
    outer loop
      vertex 0.6999999999999993 3.5 3
      vertex 0.6999999999999993 5.483732514237585 5.579048224398406
      vertex 0.6999999999999993 5.4 6
    endloop
  endfacet
  facet normal 1 0 0
    outer loop
      vertex 0.6999999999999993 3.5 3
      vertex 0.6999999999999993 5.7221825406947975 5.222182540694803
      vertex 0.6999999999999993 5.483732514237585 5.579048224398406
    endloop
  endfacet
  facet normal 1 0 0
    outer loop
      vertex 0.6999999999999993 3.5 3
      vertex 0.6999999999999993 6.079048224398401 4.9837325142375875
      vertex 0.6999999999999993 5.7221825406947975 5.222182540694803
    endloop
  endfacet
  facet normal 1 0 0
    outer loop
      vertex 0.6999999999999993 9.5 3
      vertex 0.6999999999999993 7.6 6
      vertex 0.6999999999999993 7.516267485762415 5.579048224398406
    endloop
  endfacet
  facet normal 1 0 0
    outer loop
      vertex 0.6999999999999993 9.5 3
      vertex 0.6999999999999993 7.516267485762415 5.579048224398406
      vertex 0.6999999999999993 7.2778174593052025 5.222182540694803
    endloop
  endfacet
  facet normal 1 0 0
    outer loop
      vertex 0.6999999999999993 9.5 3
      vertex 0.6999999999999993 6.5 4.900000000000006
      vertex 0.6999999999999993 6.079048224398401 4.9837325142375875
    endloop
  endfacet
  facet normal 1 0 0
    outer loop
      vertex 0.6999999999999993 9.5 3
      vertex 0.6999999999999993 7.2778174593052025 5.222182540694803
      vertex 0.6999999999999993 6.920951775601599 4.9837325142375875
    endloop
  endfacet
  facet normal 1 0 0
    outer loop
      vertex 0.6999999999999993 9.5 3
      vertex 0.6999999999999993 6.920951775601599 4.9837325142375875
      vertex 0.6999999999999993 6.5 4.900000000000006
    endloop
  endfacet
  facet normal 1 0 0
    outer loop
      vertex 0.6999999999999993 3.5 3
      vertex 0.6999999999999993 9.5 3
      vertex 0.6999999999999993 6.079048224398401 4.9837325142375875
    endloop
  endfacet
  facet normal 0 -1 0
    outer loop
      vertex -1.4000000000000004 -11 3
      vertex -0.499617464448602 -11 2.187664445218701
      vertex -0.26266444521870547 -11 2.308398038850882
    endloop
  endfacet
  facet normal 0 -1 0
    outer loop
      vertex -1.4000000000000004 -11 3
      vertex -0.8083980388508807 -11 1.7626644452187037
      vertex -0.6876644452187053 -11 1.9996174644486047
    endloop
  endfacet
  facet normal 0 -1 0
    outer loop
      vertex -1.4000000000000004 -11 3
      vertex -0.8500000000000001 -11 1.5
      vertex -0.8083980388508807 -11 1.7626644452187037
    endloop
  endfacet
  facet normal 0 -1 0
    outer loop
      vertex -1.4000000000000004 -11 3
      vertex -0.8083980388508807 -11 1.2373355547812963
      vertex -0.8500000000000001 -11 1.5
    endloop
  endfacet
  facet normal 0 -1 0
    outer loop
      vertex -1.4000000000000004 -11 3
      vertex -0.6876644452187053 -11 1.9996174644486047
      vertex -0.499617464448602 -11 2.187664445218701
    endloop
  endfacet
  facet normal 0 0 1
    outer loop
      vertex -1.4000000000000004 -11 3
      vertex -0.7000000000000002 -9.5 3
      vertex -0.7000000000000002 -3.5 3
    endloop
  endfacet
  facet normal 0 -1 0
    outer loop
      vertex -1.4000000000000004 -11 3
      vertex -1.4000000000000004 -11 0
      vertex -0.8083980388508807 -11 1.2373355547812963
    endloop
  endfacet
  facet normal 0 -1 0
    outer loop
      vertex -1.4000000000000004 -11 0
      vertex -0.6876644452187053 -11 1.0003825355513953
      vertex -0.8083980388508807 -11 1.2373355547812963
    endloop
  endfacet
  facet normal 0 -1 0
    outer loop
      vertex -1.4000000000000004 -11 0
      vertex -0.499617464448602 -11 0.8123355547812992
      vertex -0.6876644452187053 -11 1.0003825355513953
    endloop
  endfacet
  facet normal 0 -1 0
    outer loop
      vertex -1.4000000000000004 -11 0
      vertex -0.26266444521870547 -11 0.691601961149118
      vertex -0.499617464448602 -11 0.8123355547812992
    endloop
  endfacet
  facet normal 0 0 1
    outer loop
      vertex -1.4000000000000004 -11 3
      vertex 1.3999999999999995 -11 3
      vertex -0.7000000000000002 -9.5 3
    endloop
  endfacet
  facet normal 0 -1 0
    outer loop
      vertex -1.4000000000000004 -11 3
      vertex -0.26266444521870547 -11 2.308398038850882
      vertex 1.3999999999999995 -11 3
    endloop
  endfacet
  facet normal 0 -1 0
    outer loop
      vertex -1.4000000000000004 -11 0
      vertex 0 -11 0.6500000000000057
      vertex -0.26266444521870547 -11 0.691601961149118
    endloop
  endfacet
  facet normal 0 -1 0
    outer loop
      vertex -1.4000000000000004 -11 0
      vertex 0.26266444521870547 -11 0.691601961149118
      vertex 0 -11 0.6500000000000057
    endloop
  endfacet
  facet normal 0 0 1
    outer loop
      vertex -1.4000000000000004 -11 3
      vertex -0.7000000000000002 -3.5 3
      vertex -1.4000000000000004 11 3
    endloop
  endfacet
  facet normal -1 0 0
    outer loop
      vertex -1.4000000000000004 -11 3
      vertex -1.4000000000000004 11 0
      vertex -1.4000000000000004 -11 0
    endloop
  endfacet
  facet normal 0 0 1
    outer loop
      vertex -0.7000000000000002 -3.5 3
      vertex 0.6999999999999993 -3.5 3
      vertex -0.7000000000000002 3.5 3
    endloop
  endfacet
  facet normal 0 0 -1
    outer loop
      vertex -1.4000000000000004 -11 0
      vertex -1.4000000000000004 11 0
      vertex 1.3999999999999995 -11 0
    endloop
  endfacet
  facet normal 0 0 1
    outer loop
      vertex -0.7000000000000002 -9.5 3
      vertex 1.3999999999999995 -11 3
      vertex 0.6999999999999993 -9.5 3
    endloop
  endfacet
  facet normal 0 -1 0
    outer loop
      vertex 1.3999999999999995 -11 3
      vertex -0.26266444521870547 -11 2.308398038850882
      vertex 0 -11 2.3499999999999943
    endloop
  endfacet
  facet normal 0 -1 0
    outer loop
      vertex 1.3999999999999995 -11 3
      vertex 0 -11 2.3499999999999943
      vertex 0.26266444521870547 -11 2.308398038850882
    endloop
  endfacet
  facet normal 0 -1 0
    outer loop
      vertex -1.4000000000000004 -11 0
      vertex 1.3999999999999995 -11 0
      vertex 0.26266444521870547 -11 0.691601961149118
    endloop
  endfacet
  facet normal 0 -1 0
    outer loop
      vertex 1.3999999999999995 -11 3
      vertex 0.26266444521870547 -11 2.308398038850882
      vertex 0.499617464448602 -11 2.187664445218701
    endloop
  endfacet
  facet normal 0 -1 0
    outer loop
      vertex 1.3999999999999995 -11 3
      vertex 0.499617464448602 -11 2.187664445218701
      vertex 0.6876644452187053 -11 1.9996174644486047
    endloop
  endfacet
  facet normal 0 -1 0
    outer loop
      vertex 1.3999999999999995 -11 3
      vertex 0.6876644452187053 -11 1.9996174644486047
      vertex 0.8083980388508802 -11 1.7626644452187037
    endloop
  endfacet
  facet normal 0 0 1
    outer loop
      vertex 0.6999999999999993 -9.5 3
      vertex 1.3999999999999995 -11 3
      vertex 0.6999999999999993 -3.5 3
    endloop
  endfacet
  facet normal 0 -1 0
    outer loop
      vertex 1.3999999999999995 -11 0
      vertex 0.8083980388508802 -11 1.7626644452187037
      vertex 0.8499999999999996 -11 1.5
    endloop
  endfacet
  facet normal 0 -1 0
    outer loop
      vertex 1.3999999999999995 -11 0
      vertex 0.8499999999999996 -11 1.5
      vertex 0.8083980388508802 -11 1.2373355547812963
    endloop
  endfacet
  facet normal 0 -1 0
    outer loop
      vertex 1.3999999999999995 -11 0
      vertex 0.499617464448602 -11 0.8123355547812992
      vertex 0.26266444521870547 -11 0.691601961149118
    endloop
  endfacet
  facet normal 0 -1 0
    outer loop
      vertex 1.3999999999999995 -11 0
      vertex 0.6876644452187053 -11 1.0003825355513953
      vertex 0.499617464448602 -11 0.8123355547812992
    endloop
  endfacet
  facet normal 0 -1 0
    outer loop
      vertex 1.3999999999999995 -11 0
      vertex 0.8083980388508802 -11 1.2373355547812963
      vertex 0.6876644452187053 -11 1.0003825355513953
    endloop
  endfacet
  facet normal 0 -1 0
    outer loop
      vertex 1.3999999999999995 -11 3
      vertex 0.8083980388508802 -11 1.7626644452187037
      vertex 1.3999999999999995 -11 0
    endloop
  endfacet
  facet normal 0 0 1
    outer loop
      vertex 1.3999999999999995 -11 3
      vertex 0.6999999999999993 3.5 3
      vertex 0.6999999999999993 -3.5 3
    endloop
  endfacet
  facet normal 1 0 0
    outer loop
      vertex 1.3999999999999995 -11 3
      vertex 1.3999999999999995 -11 0
      vertex 1.3999999999999995 11 3
    endloop
  endfacet
  facet normal -1 0 0
    outer loop
      vertex -1.4000000000000004 -11 3
      vertex -1.4000000000000004 11 3
      vertex -1.4000000000000004 11 0
    endloop
  endfacet
  facet normal 0 0 1
    outer loop
      vertex -0.7000000000000002 -3.5 3
      vertex -0.7000000000000002 3.5 3
      vertex -1.4000000000000004 11 3
    endloop
  endfacet
  facet normal 0 0 1
    outer loop
      vertex -0.7000000000000002 3.5 3
      vertex -0.7000000000000002 9.5 3
      vertex -1.4000000000000004 11 3
    endloop
  endfacet
  facet normal 0 1 0
    outer loop
      vertex -1.4000000000000004 11 3
      vertex -0.26266444521870547 11 2.308398038850882
      vertex -0.499617464448602 11 2.187664445218701
    endloop
  endfacet
  facet normal 0 1 0
    outer loop
      vertex -1.4000000000000004 11 3
      vertex -0.6876644452187053 11 1.9996174644486047
      vertex -0.8083980388508807 11 1.7626644452187037
    endloop
  endfacet
  facet normal 0 1 0
    outer loop
      vertex -1.4000000000000004 11 3
      vertex -0.499617464448602 11 2.187664445218701
      vertex -0.6876644452187053 11 1.9996174644486047
    endloop
  endfacet
  facet normal 0 1 0
    outer loop
      vertex -1.4000000000000004 11 3
      vertex -0.8083980388508807 11 1.7626644452187037
      vertex -1.4000000000000004 11 0
    endloop
  endfacet
  facet normal 0 1 0
    outer loop
      vertex -1.4000000000000004 11 0
      vertex -0.8083980388508807 11 1.7626644452187037
      vertex -0.8500000000000001 11 1.5
    endloop
  endfacet
  facet normal 0 1 0
    outer loop
      vertex -1.4000000000000004 11 0
      vertex -0.8500000000000001 11 1.5
      vertex -0.8083980388508807 11 1.2373355547812963
    endloop
  endfacet
  facet normal 0 1 0
    outer loop
      vertex -1.4000000000000004 11 0
      vertex -0.8083980388508807 11 1.2373355547812963
      vertex -0.6876644452187053 11 1.0003825355513953
    endloop
  endfacet
  facet normal 0 1 0
    outer loop
      vertex -1.4000000000000004 11 0
      vertex -0.6876644452187053 11 1.0003825355513953
      vertex -0.499617464448602 11 0.8123355547812992
    endloop
  endfacet
  facet normal 0 1 0
    outer loop
      vertex -1.4000000000000004 11 0
      vertex -0.499617464448602 11 0.8123355547812992
      vertex -0.26266444521870547 11 0.691601961149118
    endloop
  endfacet
  facet normal 0 1 0
    outer loop
      vertex -1.4000000000000004 11 3
      vertex 0 11 2.3499999999999943
      vertex -0.26266444521870547 11 2.308398038850882
    endloop
  endfacet
  facet normal 0 0 1
    outer loop
      vertex -1.4000000000000004 11 3
      vertex -0.7000000000000002 9.5 3
      vertex 0.6999999999999993 9.5 3
    endloop
  endfacet
  facet normal 0 1 0
    outer loop
      vertex -1.4000000000000004 11 3
      vertex 0.26266444521870547 11 2.308398038850882
      vertex 0 11 2.3499999999999943
    endloop
  endfacet
  facet normal 0 1 0
    outer loop
      vertex -1.4000000000000004 11 0
      vertex -0.26266444521870547 11 0.691601961149118
      vertex 1.3999999999999995 11 0
    endloop
  endfacet
  facet normal 0 0 1
    outer loop
      vertex 0.6999999999999993 -3.5 3
      vertex 0.6999999999999993 3.5 3
      vertex -0.7000000000000002 3.5 3
    endloop
  endfacet
  facet normal 0 0 -1
    outer loop
      vertex 1.3999999999999995 -11 0
      vertex -1.4000000000000004 11 0
      vertex 1.3999999999999995 11 0
    endloop
  endfacet
  facet normal 0 0 1
    outer loop
      vertex 1.3999999999999995 -11 3
      vertex 1.3999999999999995 11 3
      vertex 0.6999999999999993 3.5 3
    endloop
  endfacet
  facet normal 1 0 0
    outer loop
      vertex 1.3999999999999995 -11 0
      vertex 1.3999999999999995 11 0
      vertex 1.3999999999999995 11 3
    endloop
  endfacet
  facet normal 0 1 0
    outer loop
      vertex -1.4000000000000004 11 3
      vertex 1.3999999999999995 11 3
      vertex 0.26266444521870547 11 2.308398038850882
    endloop
  endfacet
  facet normal 0 0 1
    outer loop
      vertex -1.4000000000000004 11 3
      vertex 0.6999999999999993 9.5 3
      vertex 1.3999999999999995 11 3
    endloop
  endfacet
  facet normal 0 1 0
    outer loop
      vertex 1.3999999999999995 11 0
      vertex -0.26266444521870547 11 0.691601961149118
      vertex 0 11 0.6500000000000057
    endloop
  endfacet
  facet normal 0 1 0
    outer loop
      vertex 1.3999999999999995 11 0
      vertex 0 11 0.6500000000000057
      vertex 0.26266444521870547 11 0.691601961149118
    endloop
  endfacet
  facet normal 0 0 1
    outer loop
      vertex 0.6999999999999993 3.5 3
      vertex 1.3999999999999995 11 3
      vertex 0.6999999999999993 9.5 3
    endloop
  endfacet
  facet normal 0 1 0
    outer loop
      vertex 1.3999999999999995 11 3
      vertex 0.499617464448602 11 2.187664445218701
      vertex 0.26266444521870547 11 2.308398038850882
    endloop
  endfacet
  facet normal 0 1 0
    outer loop
      vertex 1.3999999999999995 11 3
      vertex 0.6876644452187053 11 1.9996174644486047
      vertex 0.499617464448602 11 2.187664445218701
    endloop
  endfacet
  facet normal 0 1 0
    outer loop
      vertex 1.3999999999999995 11 3
      vertex 0.8083980388508802 11 1.7626644452187037
      vertex 0.6876644452187053 11 1.9996174644486047
    endloop
  endfacet
  facet normal 0 1 0
    outer loop
      vertex 1.3999999999999995 11 3
      vertex 0.8499999999999996 11 1.5
      vertex 0.8083980388508802 11 1.7626644452187037
    endloop
  endfacet
  facet normal 0 1 0
    outer loop
      vertex 1.3999999999999995 11 3
      vertex 0.8083980388508802 11 1.2373355547812963
      vertex 0.8499999999999996 11 1.5
    endloop
  endfacet
  facet normal 0 1 0
    outer loop
      vertex 1.3999999999999995 11 0
      vertex 0.26266444521870547 11 0.691601961149118
      vertex 0.499617464448602 11 0.8123355547812992
    endloop
  endfacet
  facet normal 0 1 0
    outer loop
      vertex 1.3999999999999995 11 0
      vertex 0.499617464448602 11 0.8123355547812992
      vertex 0.6876644452187053 11 1.0003825355513953
    endloop
  endfacet
  facet normal 0 1 0
    outer loop
      vertex 1.3999999999999995 11 0
      vertex 0.6876644452187053 11 1.0003825355513953
      vertex 0.8083980388508802 11 1.2373355547812963
    endloop
  endfacet
  facet normal 0 1 0
    outer loop
      vertex 1.3999999999999995 11 3
      vertex 1.3999999999999995 11 0
      vertex 0.8083980388508802 11 1.2373355547812963
    endloop
  endfacet
  facet normal 0 0.555570233019594 -0.8314696123025508
    outer loop
      vertex -0.7000000000000002 -7.2778174593052025 10.777817459305204
      vertex -0.7000000000000002 -6.920951775601599 11.016267485762413
      vertex 0.6999999999999993 -6.920951775601599 11.016267485762413
    endloop
  endfacet
  facet normal 0 0.8314696123025453 -0.5555702330196021
    outer loop
      vertex -0.7000000000000002 -7.2778174593052025 10.777817459305204
      vertex 0.6999999999999993 -7.2778174593052025 10.777817459305204
      vertex -0.7000000000000002 -7.516267485762415 10.420951775601601
    endloop
  endfacet
  facet normal 0 0.19509032201613802 -0.9807852804032285
    outer loop
      vertex -0.7000000000000002 -6.920951775601599 11.016267485762413
      vertex -0.7000000000000002 -6.5 11.100000000000001
      vertex 0.6999999999999993 -6.5 11.100000000000001
    endloop
  endfacet
  facet normal 0 -0.19509032201613802 -0.9807852804032285
    outer loop
      vertex -0.7000000000000002 -6.5 11.100000000000001
      vertex -0.7000000000000002 -6.079048224398401 11.016267485762413
      vertex 0.6999999999999993 -6.079048224398401 11.016267485762413
    endloop
  endfacet
  facet normal 0 -0.555570233019594 -0.8314696123025508
    outer loop
      vertex -0.7000000000000002 -6.079048224398401 11.016267485762413
      vertex -0.7000000000000002 -5.7221825406947975 10.777817459305204
      vertex 0.6999999999999993 -5.7221825406947975 10.777817459305204
    endloop
  endfacet
  facet normal 0 0.9807852804032307 -0.19509032201612683
    outer loop
      vertex -0.7000000000000002 -7.516267485762415 10.420951775601601
      vertex 0.6999999999999993 -7.516267485762415 10.420951775601601
      vertex -0.7000000000000002 -7.6 10
    endloop
  endfacet
  facet normal 0 0.98078528040323 0.19509032201613002
    outer loop
      vertex -0.7000000000000002 -7.6 10
      vertex 0.6999999999999993 -7.6 10
      vertex -0.7000000000000002 -7.516267485762415 9.579048224398406
    endloop
  endfacet
  facet normal 0 -0.8314696123025453 -0.5555702330196021
    outer loop
      vertex -0.7000000000000002 -5.483732514237585 10.420951775601601
      vertex 0.6999999999999993 -5.483732514237585 10.420951775601601
      vertex -0.7000000000000002 -5.7221825406947975 10.777817459305204
    endloop
  endfacet
  facet normal 0 -0.9807852804032307 -0.19509032201612683
    outer loop
      vertex -0.7000000000000002 -5.4 10
      vertex 0.6999999999999993 -5.4 10
      vertex -0.7000000000000002 -5.483732514237585 10.420951775601601
    endloop
  endfacet
  facet normal 0 0.8314696123025453 0.5555702330196021
    outer loop
      vertex 0.6999999999999993 -7.516267485762415 9.579048224398406
      vertex -0.7000000000000002 -7.2778174593052025 9.222182540694803
      vertex -0.7000000000000002 -7.516267485762415 9.579048224398406
    endloop
  endfacet
  facet normal 0 0.5555702330196053 0.8314696123025431
    outer loop
      vertex -0.7000000000000002 -6.920951775601599 8.983732514237587
      vertex -0.7000000000000002 -7.2778174593052025 9.222182540694803
      vertex 0.6999999999999993 -7.2778174593052025 9.222182540694803
    endloop
  endfacet
  facet normal 0 0.19509032201612206 0.9807852804032317
    outer loop
      vertex -0.7000000000000002 -6.5 8.900000000000006
      vertex -0.7000000000000002 -6.920951775601599 8.983732514237587
      vertex 0.6999999999999993 -6.920951775601599 8.983732514237587
    endloop
  endfacet
  facet normal 0 -0.8314696123025453 0.5555702330196021
    outer loop
      vertex -0.7000000000000002 -5.483732514237585 9.579048224398406
      vertex -0.7000000000000002 -5.7221825406947975 9.222182540694803
      vertex 0.6999999999999993 -5.7221825406947975 9.222182540694803
    endloop
  endfacet
  facet normal 0 -0.5555702330196053 0.8314696123025431
    outer loop
      vertex -0.7000000000000002 -5.7221825406947975 9.222182540694803
      vertex -0.7000000000000002 -6.079048224398401 8.983732514237587
      vertex 0.6999999999999993 -6.079048224398401 8.983732514237587
    endloop
  endfacet
  facet normal 0 -0.19509032201612206 0.9807852804032317
    outer loop
      vertex -0.7000000000000002 -6.079048224398401 8.983732514237587
      vertex -0.7000000000000002 -6.5 8.900000000000006
      vertex 0.6999999999999993 -6.5 8.900000000000006
    endloop
  endfacet
  facet normal 0 -0.98078528040323 0.19509032201613002
    outer loop
      vertex 0.6999999999999993 -5.483732514237585 9.579048224398406
      vertex -0.7000000000000002 -5.4 10
      vertex -0.7000000000000002 -5.483732514237585 9.579048224398406
    endloop
  endfacet
  facet normal 0 0.555570233019594 -0.8314696123025508
    outer loop
      vertex -0.7000000000000002 -7.2778174593052025 10.777817459305204
      vertex 0.6999999999999993 -6.920951775601599 11.016267485762413
      vertex 0.6999999999999993 -7.2778174593052025 10.777817459305204
    endloop
  endfacet
  facet normal 0 0.19509032201613802 -0.9807852804032285
    outer loop
      vertex -0.7000000000000002 -6.920951775601599 11.016267485762413
      vertex 0.6999999999999993 -6.5 11.100000000000001
      vertex 0.6999999999999993 -6.920951775601599 11.016267485762413
    endloop
  endfacet
  facet normal 0 -0.19509032201613802 -0.9807852804032285
    outer loop
      vertex -0.7000000000000002 -6.5 11.100000000000001
      vertex 0.6999999999999993 -6.079048224398401 11.016267485762413
      vertex 0.6999999999999993 -6.5 11.100000000000001
    endloop
  endfacet
  facet normal 0 -0.555570233019594 -0.8314696123025508
    outer loop
      vertex -0.7000000000000002 -6.079048224398401 11.016267485762413
      vertex 0.6999999999999993 -5.7221825406947975 10.777817459305204
      vertex 0.6999999999999993 -6.079048224398401 11.016267485762413
    endloop
  endfacet
  facet normal 0 -0.8314696123025453 -0.5555702330196021
    outer loop
      vertex -0.7000000000000002 -5.7221825406947975 10.777817459305204
      vertex 0.6999999999999993 -5.483732514237585 10.420951775601601
      vertex 0.6999999999999993 -5.7221825406947975 10.777817459305204
    endloop
  endfacet
  facet normal 0 0.8314696123025453 -0.5555702330196021
    outer loop
      vertex -0.7000000000000002 -7.516267485762415 10.420951775601601
      vertex 0.6999999999999993 -7.2778174593052025 10.777817459305204
      vertex 0.6999999999999993 -7.516267485762415 10.420951775601601
    endloop
  endfacet
  facet normal 0 0.9807852804032307 -0.19509032201612683
    outer loop
      vertex -0.7000000000000002 -7.6 10
      vertex 0.6999999999999993 -7.516267485762415 10.420951775601601
      vertex 0.6999999999999993 -7.6 10
    endloop
  endfacet
  facet normal 0 -0.9807852804032307 -0.19509032201612683
    outer loop
      vertex -0.7000000000000002 -5.483732514237585 10.420951775601601
      vertex 0.6999999999999993 -5.4 10
      vertex 0.6999999999999993 -5.483732514237585 10.420951775601601
    endloop
  endfacet
  facet normal 0 -0.98078528040323 0.19509032201613002
    outer loop
      vertex -0.7000000000000002 -5.4 10
      vertex 0.6999999999999993 -5.483732514237585 9.579048224398406
      vertex 0.6999999999999993 -5.4 10
    endloop
  endfacet
  facet normal 0 0.98078528040323 0.19509032201613002
    outer loop
      vertex 0.6999999999999993 -7.516267485762415 9.579048224398406
      vertex -0.7000000000000002 -7.516267485762415 9.579048224398406
      vertex 0.6999999999999993 -7.6 10
    endloop
  endfacet
  facet normal 0 0.8314696123025453 0.5555702330196021
    outer loop
      vertex 0.6999999999999993 -7.2778174593052025 9.222182540694803
      vertex -0.7000000000000002 -7.2778174593052025 9.222182540694803
      vertex 0.6999999999999993 -7.516267485762415 9.579048224398406
    endloop
  endfacet
  facet normal 0 0.5555702330196053 0.8314696123025431
    outer loop
      vertex -0.7000000000000002 -6.920951775601599 8.983732514237587
      vertex 0.6999999999999993 -7.2778174593052025 9.222182540694803
      vertex 0.6999999999999993 -6.920951775601599 8.983732514237587
    endloop
  endfacet
  facet normal 0 -0.8314696123025453 0.5555702330196021
    outer loop
      vertex -0.7000000000000002 -5.483732514237585 9.579048224398406
      vertex 0.6999999999999993 -5.7221825406947975 9.222182540694803
      vertex 0.6999999999999993 -5.483732514237585 9.579048224398406
    endloop
  endfacet
  facet normal 0 -0.19509032201612206 0.9807852804032317
    outer loop
      vertex -0.7000000000000002 -6.079048224398401 8.983732514237587
      vertex 0.6999999999999993 -6.5 8.900000000000006
      vertex 0.6999999999999993 -6.079048224398401 8.983732514237587
    endloop
  endfacet
  facet normal 0 -0.5555702330196053 0.8314696123025431
    outer loop
      vertex 0.6999999999999993 -6.079048224398401 8.983732514237587
      vertex 0.6999999999999993 -5.7221825406947975 9.222182540694803
      vertex -0.7000000000000002 -5.7221825406947975 9.222182540694803
    endloop
  endfacet
  facet normal 0 0.19509032201612206 0.9807852804032317
    outer loop
      vertex -0.7000000000000002 -6.5 8.900000000000006
      vertex 0.6999999999999993 -6.920951775601599 8.983732514237587
      vertex 0.6999999999999993 -6.5 8.900000000000006
    endloop
  endfacet
  facet normal 0 0.5555702330196053 -0.8314696123025431
    outer loop
      vertex -0.7000000000000002 -7.2778174593052025 6.777817459305197
      vertex -0.7000000000000002 -6.920951775601599 7.0162674857624125
      vertex 0.6999999999999993 -6.920951775601599 7.0162674857624125
    endloop
  endfacet
  facet normal 0 0.8314696123025453 -0.5555702330196021
    outer loop
      vertex 0.6999999999999993 -7.2778174593052025 6.777817459305197
      vertex -0.7000000000000002 -7.516267485762415 6.420951775601594
      vertex -0.7000000000000002 -7.2778174593052025 6.777817459305197
    endloop
  endfacet
  facet normal 0 0.19509032201612206 -0.9807852804032317
    outer loop
      vertex -0.7000000000000002 -6.920951775601599 7.0162674857624125
      vertex -0.7000000000000002 -6.5 7.099999999999994
      vertex 0.6999999999999993 -6.5 7.099999999999994
    endloop
  endfacet
  facet normal 0 -0.19509032201612206 -0.9807852804032317
    outer loop
      vertex -0.7000000000000002 -6.5 7.099999999999994
      vertex -0.7000000000000002 -6.079048224398401 7.0162674857624125
      vertex 0.6999999999999993 -6.079048224398401 7.0162674857624125
    endloop
  endfacet
  facet normal 0 -0.5555702330196053 -0.8314696123025431
    outer loop
      vertex -0.7000000000000002 -6.079048224398401 7.0162674857624125
      vertex -0.7000000000000002 -5.7221825406947975 6.777817459305197
      vertex 0.6999999999999993 -5.7221825406947975 6.777817459305197
    endloop
  endfacet
  facet normal 0 -0.8314696123025453 -0.5555702330196021
    outer loop
      vertex -0.7000000000000002 -5.483732514237585 6.420951775601594
      vertex 0.6999999999999993 -5.483732514237585 6.420951775601594
      vertex -0.7000000000000002 -5.7221825406947975 6.777817459305197
    endloop
  endfacet
  facet normal 0 0.5555702330196053 -0.8314696123025431
    outer loop
      vertex 0.6999999999999993 -6.920951775601599 7.0162674857624125
      vertex 0.6999999999999993 -7.2778174593052025 6.777817459305197
      vertex -0.7000000000000002 -7.2778174593052025 6.777817459305197
    endloop
  endfacet
  facet normal 0 0.8314696123025453 -0.5555702330196021
    outer loop
      vertex 0.6999999999999993 -7.516267485762415 6.420951775601594
      vertex -0.7000000000000002 -7.516267485762415 6.420951775601594
      vertex 0.6999999999999993 -7.2778174593052025 6.777817459305197
    endloop
  endfacet
  facet normal 0 0.19509032201612206 -0.9807852804032317
    outer loop
      vertex -0.7000000000000002 -6.920951775601599 7.0162674857624125
      vertex 0.6999999999999993 -6.5 7.099999999999994
      vertex 0.6999999999999993 -6.920951775601599 7.0162674857624125
    endloop
  endfacet
  facet normal 0 -0.19509032201612206 -0.9807852804032317
    outer loop
      vertex -0.7000000000000002 -6.5 7.099999999999994
      vertex 0.6999999999999993 -6.079048224398401 7.0162674857624125
      vertex 0.6999999999999993 -6.5 7.099999999999994
    endloop
  endfacet
  facet normal 0 -0.5555702330196053 -0.8314696123025431
    outer loop
      vertex -0.7000000000000002 -6.079048224398401 7.0162674857624125
      vertex 0.6999999999999993 -5.7221825406947975 6.777817459305197
      vertex 0.6999999999999993 -6.079048224398401 7.0162674857624125
    endloop
  endfacet
  facet normal 0 -0.8314696123025453 -0.5555702330196021
    outer loop
      vertex -0.7000000000000002 -5.7221825406947975 6.777817459305197
      vertex 0.6999999999999993 -5.483732514237585 6.420951775601594
      vertex 0.6999999999999993 -5.7221825406947975 6.777817459305197
    endloop
  endfacet
  facet normal 0 0.98078528040323 -0.19509032201613002
    outer loop
      vertex 0.6999999999999993 -7.516267485762415 6.420951775601594
      vertex -0.7000000000000002 -7.6 6
      vertex -0.7000000000000002 -7.516267485762415 6.420951775601594
    endloop
  endfacet
  facet normal 0 0.98078528040323 0.19509032201613002
    outer loop
      vertex -0.7000000000000002 -7.6 6
      vertex 0.6999999999999993 -7.6 6
      vertex -0.7000000000000002 -7.516267485762415 5.579048224398406
    endloop
  endfacet
  facet normal 0 0.8314696123025453 0.5555702330196021
    outer loop
      vertex -0.7000000000000002 -7.516267485762415 5.579048224398406
      vertex 0.6999999999999993 -7.516267485762415 5.579048224398406
      vertex -0.7000000000000002 -7.2778174593052025 5.222182540694803
    endloop
  endfacet
  facet normal 0 0.5555702330196053 0.8314696123025431
    outer loop
      vertex -0.7000000000000002 -7.2778174593052025 5.222182540694803
      vertex 0.6999999999999993 -7.2778174593052025 5.222182540694803
      vertex -0.7000000000000002 -6.920951775601599 4.9837325142375875
    endloop
  endfacet
  facet normal 0 -0.8314696123025453 0.5555702330196021
    outer loop
      vertex -0.7000000000000002 -5.483732514237585 5.579048224398406
      vertex -0.7000000000000002 -5.7221825406947975 5.222182540694803
      vertex 0.6999999999999993 -5.7221825406947975 5.222182540694803
    endloop
  endfacet
  facet normal 0 0.19509032201612206 0.9807852804032317
    outer loop
      vertex -0.7000000000000002 -6.5 4.900000000000006
      vertex -0.7000000000000002 -6.920951775601599 4.9837325142375875
      vertex 0.6999999999999993 -6.920951775601599 4.9837325142375875
    endloop
  endfacet
  facet normal 0 -0.19509032201612206 0.9807852804032317
    outer loop
      vertex -0.7000000000000002 -6.079048224398401 4.9837325142375875
      vertex -0.7000000000000002 -6.5 4.900000000000006
      vertex 0.6999999999999993 -6.5 4.900000000000006
    endloop
  endfacet
  facet normal 0 -0.5555702330196053 0.8314696123025431
    outer loop
      vertex -0.7000000000000002 -5.7221825406947975 5.222182540694803
      vertex -0.7000000000000002 -6.079048224398401 4.9837325142375875
      vertex 0.6999999999999993 -6.079048224398401 4.9837325142375875
    endloop
  endfacet
  facet normal 0 -0.98078528040323 -0.19509032201613002
    outer loop
      vertex -0.7000000000000002 -5.483732514237585 6.420951775601594
      vertex -0.7000000000000002 -5.4 6
      vertex 0.6999999999999993 -5.4 6
    endloop
  endfacet
  facet normal 0 -0.98078528040323 0.19509032201613002
    outer loop
      vertex -0.7000000000000002 -5.4 6
      vertex -0.7000000000000002 -5.483732514237585 5.579048224398406
      vertex 0.6999999999999993 -5.483732514237585 5.579048224398406
    endloop
  endfacet
  facet normal 0 0.98078528040323 -0.19509032201613002
    outer loop
      vertex -0.7000000000000002 -7.6 6
      vertex 0.6999999999999993 -7.516267485762415 6.420951775601594
      vertex 0.6999999999999993 -7.6 6
    endloop
  endfacet
  facet normal 0 0.98078528040323 0.19509032201613002
    outer loop
      vertex -0.7000000000000002 -7.516267485762415 5.579048224398406
      vertex 0.6999999999999993 -7.6 6
      vertex 0.6999999999999993 -7.516267485762415 5.579048224398406
    endloop
  endfacet
  facet normal 0 0.8314696123025453 0.5555702330196021
    outer loop
      vertex -0.7000000000000002 -7.2778174593052025 5.222182540694803
      vertex 0.6999999999999993 -7.516267485762415 5.579048224398406
      vertex 0.6999999999999993 -7.2778174593052025 5.222182540694803
    endloop
  endfacet
  facet normal 0 0.5555702330196053 0.8314696123025431
    outer loop
      vertex -0.7000000000000002 -6.920951775601599 4.9837325142375875
      vertex 0.6999999999999993 -7.2778174593052025 5.222182540694803
      vertex 0.6999999999999993 -6.920951775601599 4.9837325142375875
    endloop
  endfacet
  facet normal 0 -0.8314696123025453 0.5555702330196021
    outer loop
      vertex -0.7000000000000002 -5.483732514237585 5.579048224398406
      vertex 0.6999999999999993 -5.7221825406947975 5.222182540694803
      vertex 0.6999999999999993 -5.483732514237585 5.579048224398406
    endloop
  endfacet
  facet normal 0 0.19509032201612206 0.9807852804032317
    outer loop
      vertex -0.7000000000000002 -6.5 4.900000000000006
      vertex 0.6999999999999993 -6.920951775601599 4.9837325142375875
      vertex 0.6999999999999993 -6.5 4.900000000000006
    endloop
  endfacet
  facet normal 0 -0.19509032201612206 0.9807852804032317
    outer loop
      vertex -0.7000000000000002 -6.079048224398401 4.9837325142375875
      vertex 0.6999999999999993 -6.5 4.900000000000006
      vertex 0.6999999999999993 -6.079048224398401 4.9837325142375875
    endloop
  endfacet
  facet normal 0 -0.5555702330196053 0.8314696123025431
    outer loop
      vertex -0.7000000000000002 -5.7221825406947975 5.222182540694803
      vertex 0.6999999999999993 -6.079048224398401 4.9837325142375875
      vertex 0.6999999999999993 -5.7221825406947975 5.222182540694803
    endloop
  endfacet
  facet normal 0 -0.98078528040323 -0.19509032201613002
    outer loop
      vertex -0.7000000000000002 -5.483732514237585 6.420951775601594
      vertex 0.6999999999999993 -5.4 6
      vertex 0.6999999999999993 -5.483732514237585 6.420951775601594
    endloop
  endfacet
  facet normal 0 -0.98078528040323 0.19509032201613002
    outer loop
      vertex 0.6999999999999993 -5.483732514237585 5.579048224398406
      vertex 0.6999999999999993 -5.4 6
      vertex -0.7000000000000002 -5.4 6
    endloop
  endfacet
  facet normal 0 0.9807852804032307 -0.19509032201612683
    outer loop
      vertex -0.7000000000000002 5.483732514237585 10.420951775601601
      vertex 0.6999999999999993 5.483732514237585 10.420951775601601
      vertex -0.7000000000000002 5.4 10
    endloop
  endfacet
  facet normal 0 0.98078528040323 0.19509032201613002
    outer loop
      vertex -0.7000000000000002 5.4 10
      vertex 0.6999999999999993 5.4 10
      vertex -0.7000000000000002 5.483732514237585 9.579048224398406
    endloop
  endfacet
  facet normal 0 0.19509032201613802 -0.9807852804032285
    outer loop
      vertex -0.7000000000000002 6.079048224398401 11.016267485762413
      vertex -0.7000000000000002 6.5 11.100000000000001
      vertex 0.6999999999999993 6.5 11.100000000000001
    endloop
  endfacet
  facet normal 0 -0.19509032201613802 -0.9807852804032285
    outer loop
      vertex -0.7000000000000002 6.5 11.100000000000001
      vertex -0.7000000000000002 6.920951775601599 11.016267485762413
      vertex 0.6999999999999993 6.920951775601599 11.016267485762413
    endloop
  endfacet
  facet normal 0 0.555570233019594 -0.8314696123025508
    outer loop
      vertex -0.7000000000000002 5.7221825406947975 10.777817459305204
      vertex -0.7000000000000002 6.079048224398401 11.016267485762413
      vertex 0.6999999999999993 6.079048224398401 11.016267485762413
    endloop
  endfacet
  facet normal 0 0.8314696123025453 -0.5555702330196021
    outer loop
      vertex -0.7000000000000002 5.7221825406947975 10.777817459305204
      vertex 0.6999999999999993 5.7221825406947975 10.777817459305204
      vertex -0.7000000000000002 5.483732514237585 10.420951775601601
    endloop
  endfacet
  facet normal 0 -0.555570233019594 -0.8314696123025508
    outer loop
      vertex -0.7000000000000002 6.920951775601599 11.016267485762413
      vertex -0.7000000000000002 7.2778174593052025 10.777817459305204
      vertex 0.6999999999999993 7.2778174593052025 10.777817459305204
    endloop
  endfacet
  facet normal 0 -0.8314696123025453 -0.5555702330196021
    outer loop
      vertex -0.7000000000000002 7.516267485762415 10.420951775601601
      vertex 0.6999999999999993 7.516267485762415 10.420951775601601
      vertex -0.7000000000000002 7.2778174593052025 10.777817459305204
    endloop
  endfacet
  facet normal 0 -0.9807852804032307 -0.19509032201612683
    outer loop
      vertex -0.7000000000000002 7.6 10
      vertex 0.6999999999999993 7.6 10
      vertex -0.7000000000000002 7.516267485762415 10.420951775601601
    endloop
  endfacet
  facet normal 0 0.8314696123025453 0.5555702330196021
    outer loop
      vertex 0.6999999999999993 5.483732514237585 9.579048224398406
      vertex -0.7000000000000002 5.7221825406947975 9.222182540694803
      vertex -0.7000000000000002 5.483732514237585 9.579048224398406
    endloop
  endfacet
  facet normal 0 0.5555702330196053 0.8314696123025431
    outer loop
      vertex -0.7000000000000002 6.079048224398401 8.983732514237587
      vertex -0.7000000000000002 5.7221825406947975 9.222182540694803
      vertex 0.6999999999999993 5.7221825406947975 9.222182540694803
    endloop
  endfacet
  facet normal 0 0.19509032201612206 0.9807852804032317
    outer loop
      vertex -0.7000000000000002 6.5 8.900000000000006
      vertex -0.7000000000000002 6.079048224398401 8.983732514237587
      vertex 0.6999999999999993 6.079048224398401 8.983732514237587
    endloop
  endfacet
  facet normal 0 -0.98078528040323 0.19509032201613002
    outer loop
      vertex 0.6999999999999993 7.516267485762415 9.579048224398406
      vertex -0.7000000000000002 7.6 10
      vertex -0.7000000000000002 7.516267485762415 9.579048224398406
    endloop
  endfacet
  facet normal 0 -0.8314696123025453 0.5555702330196021
    outer loop
      vertex -0.7000000000000002 7.516267485762415 9.579048224398406
      vertex -0.7000000000000002 7.2778174593052025 9.222182540694803
      vertex 0.6999999999999993 7.2778174593052025 9.222182540694803
    endloop
  endfacet
  facet normal 0 -0.5555702330196053 0.8314696123025431
    outer loop
      vertex -0.7000000000000002 7.2778174593052025 9.222182540694803
      vertex -0.7000000000000002 6.920951775601599 8.983732514237587
      vertex 0.6999999999999993 6.920951775601599 8.983732514237587
    endloop
  endfacet
  facet normal 0 -0.19509032201612206 0.9807852804032317
    outer loop
      vertex -0.7000000000000002 6.920951775601599 8.983732514237587
      vertex -0.7000000000000002 6.5 8.900000000000006
      vertex 0.6999999999999993 6.5 8.900000000000006
    endloop
  endfacet
  facet normal 0 0.9807852804032307 -0.19509032201612683
    outer loop
      vertex -0.7000000000000002 5.4 10
      vertex 0.6999999999999993 5.483732514237585 10.420951775601601
      vertex 0.6999999999999993 5.4 10
    endloop
  endfacet
  facet normal 0 0.19509032201613802 -0.9807852804032285
    outer loop
      vertex -0.7000000000000002 6.079048224398401 11.016267485762413
      vertex 0.6999999999999993 6.5 11.100000000000001
      vertex 0.6999999999999993 6.079048224398401 11.016267485762413
    endloop
  endfacet
  facet normal 0 -0.19509032201613802 -0.9807852804032285
    outer loop
      vertex -0.7000000000000002 6.5 11.100000000000001
      vertex 0.6999999999999993 6.920951775601599 11.016267485762413
      vertex 0.6999999999999993 6.5 11.100000000000001
    endloop
  endfacet
  facet normal 0 0.555570233019594 -0.8314696123025508
    outer loop
      vertex -0.7000000000000002 5.7221825406947975 10.777817459305204
      vertex 0.6999999999999993 6.079048224398401 11.016267485762413
      vertex 0.6999999999999993 5.7221825406947975 10.777817459305204
    endloop
  endfacet
  facet normal 0 -0.555570233019594 -0.8314696123025508
    outer loop
      vertex -0.7000000000000002 6.920951775601599 11.016267485762413
      vertex 0.6999999999999993 7.2778174593052025 10.777817459305204
      vertex 0.6999999999999993 6.920951775601599 11.016267485762413
    endloop
  endfacet
  facet normal 0 -0.8314696123025453 -0.5555702330196021
    outer loop
      vertex -0.7000000000000002 7.2778174593052025 10.777817459305204
      vertex 0.6999999999999993 7.516267485762415 10.420951775601601
      vertex 0.6999999999999993 7.2778174593052025 10.777817459305204
    endloop
  endfacet
  facet normal 0 0.8314696123025453 -0.5555702330196021
    outer loop
      vertex -0.7000000000000002 5.483732514237585 10.420951775601601
      vertex 0.6999999999999993 5.7221825406947975 10.777817459305204
      vertex 0.6999999999999993 5.483732514237585 10.420951775601601
    endloop
  endfacet
  facet normal 0 -0.9807852804032307 -0.19509032201612683
    outer loop
      vertex -0.7000000000000002 7.516267485762415 10.420951775601601
      vertex 0.6999999999999993 7.6 10
      vertex 0.6999999999999993 7.516267485762415 10.420951775601601
    endloop
  endfacet
  facet normal 0 -0.98078528040323 0.19509032201613002
    outer loop
      vertex -0.7000000000000002 7.6 10
      vertex 0.6999999999999993 7.516267485762415 9.579048224398406
      vertex 0.6999999999999993 7.6 10
    endloop
  endfacet
  facet normal 0 0.98078528040323 0.19509032201613002
    outer loop
      vertex 0.6999999999999993 5.483732514237585 9.579048224398406
      vertex -0.7000000000000002 5.483732514237585 9.579048224398406
      vertex 0.6999999999999993 5.4 10
    endloop
  endfacet
  facet normal 0 0.8314696123025453 0.5555702330196021
    outer loop
      vertex 0.6999999999999993 5.7221825406947975 9.222182540694803
      vertex -0.7000000000000002 5.7221825406947975 9.222182540694803
      vertex 0.6999999999999993 5.483732514237585 9.579048224398406
    endloop
  endfacet
  facet normal 0 0.5555702330196053 0.8314696123025431
    outer loop
      vertex -0.7000000000000002 6.079048224398401 8.983732514237587
      vertex 0.6999999999999993 5.7221825406947975 9.222182540694803
      vertex 0.6999999999999993 6.079048224398401 8.983732514237587
    endloop
  endfacet
  facet normal 0 -0.19509032201612206 0.9807852804032317
    outer loop
      vertex -0.7000000000000002 6.920951775601599 8.983732514237587
      vertex 0.6999999999999993 6.5 8.900000000000006
      vertex 0.6999999999999993 6.920951775601599 8.983732514237587
    endloop
  endfacet
  facet normal 0 -0.8314696123025453 0.5555702330196021
    outer loop
      vertex -0.7000000000000002 7.516267485762415 9.579048224398406
      vertex 0.6999999999999993 7.2778174593052025 9.222182540694803
      vertex 0.6999999999999993 7.516267485762415 9.579048224398406
    endloop
  endfacet
  facet normal 0 -0.5555702330196053 0.8314696123025431
    outer loop
      vertex 0.6999999999999993 6.920951775601599 8.983732514237587
      vertex 0.6999999999999993 7.2778174593052025 9.222182540694803
      vertex -0.7000000000000002 7.2778174593052025 9.222182540694803
    endloop
  endfacet
  facet normal 0 0.19509032201612206 0.9807852804032317
    outer loop
      vertex -0.7000000000000002 6.5 8.900000000000006
      vertex 0.6999999999999993 6.079048224398401 8.983732514237587
      vertex 0.6999999999999993 6.5 8.900000000000006
    endloop
  endfacet
  facet normal 0 0.5555702330196053 -0.8314696123025431
    outer loop
      vertex -0.7000000000000002 5.7221825406947975 6.777817459305197
      vertex -0.7000000000000002 6.079048224398401 7.0162674857624125
      vertex 0.6999999999999993 6.079048224398401 7.0162674857624125
    endloop
  endfacet
  facet normal 0 0.19509032201612206 -0.9807852804032317
    outer loop
      vertex -0.7000000000000002 6.079048224398401 7.0162674857624125
      vertex -0.7000000000000002 6.5 7.099999999999994
      vertex 0.6999999999999993 6.5 7.099999999999994
    endloop
  endfacet
  facet normal 0 -0.19509032201612206 -0.9807852804032317
    outer loop
      vertex -0.7000000000000002 6.5 7.099999999999994
      vertex -0.7000000000000002 6.920951775601599 7.0162674857624125
      vertex 0.6999999999999993 6.920951775601599 7.0162674857624125
    endloop
  endfacet
  facet normal 0 0.8314696123025453 -0.5555702330196021
    outer loop
      vertex 0.6999999999999993 5.7221825406947975 6.777817459305197
      vertex -0.7000000000000002 5.483732514237585 6.420951775601594
      vertex -0.7000000000000002 5.7221825406947975 6.777817459305197
    endloop
  endfacet
  facet normal 0 -0.5555702330196053 -0.8314696123025431
    outer loop
      vertex -0.7000000000000002 6.920951775601599 7.0162674857624125
      vertex -0.7000000000000002 7.2778174593052025 6.777817459305197
      vertex 0.6999999999999993 7.2778174593052025 6.777817459305197
    endloop
  endfacet
  facet normal 0 -0.8314696123025453 -0.5555702330196021
    outer loop
      vertex -0.7000000000000002 7.516267485762415 6.420951775601594
      vertex 0.6999999999999993 7.516267485762415 6.420951775601594
      vertex -0.7000000000000002 7.2778174593052025 6.777817459305197
    endloop
  endfacet
  facet normal 0 0.19509032201612206 -0.9807852804032317
    outer loop
      vertex -0.7000000000000002 6.079048224398401 7.0162674857624125
      vertex 0.6999999999999993 6.5 7.099999999999994
      vertex 0.6999999999999993 6.079048224398401 7.0162674857624125
    endloop
  endfacet
  facet normal 0 -0.19509032201612206 -0.9807852804032317
    outer loop
      vertex -0.7000000000000002 6.5 7.099999999999994
      vertex 0.6999999999999993 6.920951775601599 7.0162674857624125
      vertex 0.6999999999999993 6.5 7.099999999999994
    endloop
  endfacet
  facet normal 0 0.5555702330196053 -0.8314696123025431
    outer loop
      vertex 0.6999999999999993 6.079048224398401 7.0162674857624125
      vertex 0.6999999999999993 5.7221825406947975 6.777817459305197
      vertex -0.7000000000000002 5.7221825406947975 6.777817459305197
    endloop
  endfacet
  facet normal 0 0.8314696123025453 -0.5555702330196021
    outer loop
      vertex 0.6999999999999993 5.483732514237585 6.420951775601594
      vertex -0.7000000000000002 5.483732514237585 6.420951775601594
      vertex 0.6999999999999993 5.7221825406947975 6.777817459305197
    endloop
  endfacet
  facet normal 0 -0.5555702330196053 -0.8314696123025431
    outer loop
      vertex -0.7000000000000002 6.920951775601599 7.0162674857624125
      vertex 0.6999999999999993 7.2778174593052025 6.777817459305197
      vertex 0.6999999999999993 6.920951775601599 7.0162674857624125
    endloop
  endfacet
  facet normal 0 -0.8314696123025453 -0.5555702330196021
    outer loop
      vertex -0.7000000000000002 7.2778174593052025 6.777817459305197
      vertex 0.6999999999999993 7.516267485762415 6.420951775601594
      vertex 0.6999999999999993 7.2778174593052025 6.777817459305197
    endloop
  endfacet
  facet normal 0 0.98078528040323 -0.19509032201613002
    outer loop
      vertex 0.6999999999999993 5.483732514237585 6.420951775601594
      vertex -0.7000000000000002 5.4 6
      vertex -0.7000000000000002 5.483732514237585 6.420951775601594
    endloop
  endfacet
  facet normal 0 0.98078528040323 0.19509032201613002
    outer loop
      vertex -0.7000000000000002 5.4 6
      vertex 0.6999999999999993 5.4 6
      vertex -0.7000000000000002 5.483732514237585 5.579048224398406
    endloop
  endfacet
  facet normal 0 -0.98078528040323 -0.19509032201613002
    outer loop
      vertex -0.7000000000000002 7.516267485762415 6.420951775601594
      vertex -0.7000000000000002 7.6 6
      vertex 0.6999999999999993 7.6 6
    endloop
  endfacet
  facet normal 0 -0.98078528040323 0.19509032201613002
    outer loop
      vertex -0.7000000000000002 7.516267485762415 5.579048224398406
      vertex 0.6999999999999993 7.516267485762415 5.579048224398406
      vertex -0.7000000000000002 7.6 6
    endloop
  endfacet
  facet normal 0 0.8314696123025453 0.5555702330196021
    outer loop
      vertex -0.7000000000000002 5.483732514237585 5.579048224398406
      vertex 0.6999999999999993 5.483732514237585 5.579048224398406
      vertex -0.7000000000000002 5.7221825406947975 5.222182540694803
    endloop
  endfacet
  facet normal 0 0.5555702330196053 0.8314696123025431
    outer loop
      vertex -0.7000000000000002 5.7221825406947975 5.222182540694803
      vertex 0.6999999999999993 5.7221825406947975 5.222182540694803
      vertex -0.7000000000000002 6.079048224398401 4.9837325142375875
    endloop
  endfacet
  facet normal 0 0.19509032201612206 0.9807852804032317
    outer loop
      vertex -0.7000000000000002 6.5 4.900000000000006
      vertex -0.7000000000000002 6.079048224398401 4.9837325142375875
      vertex 0.6999999999999993 6.079048224398401 4.9837325142375875
    endloop
  endfacet
  facet normal 0 -0.19509032201612206 0.9807852804032317
    outer loop
      vertex -0.7000000000000002 6.920951775601599 4.9837325142375875
      vertex -0.7000000000000002 6.5 4.900000000000006
      vertex 0.6999999999999993 6.5 4.900000000000006
    endloop
  endfacet
  facet normal 0 -0.8314696123025453 0.5555702330196021
    outer loop
      vertex -0.7000000000000002 7.516267485762415 5.579048224398406
      vertex -0.7000000000000002 7.2778174593052025 5.222182540694803
      vertex 0.6999999999999993 7.2778174593052025 5.222182540694803
    endloop
  endfacet
  facet normal 0 -0.5555702330196053 0.8314696123025431
    outer loop
      vertex -0.7000000000000002 7.2778174593052025 5.222182540694803
      vertex -0.7000000000000002 6.920951775601599 4.9837325142375875
      vertex 0.6999999999999993 6.920951775601599 4.9837325142375875
    endloop
  endfacet
  facet normal 0 0.98078528040323 -0.19509032201613002
    outer loop
      vertex -0.7000000000000002 5.4 6
      vertex 0.6999999999999993 5.483732514237585 6.420951775601594
      vertex 0.6999999999999993 5.4 6
    endloop
  endfacet
  facet normal 0 0.98078528040323 0.19509032201613002
    outer loop
      vertex -0.7000000000000002 5.483732514237585 5.579048224398406
      vertex 0.6999999999999993 5.4 6
      vertex 0.6999999999999993 5.483732514237585 5.579048224398406
    endloop
  endfacet
  facet normal 0 -0.98078528040323 -0.19509032201613002
    outer loop
      vertex -0.7000000000000002 7.516267485762415 6.420951775601594
      vertex 0.6999999999999993 7.6 6
      vertex 0.6999999999999993 7.516267485762415 6.420951775601594
    endloop
  endfacet
  facet normal 0 -0.98078528040323 0.19509032201613002
    outer loop
      vertex 0.6999999999999993 7.516267485762415 5.579048224398406
      vertex 0.6999999999999993 7.6 6
      vertex -0.7000000000000002 7.6 6
    endloop
  endfacet
  facet normal 0 0.8314696123025453 0.5555702330196021
    outer loop
      vertex -0.7000000000000002 5.7221825406947975 5.222182540694803
      vertex 0.6999999999999993 5.483732514237585 5.579048224398406
      vertex 0.6999999999999993 5.7221825406947975 5.222182540694803
    endloop
  endfacet
  facet normal 0 0.5555702330196053 0.8314696123025431
    outer loop
      vertex -0.7000000000000002 6.079048224398401 4.9837325142375875
      vertex 0.6999999999999993 5.7221825406947975 5.222182540694803
      vertex 0.6999999999999993 6.079048224398401 4.9837325142375875
    endloop
  endfacet
  facet normal 0 0.19509032201612206 0.9807852804032317
    outer loop
      vertex -0.7000000000000002 6.5 4.900000000000006
      vertex 0.6999999999999993 6.079048224398401 4.9837325142375875
      vertex 0.6999999999999993 6.5 4.900000000000006
    endloop
  endfacet
  facet normal 0 -0.19509032201612206 0.9807852804032317
    outer loop
      vertex -0.7000000000000002 6.920951775601599 4.9837325142375875
      vertex 0.6999999999999993 6.5 4.900000000000006
      vertex 0.6999999999999993 6.920951775601599 4.9837325142375875
    endloop
  endfacet
  facet normal 0 -0.8314696123025453 0.5555702330196021
    outer loop
      vertex -0.7000000000000002 7.516267485762415 5.579048224398406
      vertex 0.6999999999999993 7.2778174593052025 5.222182540694803
      vertex 0.6999999999999993 7.516267485762415 5.579048224398406
    endloop
  endfacet
  facet normal 0 -0.5555702330196053 0.8314696123025431
    outer loop
      vertex -0.7000000000000002 7.2778174593052025 5.222182540694803
      vertex 0.6999999999999993 6.920951775601599 4.9837325142375875
      vertex 0.6999999999999993 7.2778174593052025 5.222182540694803
    endloop
  endfacet
  facet normal 0.8910065241883708 0 -0.45399049973954103
    outer loop
      vertex -0.6876644452187053 -11 1.9996174644486047
      vertex -0.8083980388508807 -11 1.7626644452187037
      vertex -0.8083980388508807 11 1.7626644452187037
    endloop
  endfacet
  facet normal 0.9876883405951377 0 -0.1564344650402316
    outer loop
      vertex -0.8083980388508807 -11 1.7626644452187037
      vertex -0.8500000000000001 -11 1.5
      vertex -0.8500000000000001 11 1.5
    endloop
  endfacet
  facet normal 0.9876883405951377 0 0.1564344650402316
    outer loop
      vertex -0.8500000000000001 -11 1.5
      vertex -0.8083980388508807 -11 1.2373355547812963
      vertex -0.8083980388508807 11 1.2373355547812963
    endloop
  endfacet
  facet normal 0.8910065241883708 0 0.45399049973954103
    outer loop
      vertex -0.8083980388508807 -11 1.2373355547812963
      vertex -0.6876644452187053 -11 1.0003825355513953
      vertex -0.6876644452187053 11 1.0003825355513953
    endloop
  endfacet
  facet normal 0.7071067811865343 0 -0.7071067811865609
    outer loop
      vertex -0.499617464448602 -11 2.187664445218701
      vertex -0.6876644452187053 -11 1.9996174644486047
      vertex -0.6876644452187053 11 1.9996174644486047
    endloop
  endfacet
  facet normal 0.453990499739565 0 -0.8910065241883586
    outer loop
      vertex -0.499617464448602 -11 2.187664445218701
      vertex -0.499617464448602 11 2.187664445218701
      vertex -0.26266444521870547 -11 2.308398038850882
    endloop
  endfacet
  facet normal 0.1564344650402045 0 -0.9876883405951419
    outer loop
      vertex -0.26266444521870547 -11 2.308398038850882
      vertex -0.26266444521870547 11 2.308398038850882
      vertex 0 -11 2.3499999999999943
    endloop
  endfacet
  facet normal 0.7071067811865343 0 0.7071067811865609
    outer loop
      vertex -0.499617464448602 -11 0.8123355547812992
      vertex -0.499617464448602 11 0.8123355547812992
      vertex -0.6876644452187053 -11 1.0003825355513953
    endloop
  endfacet
  facet normal 0.453990499739565 0 0.8910065241883586
    outer loop
      vertex -0.26266444521870547 -11 0.691601961149118
      vertex -0.26266444521870547 11 0.691601961149118
      vertex -0.499617464448602 -11 0.8123355547812992
    endloop
  endfacet
  facet normal 0.1564344650402045 0 0.9876883405951419
    outer loop
      vertex 0 -11 0.6500000000000057
      vertex 0 11 0.6500000000000057
      vertex -0.26266444521870547 -11 0.691601961149118
    endloop
  endfacet
  facet normal -0.1564344650402045 0 -0.9876883405951419
    outer loop
      vertex 0 -11 2.3499999999999943
      vertex 0 11 2.3499999999999943
      vertex 0.26266444521870547 -11 2.308398038850882
    endloop
  endfacet
  facet normal -0.453990499739565 0 -0.8910065241883586
    outer loop
      vertex 0.26266444521870547 -11 2.308398038850882
      vertex 0.26266444521870547 11 2.308398038850882
      vertex 0.499617464448602 -11 2.187664445218701
    endloop
  endfacet
  facet normal -0.7071067811865343 0 -0.7071067811865609
    outer loop
      vertex 0.499617464448602 -11 2.187664445218701
      vertex 0.499617464448602 11 2.187664445218701
      vertex 0.6876644452187053 -11 1.9996174644486047
    endloop
  endfacet
  facet normal -0.1564344650402045 0 0.9876883405951419
    outer loop
      vertex 0.26266444521870547 -11 0.691601961149118
      vertex 0.26266444521870547 11 0.691601961149118
      vertex 0 -11 0.6500000000000057
    endloop
  endfacet
  facet normal -0.7071067811865343 0 0.7071067811865609
    outer loop
      vertex 0.6876644452187053 -11 1.0003825355513953
      vertex 0.6876644452187053 11 1.0003825355513953
      vertex 0.499617464448602 -11 0.8123355547812992
    endloop
  endfacet
  facet normal -0.453990499739565 0 0.8910065241883586
    outer loop
      vertex 0.499617464448602 -11 0.8123355547812992
      vertex 0.499617464448602 11 0.8123355547812992
      vertex 0.26266444521870547 -11 0.691601961149118
    endloop
  endfacet
  facet normal -0.8910065241883715 0 -0.4539904997395397
    outer loop
      vertex 0.8083980388508802 -11 1.7626644452187037
      vertex 0.6876644452187053 -11 1.9996174644486047
      vertex 0.6876644452187053 11 1.9996174644486047
    endloop
  endfacet
  facet normal -0.9876883405951377 0 -0.1564344650402316
    outer loop
      vertex 0.8499999999999996 -11 1.5
      vertex 0.8083980388508802 -11 1.7626644452187037
      vertex 0.8083980388508802 11 1.7626644452187037
    endloop
  endfacet
  facet normal -0.9876883405951377 0 0.1564344650402316
    outer loop
      vertex 0.8083980388508802 -11 1.2373355547812963
      vertex 0.8499999999999996 -11 1.5
      vertex 0.8499999999999996 11 1.5
    endloop
  endfacet
  facet normal -0.8910065241883715 0 0.4539904997395397
    outer loop
      vertex 0.6876644452187053 -11 1.0003825355513953
      vertex 0.8083980388508802 -11 1.2373355547812963
      vertex 0.8083980388508802 11 1.2373355547812963
    endloop
  endfacet
  facet normal 0.9876883405951377 0 -0.1564344650402316
    outer loop
      vertex -0.8083980388508807 -11 1.7626644452187037
      vertex -0.8500000000000001 11 1.5
      vertex -0.8083980388508807 11 1.7626644452187037
    endloop
  endfacet
  facet normal 0.8910065241883708 0 -0.45399049973954103
    outer loop
      vertex -0.6876644452187053 -11 1.9996174644486047
      vertex -0.8083980388508807 11 1.7626644452187037
      vertex -0.6876644452187053 11 1.9996174644486047
    endloop
  endfacet
  facet normal 0.9876883405951377 0 0.1564344650402316
    outer loop
      vertex -0.8500000000000001 -11 1.5
      vertex -0.8083980388508807 11 1.2373355547812963
      vertex -0.8500000000000001 11 1.5
    endloop
  endfacet
  facet normal 0.8910065241883708 0 0.45399049973954103
    outer loop
      vertex -0.8083980388508807 -11 1.2373355547812963
      vertex -0.6876644452187053 11 1.0003825355513953
      vertex -0.8083980388508807 11 1.2373355547812963
    endloop
  endfacet
  facet normal 0.7071067811865343 0 -0.7071067811865609
    outer loop
      vertex -0.499617464448602 -11 2.187664445218701
      vertex -0.6876644452187053 11 1.9996174644486047
      vertex -0.499617464448602 11 2.187664445218701
    endloop
  endfacet
  facet normal 0.453990499739565 0 -0.8910065241883586
    outer loop
      vertex -0.26266444521870547 -11 2.308398038850882
      vertex -0.499617464448602 11 2.187664445218701
      vertex -0.26266444521870547 11 2.308398038850882
    endloop
  endfacet
  facet normal 0.1564344650402045 0 -0.9876883405951419
    outer loop
      vertex 0 -11 2.3499999999999943
      vertex -0.26266444521870547 11 2.308398038850882
      vertex 0 11 2.3499999999999943
    endloop
  endfacet
  facet normal 0.7071067811865343 0 0.7071067811865609
    outer loop
      vertex -0.6876644452187053 -11 1.0003825355513953
      vertex -0.499617464448602 11 0.8123355547812992
      vertex -0.6876644452187053 11 1.0003825355513953
    endloop
  endfacet
  facet normal 0.453990499739565 0 0.8910065241883586
    outer loop
      vertex -0.499617464448602 -11 0.8123355547812992
      vertex -0.26266444521870547 11 0.691601961149118
      vertex -0.499617464448602 11 0.8123355547812992
    endloop
  endfacet
  facet normal 0.1564344650402045 0 0.9876883405951419
    outer loop
      vertex -0.26266444521870547 -11 0.691601961149118
      vertex 0 11 0.6500000000000057
      vertex -0.26266444521870547 11 0.691601961149118
    endloop
  endfacet
  facet normal -0.1564344650402045 0 -0.9876883405951419
    outer loop
      vertex 0.26266444521870547 -11 2.308398038850882
      vertex 0 11 2.3499999999999943
      vertex 0.26266444521870547 11 2.308398038850882
    endloop
  endfacet
  facet normal -0.453990499739565 0 -0.8910065241883586
    outer loop
      vertex 0.499617464448602 -11 2.187664445218701
      vertex 0.26266444521870547 11 2.308398038850882
      vertex 0.499617464448602 11 2.187664445218701
    endloop
  endfacet
  facet normal -0.7071067811865343 0 -0.7071067811865609
    outer loop
      vertex 0.499617464448602 11 2.187664445218701
      vertex 0.6876644452187053 11 1.9996174644486047
      vertex 0.6876644452187053 -11 1.9996174644486047
    endloop
  endfacet
  facet normal -0.1564344650402045 0 0.9876883405951419
    outer loop
      vertex 0 -11 0.6500000000000057
      vertex 0.26266444521870547 11 0.691601961149118
      vertex 0 11 0.6500000000000057
    endloop
  endfacet
  facet normal -0.453990499739565 0 0.8910065241883586
    outer loop
      vertex 0.26266444521870547 -11 0.691601961149118
      vertex 0.499617464448602 11 0.8123355547812992
      vertex 0.26266444521870547 11 0.691601961149118
    endloop
  endfacet
  facet normal -0.7071067811865343 0 0.7071067811865609
    outer loop
      vertex 0.499617464448602 -11 0.8123355547812992
      vertex 0.6876644452187053 11 1.0003825355513953
      vertex 0.499617464448602 11 0.8123355547812992
    endloop
  endfacet
  facet normal -0.8910065241883715 0 -0.4539904997395397
    outer loop
      vertex 0.8083980388508802 -11 1.7626644452187037
      vertex 0.6876644452187053 11 1.9996174644486047
      vertex 0.8083980388508802 11 1.7626644452187037
    endloop
  endfacet
  facet normal -0.9876883405951377 0 -0.1564344650402316
    outer loop
      vertex 0.8499999999999996 -11 1.5
      vertex 0.8083980388508802 11 1.7626644452187037
      vertex 0.8499999999999996 11 1.5
    endloop
  endfacet
  facet normal -0.9876883405951377 0 0.1564344650402316
    outer loop
      vertex 0.8083980388508802 -11 1.2373355547812963
      vertex 0.8499999999999996 11 1.5
      vertex 0.8083980388508802 11 1.2373355547812963
    endloop
  endfacet
  facet normal -0.8910065241883715 0 0.4539904997395397
    outer loop
      vertex 0.6876644452187053 -11 1.0003825355513953
      vertex 0.8083980388508802 11 1.2373355547812963
      vertex 0.6876644452187053 11 1.0003825355513953
    endloop
  endfacet
endsolid OpenSCAD_Model
